<?xml version="1.0" encoding="utf-8"?>
<!-- Generator: Adobe Illustrator 22.1.0, SVG Export Plug-In . SVG Version: 6.00 Build 0)  -->
<svg version="1.1" id="graphic" xmlns="http://www.w3.org/2000/svg" xmlns:xlink="http://www.w3.org/1999/xlink" x="0px" y="0px"
	 viewBox="0 0 1536 1731.3" style="enable-background:new 0 0 1536 1731.3;" xml:space="preserve">
<style type="text/css">
	.st0{display:none;fill:none;stroke:#EEEEEE;stroke-dasharray:0;}
	.st1{fill:none;}
	.st2{fill:none;stroke:#EEEEEE;stroke-dasharray:0;}
	.st3{clip-path:url(#SVGID_4_);fill:#1D6996;fill-opacity:0;}
	.st4{clip-path:url(#SVGID_6_);fill:none;stroke:#1D6996;stroke-width:2;}
	.st5{opacity:0.9;fill:#1D6996;enable-background:new    ;}
	.st6{fill:#AAAAAA;}
	.st7{font-family:'Helvetica';}
	.st8{font-size:10px;}
	.st9{fill:none;stroke:#59BA47;stroke-dasharray:0;}
	.st10{fill:none;stroke:#8B8B8B;stroke-dasharray:0;}
	.st11{fill:#59BA47;enable-background:new    ;}
	.st12{fill:#8B8B8B;enable-background:new    ;}
	.st13{fill:none;stroke:#EE00EE;stroke-dasharray:0;}
	.st14{fill:#616161;}
	.st15{opacity:0.38;fill:#8B8B8B;enable-background:new    ;}
	.st16{fill:none;stroke:#000000;stroke-width:0.75;stroke-dasharray:12,5;}
	.st17{fill:none;stroke:#FF8C00;stroke-width:3;stroke-miterlimit:10;}
	.st18{fill:#FF8C00;}
	.st19{fill:#FF8C00;stroke:#FF8C00;stroke-width:5;}
	.st20{font-family:'MyriadPro-Regular';}
	.st21{font-size:12px;}
</style>
<path class="st0" d="M232.5,1576.8v-330.3"/>
<g>
	<g transform="translate(235, 100)">
	</g>
</g>
<g id="data-labels">
</g>
<g>
	<g transform="translate(235, 100)">
	</g>
</g>
<g id="facets_1_">
	<g transform="translate(235, 100)">
		<g>
			<defs>
				<rect id="SVGID_1_" x="1378.1" y="1136" width="1116" height="350.3"/>
			</defs>
			<clipPath id="SVGID_2_">
				<use xlink:href="#SVGID_1_"  style="overflow:visible;"/>
			</clipPath>
		</g>
		<g>
			<g>
				<rect x="1385.6" y="1146" class="st1" width="1101" height="330.3"/>
			</g>
			<g>
				<g>
					<path class="st0" d="M1386.1,1476.8v-330.3"/>
					<g transform="translate(0,330.8)">
						<line class="st2" x1="1385.6" y1="1146" x2="2486.6" y2="1146"/>
						<text transform="matrix(1 0 0 1 1377.0653 1149.2999)" class="st6 st7 st8">0</text>
					</g>
					<g transform="translate(0,300.77272727272725)">
						<line class="st2" x1="1385.6" y1="1146" x2="2486.6" y2="1146"/>
						<text transform="matrix(1 0 0 1 1371.5038 1149.2999)" class="st6 st7 st8">10</text>
					</g>
					<g transform="translate(0,270.74545454545455)">
						<line class="st2" x1="1385.6" y1="1146" x2="2486.6" y2="1146"/>
						<text transform="matrix(1 0 0 1 1371.5038 1149.2999)" class="st6 st7 st8">20</text>
					</g>
					<g transform="translate(0,240.71818181818185)">
						<line class="st2" x1="1385.6" y1="1146" x2="2486.6" y2="1146"/>
						<text transform="matrix(1 0 0 1 1371.5038 1149.3)" class="st6 st7 st8">30</text>
					</g>
					<g transform="translate(0,210.6909090909091)">
						<line class="st2" x1="1385.6" y1="1146" x2="2486.6" y2="1146"/>
						<text transform="matrix(1 0 0 1 1371.5038 1149.3)" class="st6 st7 st8">40</text>
					</g>
					<g transform="translate(0,180.66363636363639)">
						<line class="st2" x1="1385.6" y1="1146" x2="2486.6" y2="1146"/>
						<text transform="matrix(1 0 0 1 1371.5038 1149.3)" class="st6 st7 st8">50</text>
					</g>
					<g transform="translate(0,150.63636363636365)">
						<line class="st2" x1="1385.6" y1="1146" x2="2486.6" y2="1146"/>
						<text transform="matrix(1 0 0 1 1371.5038 1149.2999)" class="st6 st7 st8">60</text>
					</g>
					<g transform="translate(0,120.60909090909092)">
						<line class="st2" x1="1385.6" y1="1146" x2="2486.6" y2="1146"/>
						<text transform="matrix(1 0 0 1 1371.5038 1149.3)" class="st6 st7 st8">70</text>
					</g>
					<g transform="translate(0,90.58181818181816)">
						<line class="st2" x1="1385.6" y1="1146" x2="2486.6" y2="1146"/>
						<text transform="matrix(1 0 0 1 1371.5038 1149.3)" class="st6 st7 st8">80</text>
					</g>
					<g transform="translate(0,60.55454545454546)">
						<line class="st2" x1="1385.6" y1="1146" x2="2486.6" y2="1146"/>
						<text transform="matrix(1 0 0 1 1371.5038 1149.3)" class="st6 st7 st8">90</text>
					</g>
					<g transform="translate(0,30.52727272727276)">
						<line class="st2" x1="1385.6" y1="1146" x2="2486.6" y2="1146"/>
						<text transform="matrix(1 0 0 1 1365.9423 1149.3)" class="st6 st7 st8">100</text>
					</g>
					<g transform="translate(0,0.5)">
						<line class="st2" x1="1385.6" y1="1146" x2="2486.6" y2="1146"/>
						<text transform="matrix(1 0 0 1 1366.6796 1149.3)" class="st6 st7 st8">110</text>
					</g>
				</g>
				<g transform="translate(0, 330.29998779296875)">
					<path class="st2" d="M1386.1,1146.5h1101"/>
					<g transform="translate(8.197594501718239,0)">
						<line class="st2" x1="1385.6" y1="1146" x2="1385.6" y2="1152"/>
						<text transform="matrix(6.123234e-17 -1 1 6.123234e-17 1385.6268 1224.3835)" class="st6 st7 st8">Rafael Aranda</text>
					</g>
					<g transform="translate(33.42096219931273,0)">
						<line class="st2" x1="1385.6" y1="1146" x2="1385.6" y2="1152"/>
						<text transform="matrix(6.123234e-17 -1 1 6.123234e-17 1385.6268 1222.1277)" class="st6 st7 st8">Carme Pigem</text>
					</g>
					<g transform="translate(58.64432989690723,0)">
						<line class="st2" x1="1385.6" y1="1146" x2="1385.6" y2="1152"/>
						<text transform="matrix(6.123234e-17 -1 1 6.123234e-17 1385.6268 1223.075)" class="st6 st7 st8">Ramon Vilalta</text>
					</g>
					<g transform="translate(83.86769759450173,0)">
						<line class="st2" x1="1385.6" y1="1146" x2="1385.6" y2="1152"/>
						<text transform="matrix(6.123234e-17 -1 1 6.123234e-17 1385.6267 1242.7283)" class="st6 st7 st8">Alejandro Aravena</text>
					</g>
					<g transform="translate(109.09106529209623,0)">
						<line class="st2" x1="1385.6" y1="1146" x2="1385.6" y2="1152"/>
						<text transform="matrix(6.123234e-17 -1 1 6.123234e-17 1385.6268 1199.8962)" class="st6 st7 st8">Frei Otto</text>
					</g>
					<g transform="translate(134.31443298969072,0)">
						<line class="st2" x1="1385.6" y1="1146" x2="1385.6" y2="1152"/>
						<text transform="matrix(6.123234e-17 -1 1 6.123234e-17 1385.6268 1216.0388)" class="st6 st7 st8">Shigeru Ban</text>
					</g>
					<g transform="translate(159.53780068728523,0)">
						<line class="st2" x1="1385.6" y1="1146" x2="1385.6" y2="1152"/>
						<text transform="matrix(6.123234e-17 -1 1 6.123234e-17 1385.6267 1196.0193)" class="st6 st7 st8">Toyo Ito</text>
					</g>
					<g transform="translate(184.76116838487974,0)">
						<line class="st2" x1="1385.6" y1="1146" x2="1385.6" y2="1152"/>
						<text transform="matrix(6.123234e-17 -1 1 6.123234e-17 1385.6268 1207.3279)" class="st6 st7 st8">Wang Shu</text>
					</g>
					<g transform="translate(209.98453608247422,0)">
						<line class="st2" x1="1385.6" y1="1146" x2="1385.6" y2="1152"/>
						<text transform="matrix(6.123234e-17 -1 1 6.123234e-17 1385.6268 1272.7429)" class="st6 st7 st8">Eduardo Souto de Moura</text>
					</g>
					<g transform="translate(235.2079037800687,0)">
						<line class="st2" x1="1385.6" y1="1146" x2="1385.6" y2="1152"/>
						<text transform="matrix(6.123234e-17 -1 1 6.123234e-17 1385.6267 1232.6941)" class="st6 st7 st8">Ryue Nishizawa</text>
					</g>
					<g transform="translate(260.4312714776632,0)">
						<line class="st2" x1="1385.6" y1="1146" x2="1385.6" y2="1152"/>
						<text transform="matrix(6.123234e-17 -1 1 6.123234e-17 1385.6268 1227.699)" class="st6 st7 st8">Kazuyo Sejima</text>
					</g>
					<g transform="translate(285.6546391752577,0)">
						<line class="st2" x1="1385.6" y1="1146" x2="1385.6" y2="1152"/>
						<text transform="matrix(6.123234e-17 -1 1 6.123234e-17 1385.6268 1224.9109)" class="st6 st7 st8">Peter Zumthor</text>
					</g>
					<g transform="translate(310.8780068728522,0)">
						<line class="st2" x1="1385.6" y1="1146" x2="1385.6" y2="1152"/>
						<text transform="matrix(6.123234e-17 -1 1 6.123234e-17 1385.6268 1216.5906)" class="st6 st7 st8">Jean Nouvel</text>
					</g>
					<g transform="translate(336.1013745704467,0)">
						<line class="st2" x1="1385.6" y1="1146" x2="1385.6" y2="1152"/>
						<text transform="matrix(6.123234e-17 -1 1 6.123234e-17 1385.6268 1230.4724)" class="st6 st7 st8">Richard Rogers</text>
					</g>
					<g transform="translate(361.32474226804123,0)">
						<line class="st2" x1="1385.6" y1="1146" x2="1385.6" y2="1152"/>
						<text transform="matrix(6.123234e-17 -1 1 6.123234e-17 1385.6267 1242.1619)" class="st6 st7 st8">Mendes da Rocha</text>
					</g>
					<g transform="translate(386.5481099656357,0)">
						<line class="st2" x1="1385.6" y1="1146" x2="1385.6" y2="1152"/>
						<text transform="matrix(6.123234e-17 -1 1 6.123234e-17 1385.6267 1219.3542)" class="st6 st7 st8">Thom Mayne</text>
					</g>
					<g transform="translate(411.7714776632302,0)">
						<line class="st2" x1="1385.6" y1="1146" x2="1385.6" y2="1152"/>
						<text transform="matrix(6.123234e-17 -1 1 6.123234e-17 1385.6268 1212.699)" class="st6 st7 st8">Zaha Hadid</text>
					</g>
					<g transform="translate(436.9948453608247,0)">
						<line class="st2" x1="1385.6" y1="1146" x2="1385.6" y2="1152"/>
						<text transform="matrix(6.123234e-17 -1 1 6.123234e-17 1385.6268 1209.9011)" class="st6 st7 st8">Jørn Utzon</text>
					</g>
					<g transform="translate(462.21821305841917,0)">
						<line class="st2" x1="1385.6" y1="1146" x2="1385.6" y2="1152"/>
						<text transform="matrix(6.123234e-17 -1 1 6.123234e-17 1385.6267 1223.8025)" class="st6 st7 st8">Glenn Murcutt</text>
					</g>
					<g transform="translate(487.4415807560137,0)">
						<line class="st2" x1="1385.6" y1="1146" x2="1385.6" y2="1152"/>
						<text transform="matrix(6.123234e-17 -1 1 6.123234e-17 1385.6268 1238.2605)" class="st6 st7 st8">Pierre de Meuron</text>
					</g>
					<g transform="translate(512.6649484536082,0)">
						<line class="st2" x1="1385.6" y1="1146" x2="1385.6" y2="1152"/>
						<text transform="matrix(6.123234e-17 -1 1 6.123234e-17 1385.6268 1233.2605)" class="st6 st7 st8">Jacques Herzog</text>
					</g>
					<g transform="translate(537.8883161512026,0)">
						<line class="st2" x1="1385.6" y1="1146" x2="1385.6" y2="1152"/>
						<text transform="matrix(6.123234e-17 -1 1 6.123234e-17 1385.6267 1226.5906)" class="st6 st7 st8">Rem Koolhaas</text>
					</g>
					<g transform="translate(563.1116838487972,0)">
						<line class="st2" x1="1385.6" y1="1146" x2="1385.6" y2="1152"/>
						<text transform="matrix(6.123234e-17 -1 1 6.123234e-17 1385.6268 1227.6843)" class="st6 st7 st8">Norman Foster</text>
					</g>
					<g transform="translate(588.3350515463916,0)">
						<line class="st2" x1="1385.6" y1="1146" x2="1385.6" y2="1152"/>
						<text transform="matrix(6.123234e-17 -1 1 6.123234e-17 1385.6267 1218.2605)" class="st6 st7 st8">Renzo Piano</text>
					</g>
					<g transform="translate(613.5584192439861,0)">
						<line class="st2" x1="1385.6" y1="1146" x2="1385.6" y2="1152"/>
						<text transform="matrix(6.123234e-17 -1 1 6.123234e-17 1385.6267 1216.0242)" class="st6 st7 st8">Sverre Fehn</text>
					</g>
					<g transform="translate(638.7817869415807,0)">
						<line class="st2" x1="1385.6" y1="1146" x2="1385.6" y2="1152"/>
						<text transform="matrix(6.123234e-17 -1 1 6.123234e-17 1385.6268 1247.1619)" class="st6 st7 st8">José Rafael Moneo</text>
					</g>
					<g transform="translate(664.0051546391751,0)">
						<line class="st2" x1="1385.6" y1="1146" x2="1385.6" y2="1152"/>
						<text transform="matrix(6.123234e-17 -1 1 6.123234e-17 1385.6268 1213.8318)" class="st6 st7 st8">Tadao Ando</text>
					</g>
					<g transform="translate(689.2285223367696,0)">
						<line class="st2" x1="1385.6" y1="1146" x2="1385.6" y2="1152"/>
						<text transform="matrix(6.123234e-17 -1 1 6.123234e-17 1385.6268 1273.822)" class="st6 st7 st8">Christian de Portzamparc</text>
					</g>
					<g transform="translate(714.4518900343642,0)">
						<line class="st2" x1="1385.6" y1="1146" x2="1385.6" y2="1152"/>
						<text transform="matrix(6.123234e-17 -1 1 6.123234e-17 1385.6268 1225.4578)" class="st6 st7 st8">Fumihiko Maki</text>
					</g>
					<g transform="translate(739.6752577319586,0)">
						<line class="st2" x1="1385.6" y1="1146" x2="1385.6" y2="1152"/>
						<text transform="matrix(6.123234e-17 -1 1 6.123234e-17 1385.6267 1318.6755)" class="st6 st7 st8">Alvaro Joaquim de Meio Siza Vieira</text>
					</g>
					<g transform="translate(764.8986254295531,0)">
						<line class="st2" x1="1385.6" y1="1146" x2="1385.6" y2="1152"/>
						<text transform="matrix(6.123234e-17 -1 1 6.123234e-17 1385.6267 1224.9304)" class="st6 st7 st8">Robert Venturi</text>
					</g>
					<g transform="translate(790.1219931271476,0)">
						<line class="st2" x1="1385.6" y1="1146" x2="1385.6" y2="1152"/>
						<text transform="matrix(6.123234e-17 -1 1 6.123234e-17 1385.6268 1208.7976)" class="st6 st7 st8">Aldo Rossi</text>
					</g>
					<g transform="translate(815.3453608247421,0)">
						<line class="st2" x1="1385.6" y1="1146" x2="1385.6" y2="1152"/>
						<text transform="matrix(6.123234e-17 -1 1 6.123234e-17 1385.6268 1216.571)" class="st6 st7 st8">Frank Gehry</text>
					</g>
					<g transform="translate(840.5687285223366,0)">
						<line class="st2" x1="1385.6" y1="1146" x2="1385.6" y2="1152"/>
						<text transform="matrix(6.123234e-17 -1 1 6.123234e-17 1385.6268 1236.6052)" class="st6 st7 st8">Gordon Bunshaft</text>
					</g>
					<g transform="translate(865.7920962199311,0)">
						<line class="st2" x1="1385.6" y1="1146" x2="1385.6" y2="1152"/>
						<text transform="matrix(6.123234e-17 -1 1 6.123234e-17 1385.6268 1233.2361)" class="st6 st7 st8">Oscar Niemeyer</text>
					</g>
					<g transform="translate(891.0154639175256,0)">
						<line class="st2" x1="1385.6" y1="1146" x2="1385.6" y2="1152"/>
						<text transform="matrix(6.123234e-17 -1 1 6.123234e-17 1385.6267 1219.2029)" class="st6 st7 st8">Kenzo Tange</text>
					</g>
					<g transform="translate(916.23883161512,0)">
						<line class="st2" x1="1385.6" y1="1146" x2="1385.6" y2="1152"/>
						<text transform="matrix(6.123234e-17 -1 1 6.123234e-17 1385.6267 1228.2507)" class="st6 st7 st8">Gottfried Böhm</text>
					</g>
					<g transform="translate(941.4621993127146,0)">
						<line class="st2" x1="1385.6" y1="1146" x2="1385.6" y2="1152"/>
						<text transform="matrix(6.123234e-17 -1 1 6.123234e-17 1385.6268 1217.6941)" class="st6 st7 st8">Hans Hollein</text>
					</g>
					<g transform="translate(966.6855670103091,0)">
						<line class="st2" x1="1385.6" y1="1146" x2="1385.6" y2="1152"/>
						<text transform="matrix(6.123234e-17 -1 1 6.123234e-17 1385.6268 1223.241)" class="st6 st7 st8">Richard Meier</text>
					</g>
					<g transform="translate(991.9089347079035,0)">
						<line class="st2" x1="1385.6" y1="1146" x2="1385.6" y2="1152"/>
						<text transform="matrix(6.123234e-17 -1 1 6.123234e-17 1385.6268 1222.1472)" class="st6 st7 st8">Ieoh Ming Pei</text>
					</g>
					<g transform="translate(1017.1323024054981,0)">
						<line class="st2" x1="1385.6" y1="1146" x2="1385.6" y2="1152"/>
						<text transform="matrix(6.123234e-17 -1 1 6.123234e-17 1385.6268 1217.699)" class="st6 st7 st8">Kevin Roche</text>
					</g>
					<g transform="translate(1042.3556701030925,0)">
						<line class="st2" x1="1385.6" y1="1146" x2="1385.6" y2="1152"/>
						<text transform="matrix(6.123234e-17 -1 1 6.123234e-17 1385.6268 1223.7976)" class="st6 st7 st8">James Stirling</text>
					</g>
					<g transform="translate(1067.579037800687,0)">
						<line class="st2" x1="1385.6" y1="1146" x2="1385.6" y2="1152"/>
						<text transform="matrix(6.123234e-17 -1 1 6.123234e-17 1385.6268 1223.2605)" class="st6 st7 st8">Luis Barragán</text>
					</g>
					<g transform="translate(1092.8024054982816,0)">
						<line class="st2" x1="1385.6" y1="1146" x2="1385.6" y2="1152"/>
						<text transform="matrix(6.123234e-17 -1 1 6.123234e-17 1385.6268 1226.0437)" class="st6 st7 st8">Philip Johnson</text>
					</g>
				</g>
			</g>
		</g>
	</g>
</g>
<g id="areas_1_">
	<g pointer-events="none">
		<g>
			<defs>
				<rect id="SVGID_3_" x="1620.6" y="1146" width="0" height="550.3"/>
			</defs>
			<clipPath id="SVGID_4_">
				<use xlink:href="#SVGID_3_"  style="overflow:visible;"/>
			</clipPath>
			<path class="st3" d="M1623.1,1399.1c8.4,1.5,16.8,3,25.2,3c8.4,0,16.8-6,25.2-6c8.4,0,16.8,21,25.2,21
				c8.4,0,16.8-114.1,25.2-114.1s16.8,84.1,25.2,84.1c8.4,0,16.8-48,25.2-48c8.4,0,16.8,66.1,25.2,66.1c8.4,0,16.8-33,25.2-33
				c8.4,0,16.8,42,25.2,42c8.4,0,16.8-18.5,25.2-30c8.4-11.5,16.8-39,25.2-39c8.4,0,16.8,6,25.2,6c8.4,0,16.8-27.5,25.2-36
				c8.4-8.5,16.8-15,25.2-15c8.4,0,16.8,35.5,25.2,48c8.4,12.5,16.8,27,25.2,27c8.4,0,16.8-72.1,25.2-72.1c8.4,0,16.8,10.5,25.2,21
				c8.4,10.5,16.8,42,25.2,42s16.8,0,25.2,0s16.8-10.5,25.2-18s16.8-27,25.2-27s16.8,6,25.2,6s16.8-9,25.2-9c8.4,0,16.8,5.5,25.2,9
				c8.4,3.5,16.8,8.5,25.2,12c8.4,3.5,16.8,9,25.2,9c8.4,0,16.8-48,25.2-48c8.4,0,16.8,15,25.2,15c8.4,0,16.8-21,25.2-21
				c8.4,0,16.8,81.1,25.2,81.1c8.4,0,16.8-72.1,25.2-72.1s16.8,27,25.2,27s16.8-72.1,25.2-72.1s16.8,39,25.2,39s16.8-21,25.2-21
				c8.4,0,16.8,42,25.2,42c8.4,0,16.8,0,25.2,0c8.4,0,16.8-51,25.2-51c8.4,0,16.8,5,25.2,15c8.4,10,16.8,93.1,25.2,93.1
				c8.4,0,16.8-43.5,25.2-60.1s16.8-27.8,25.2-39l0,0c-8.4,11.3-16.8,22.5-25.2,39s-16.8,60.1-25.2,60.1c-8.4,0-16.8-83.1-25.2-93.1
				c-8.4-10-16.8-15-25.2-15c-8.4,0-16.8,51-25.2,51c-8.4,0-16.8,0-25.2,0c-8.4,0-16.8-42-25.2-42c-8.4,0-16.8,21-25.2,21
				s-16.8-39-25.2-39s-16.8,72.1-25.2,72.1s-16.8-27-25.2-27s-16.8,72.1-25.2,72.1c-8.4,0-16.8-81.1-25.2-81.1
				c-8.4,0-16.8,21-25.2,21c-8.4,0-16.8-15-25.2-15c-8.4,0-16.8,48-25.2,48c-8.4,0-16.8-5.5-25.2-9c-8.4-3.5-16.8-8.5-25.2-12
				c-8.4-3.5-16.8-9-25.2-9c-8.4,0-16.8,9-25.2,9s-16.8-6-25.2-6s-16.8,19.5-25.2,27s-16.8,18-25.2,18s-16.8,0-25.2,0
				s-16.8-31.5-25.2-42c-8.4-10.5-16.8-21-25.2-21c-8.4,0-16.8,72.1-25.2,72.1c-8.4,0-16.8-14.5-25.2-27c-8.4-12.5-16.8-48-25.2-48
				c-8.4,0-16.8,6.5-25.2,15c-8.4,8.5-16.8,36-25.2,36c-8.4,0-16.8-6-25.2-6c-8.4,0-16.8,27.5-25.2,39c-8.4,11.5-16.8,30-25.2,30
				c-8.4,0-16.8-42-25.2-42c-8.4,0-16.8,33-25.2,33c-8.4,0-16.8-66.1-25.2-66.1c-8.4,0-16.8,48-25.2,48c-8.4,0-16.8-84.1-25.2-84.1
				s-16.8,114.1-25.2,114.1c-8.4,0-16.8-21-25.2-21c-8.4,0-16.8,6-25.2,6C1640,1402.1,1631.6,1400.6,1623.1,1399.1z"/>
		</g>
	</g>
</g>
<g id="lines_1_">
	<g>
		<g>
			<defs>
				<rect id="SVGID_5_" x="1620.6" y="1146" width="0" height="550.3"/>
			</defs>
			<clipPath id="SVGID_6_">
				<use xlink:href="#SVGID_5_"  style="overflow:visible;"/>
			</clipPath>
			<path class="st4" d="M1623.1,1399.1c8.4,1.5,16.8,3,25.2,3c8.4,0,16.8-6,25.2-6c8.4,0,16.8,21,25.2,21
				c8.4,0,16.8-114.1,25.2-114.1s16.8,84.1,25.2,84.1c8.4,0,16.8-48,25.2-48c8.4,0,16.8,66.1,25.2,66.1c8.4,0,16.8-33,25.2-33
				c8.4,0,16.8,42,25.2,42c8.4,0,16.8-18.5,25.2-30c8.4-11.5,16.8-39,25.2-39c8.4,0,16.8,6,25.2,6c8.4,0,16.8-27.5,25.2-36
				c8.4-8.5,16.8-15,25.2-15c8.4,0,16.8,35.5,25.2,48c8.4,12.5,16.8,27,25.2,27c8.4,0,16.8-72.1,25.2-72.1c8.4,0,16.8,10.5,25.2,21
				c8.4,10.5,16.8,42,25.2,42s16.8,0,25.2,0s16.8-10.5,25.2-18s16.8-27,25.2-27s16.8,6,25.2,6s16.8-9,25.2-9c8.4,0,16.8,5.5,25.2,9
				c8.4,3.5,16.8,8.5,25.2,12c8.4,3.5,16.8,9,25.2,9c8.4,0,16.8-48,25.2-48c8.4,0,16.8,15,25.2,15c8.4,0,16.8-21,25.2-21
				c8.4,0,16.8,81.1,25.2,81.1c8.4,0,16.8-72.1,25.2-72.1s16.8,27,25.2,27s16.8-72.1,25.2-72.1s16.8,39,25.2,39s16.8-21,25.2-21
				c8.4,0,16.8,42,25.2,42c8.4,0,16.8,0,25.2,0c8.4,0,16.8-51,25.2-51c8.4,0,16.8,5,25.2,15c8.4,10,16.8,93.1,25.2,93.1
				c8.4,0,16.8-43.5,25.2-60.1s16.8-27.8,25.2-39"/>
		</g>
	</g>
</g>
<g id="data-points_1_">
	<g transform="translate(235, 100)">
		<path id="point-0-0_1_" class="st5" d="M1388.1,1299.1h11.4v177.2h-11.4V1299.1z"/>
		<path id="point-0-1_1_" class="st5" d="M1413.4,1302.1h11.4v174.2h-11.4V1302.1z"/>
		<path id="point-0-2_1_" class="st5" d="M1438.6,1296.1h11.4v180.2h-11.4V1296.1z"/>
		<path id="point-0-3_1_" class="st5" d="M1463.8,1317.2h11.4v159.1h-11.4V1317.2z"/>
		<path id="point-0-4_1_" class="st5" d="M1489,1203.1h11.4v273.2H1489V1203.1z"/>
		<path id="point-0-5_1_" class="st5" d="M1514.3,1287.1h11.4v189.2h-11.4V1287.1z"/>
		<path id="point-0-6_1_" class="st5" d="M1539.5,1239.1h11.4v237.2h-11.4V1239.1z"/>
		<path id="point-0-7_1_" class="st5" d="M1564.7,1305.1h11.4v171.2h-11.4V1305.1z"/>
		<path id="point-0-8_1_" class="st5" d="M1589.9,1272.1h11.4v204.2h-11.4V1272.1z"/>
		<path id="point-0-9_1_" class="st5" d="M1615.2,1314.2h11.4v162.1h-11.4V1314.2z"/>
		<path id="point-0-10_1_" class="st5" d="M1640.4,1284.1h11.4v192.2h-11.4V1284.1z"/>
		<path id="point-0-11_1_" class="st5" d="M1665.6,1245.1h11.4v231.2h-11.4V1245.1z"/>
		<path id="point-0-12_1_" class="st5" d="M1690.8,1251.1h11.4v225.2h-11.4V1251.1z"/>
		<path id="point-0-13_1_" class="st5" d="M1716.1,1215.1h11.4v261.2h-11.4V1215.1z"/>
		<path id="point-0-14_1_" class="st5" d="M1741.3,1200h11.4v276.3h-11.4V1200z"/>
		<path id="point-0-15_1_" class="st5" d="M1766.5,1248.1h11.4v228.2h-11.4V1248.1z"/>
		<path id="point-0-16_1_" class="st5" d="M1791.7,1275.1h11.4v201.2h-11.4V1275.1z"/>
		<path id="point-0-17_1_" class="st5" d="M1816.9,1203.1h11.4v273.2h-11.4V1203.1z"/>
		<path id="point-0-18_1_" class="st5" d="M1842.2,1224.1h11.4v252.2h-11.4V1224.1z"/>
		<path id="point-0-19_1_" class="st5" d="M1867.4,1266.1h11.4v210.2h-11.4V1266.1z"/>
		<path id="point-0-20_1_" class="st5" d="M1892.6,1266.1h11.4v210.2h-11.4V1266.1z"/>
		<path id="point-0-21_1_" class="st5" d="M1917.8,1248.1h11.4v228.2h-11.4V1248.1z"/>
		<path id="point-0-22_1_" class="st5" d="M1943.1,1221.1h11.4v255.2h-11.4V1221.1z"/>
		<path id="point-0-23_1_" class="st5" d="M1968.3,1227.1h11.4v249.2h-11.4V1227.1z"/>
		<path id="point-0-24_1_" class="st5" d="M1993.5,1218.1h11.4v258.2h-11.4V1218.1z"/>
		<path id="point-0-25_1_" class="st5" d="M2018.7,1227.1h11.4v249.2h-11.4V1227.1z"/>
		<path id="point-0-26_1_" class="st5" d="M2044,1239.1h11.4v237.2H2044V1239.1z"/>
		<path id="point-0-27_1_" class="st5" d="M2069.2,1248.1h11.4v228.2h-11.4V1248.1z"/>
		<path id="point-0-28_1_" class="st5" d="M2094.4,1200h11.4v276.3h-11.4V1200z"/>
		<path id="point-0-29_1_" class="st5" d="M2119.6,1215.1h11.4v261.2h-11.4V1215.1z"/>
		<path id="point-0-30_1_" class="st5" d="M2144.9,1194h11.4v282.3h-11.4V1194z"/>
		<path id="point-0-31_1_" class="st5" d="M2170.1,1275.1h11.4v201.2h-11.4V1275.1z"/>
		<path id="point-0-32_1_" class="st5" d="M2195.3,1203.1h11.4v273.2h-11.4V1203.1z"/>
		<path id="point-0-33_1_" class="st5" d="M2220.5,1230.1h11.4v246.2h-11.4V1230.1z"/>
		<path id="point-0-34_1_" class="st5" d="M2245.7,1158h11.4v318.3h-11.4V1158z"/>
		<path id="point-0-35_1_" class="st5" d="M2271,1197h11.4v279.3H2271V1197z"/>
		<path id="point-0-36_1_" class="st5" d="M2296.2,1176h11.4v300.3h-11.4V1176z"/>
		<path id="point-0-37_1_" class="st5" d="M2321.4,1218.1h11.4v258.2h-11.4V1218.1z"/>
		<path id="point-0-38_1_" class="st5" d="M2346.6,1218.1h11.4v258.2h-11.4V1218.1z"/>
		<path id="point-0-39_1_" class="st5" d="M2371.9,1167h11.4v309.3h-11.4V1167z"/>
		<path id="point-0-40_1_" class="st5" d="M2397.1,1182h11.4v294.3h-11.4V1182z"/>
		<path id="point-0-41_1_" class="st5" d="M2422.3,1275.1h11.4v201.2h-11.4V1275.1z"/>
		<path id="point-0-42_1_" class="st5" d="M2447.5,1215.1h11.4v261.2h-11.4V1215.1z"/>
		<path id="point-0-43_1_" class="st5" d="M2472.8,1176h11.4v300.3h-11.4V1176z"/>
	</g>
</g>
<g>
	<g transform="translate(235, 100)">
	</g>
</g>
<g>
	<line class="st2" x1="690.2" y1="267" x2="690.2" y2="1509"/>
	<line class="st2" x1="720.3" y1="267" x2="720.3" y2="1509"/>
	<line class="st2" x1="660.2" y1="267" x2="660.2" y2="1509"/>
	<line class="st2" x1="750.3" y1="267" x2="750.3" y2="1509"/>
	<line class="st2" x1="780.3" y1="267" x2="780.3" y2="1509"/>
	<line class="st2" x1="810.4" y1="267" x2="810.4" y2="1509"/>
	<line class="st2" x1="840.4" y1="267" x2="840.4" y2="1509"/>
	<line class="st2" x1="870.4" y1="267" x2="870.4" y2="1509"/>
	<line class="st2" x1="900.4" y1="267" x2="900.4" y2="1509"/>
	<line class="st2" x1="930.5" y1="267" x2="930.5" y2="1509"/>
	<line class="st2" x1="960.5" y1="267" x2="960.5" y2="1509"/>
	<line class="st2" x1="990.5" y1="267" x2="990.5" y2="1509"/>
	<line class="st2" x1="1017.5" y1="267" x2="1017.5" y2="1509"/>
</g>
<g>
	<line class="st2" x1="1143.8" y1="268" x2="1143.8" y2="1510"/>
	<line class="st2" x1="1173.8" y1="268" x2="1173.8" y2="1510"/>
	<line class="st2" x1="1113.8" y1="268" x2="1113.8" y2="1510"/>
	<line class="st2" x1="1203.8" y1="268" x2="1203.8" y2="1510"/>
	<line class="st2" x1="1233.9" y1="268" x2="1233.9" y2="1510"/>
	<line class="st2" x1="1263.9" y1="268" x2="1263.9" y2="1510"/>
</g>
<g>
	<text transform="matrix(0.7071 -0.7071 0.7071 0.7071 658.2371 263.791)" class="st6 st7 st8">1900</text>
	<text transform="matrix(0.7071 -0.7071 0.7071 0.7071 688.2642 263.791)" class="st6 st7 st8">1910</text>
	<text transform="matrix(0.7071 -0.7071 0.7071 0.7071 718.2916 263.791)" class="st6 st7 st8">1920</text>
	<text transform="matrix(0.7071 -0.7071 0.7071 0.7071 748.3189 263.791)" class="st6 st7 st8">1930</text>
	<text transform="matrix(0.7071 -0.7071 0.7071 0.7071 778.3463 263.791)" class="st6 st7 st8">1940</text>
	<text transform="matrix(0.7071 -0.7071 0.7071 0.7071 808.3736 263.791)" class="st6 st7 st8">1950</text>
	<text transform="matrix(0.7071 -0.7071 0.7071 0.7071 838.4009 263.791)" class="st6 st7 st8">1960</text>
	<text transform="matrix(0.7071 -0.7071 0.7071 0.7071 868.4283 263.791)" class="st6 st7 st8">1970</text>
	<text transform="matrix(0.7071 -0.7071 0.7071 0.7071 898.4559 263.791)" class="st6 st7 st8">1980</text>
	<text transform="matrix(0.7071 -0.7071 0.7071 0.7071 928.4832 263.791)" class="st6 st7 st8">1990</text>
	<text transform="matrix(0.7071 -0.7071 0.7071 0.7071 959.9346 261.6694)" class="st6 st7 st8">2000</text>
	<text transform="matrix(0.7071 -0.7071 0.7071 0.7071 989.962 262.4067)" class="st6 st7 st8">2010</text>
	<text transform="matrix(0.7071 -0.7071 0.7071 0.7071 1017.544 262.4067)" class="st6 st7 st8">2019</text>
</g>
<g>
	<text transform="matrix(0.7071 -0.7071 0.7071 0.7071 1114.2603 262.7299)" class="st6 st7 st8">45</text>
	<text transform="matrix(0.7071 -0.7071 0.7071 0.7071 1144.2874 262.7299)" class="st6 st7 st8">55</text>
	<text transform="matrix(0.7071 -0.7071 0.7071 0.7071 1174.3147 262.7299)" class="st6 st7 st8">65</text>
	<text transform="matrix(0.7071 -0.7071 0.7071 0.7071 1204.342 262.7299)" class="st6 st7 st8">75</text>
	<text transform="matrix(0.7071 -0.7071 0.7071 0.7071 1234.3694 262.7299)" class="st6 st7 st8">85</text>
	<text transform="matrix(0.7071 -0.7071 0.7071 0.7071 1264.3967 262.7299)" class="st6 st7 st8">95</text>
</g>
<g>
	<text transform="matrix(0.7071 -0.7071 0.7071 0.7071 644.0706 1528.9492)" class="st6 st7 st8">1900</text>
	<text transform="matrix(0.7071 -0.7071 0.7071 0.7071 674.0977 1528.9492)" class="st6 st7 st8">1910</text>
	<text transform="matrix(0.7071 -0.7071 0.7071 0.7071 704.1251 1528.9492)" class="st6 st7 st8">1920</text>
	<text transform="matrix(0.7071 -0.7071 0.7071 0.7071 734.1524 1528.9492)" class="st6 st7 st8">1930</text>
	<text transform="matrix(0.7071 -0.7071 0.7071 0.7071 764.1797 1528.9492)" class="st6 st7 st8">1940</text>
	<text transform="matrix(0.7071 -0.7071 0.7071 0.7071 794.2071 1528.9492)" class="st6 st7 st8">1950</text>
	<text transform="matrix(0.7071 -0.7071 0.7071 0.7071 824.2344 1528.9492)" class="st6 st7 st8">1960</text>
	<text transform="matrix(0.7071 -0.7071 0.7071 0.7071 854.2618 1528.9492)" class="st6 st7 st8">1970</text>
	<text transform="matrix(0.7071 -0.7071 0.7071 0.7071 884.2894 1528.9492)" class="st6 st7 st8">1980</text>
	<text transform="matrix(0.7071 -0.7071 0.7071 0.7071 914.3167 1528.9492)" class="st6 st7 st8">1990</text>
	<text transform="matrix(0.7071 -0.7071 0.7071 0.7071 945.7681 1526.8276)" class="st6 st7 st8">2000</text>
	<text transform="matrix(0.7071 -0.7071 0.7071 0.7071 975.7955 1527.5649)" class="st6 st7 st8">2010</text>
	<text transform="matrix(0.7071 -0.7071 0.7071 0.7071 1003.3775 1527.5649)" class="st6 st7 st8">2019</text>
</g>
<g>
	<line class="st9" x1="1391.1" y1="325.9" x2="563.1" y2="325.9"/>
	<line class="st9" x1="1391.1" y1="353" x2="563.1" y2="353"/>
	<line class="st9" x1="1391.1" y1="299" x2="563.1" y2="299"/>
	<line class="st9" x1="1391.1" y1="380.1" x2="563.1" y2="380.1"/>
	<line class="st9" x1="1391.1" y1="407.1" x2="563.1" y2="407.1"/>
	<line class="st10" x1="1391.1" y1="434.2" x2="563.1" y2="434.2"/>
	<line class="st9" x1="1391.1" y1="461.2" x2="563.1" y2="461.2"/>
	<line class="st9" x1="1391.1" y1="488.3" x2="563.1" y2="488.3"/>
	<line class="st9" x1="1391.1" y1="515.3" x2="563.1" y2="515.3"/>
	<line class="st9" x1="1391.1" y1="542.4" x2="563.1" y2="542.4"/>
	<line class="st9" x1="1391.1" y1="569.5" x2="563.1" y2="569.5"/>
	<line class="st9" x1="1391.1" y1="596.5" x2="563.1" y2="596.5"/>
	<line class="st9" x1="1391.1" y1="623.6" x2="563.1" y2="623.6"/>
	<line class="st9" x1="1391.1" y1="650.6" x2="563.1" y2="650.6"/>
	<line class="st9" x1="1391.1" y1="677.7" x2="563.1" y2="677.7"/>
	<line class="st9" x1="1391.1" y1="704.8" x2="563.1" y2="704.8"/>
	<line class="st9" x1="1391.1" y1="731.8" x2="563.1" y2="731.8"/>
	<line class="st10" x1="1228.6" y1="758.9" x2="563.1" y2="758.9"/>
	<line class="st10" x1="1193" y1="785.9" x2="563.1" y2="785.9"/>
	<line class="st9" x1="1391.1" y1="813" x2="563.1" y2="813"/>
	<line class="st9" x1="1391.1" y1="840.1" x2="563.1" y2="840.1"/>
	<line class="st9" x1="1391.1" y1="867.1" x2="563.1" y2="867.1"/>
	<line class="st9" x1="1391.1" y1="894.2" x2="563.1" y2="894.2"/>
	<line class="st9" x1="1391.1" y1="921.2" x2="563.1" y2="921.2"/>
	<line class="st9" x1="1391.1" y1="948.3" x2="563.1" y2="948.3"/>
	<line class="st10" x1="1302.3" y1="975.4" x2="563.1" y2="975.4"/>
	<line class="st9" x1="1391.1" y1="1002.4" x2="563.1" y2="1002.4"/>
	<line class="st9" x1="1391.1" y1="1029.5" x2="563.1" y2="1029.5"/>
	<line class="st9" x1="1391.1" y1="1056.5" x2="563.1" y2="1056.5"/>
	<line class="st9" x1="1391.1" y1="1083.6" x2="563.1" y2="1083.6"/>
	<line class="st9" x1="1391.1" y1="1110.7" x2="563.1" y2="1110.7"/>
	<line class="st9" x1="1391.1" y1="1137.7" x2="563.1" y2="1137.7"/>
	<line class="st10" x1="1143.9" y1="1164.8" x2="563.1" y2="1164.8"/>
	<line class="st9" x1="1391.1" y1="1191.8" x2="563.1" y2="1191.8"/>
	<line class="st10" x1="1112.7" y1="1218.9" x2="563.1" y2="1218.9"/>
	<line class="st10" x1="1210.8" y1="1246" x2="563.1" y2="1246"/>
	<line class="st10" x1="1179.6" y1="1273" x2="563.1" y2="1273"/>
	<line class="st9" x1="1391.1" y1="1300.1" x2="563.1" y2="1300.1"/>
	<line class="st9" x1="1391.1" y1="1327.1" x2="563.1" y2="1327.1"/>
	<line class="st9" x1="1391.1" y1="1354.2" x2="563.1" y2="1354.2"/>
	<line class="st9" x1="1391.1" y1="1381.2" x2="563.1" y2="1381.2"/>
	<line class="st9" x1="1391.1" y1="1408.3" x2="563.1" y2="1408.3"/>
	<line class="st10" x1="1121.7" y1="1435.4" x2="563.1" y2="1435.4"/>
	<line class="st10" x1="1103.8" y1="1462.4" x2="563.1" y2="1462.4"/>
	<line class="st10" x1="1179.6" y1="1489.5" x2="563.1" y2="1489.5"/>
</g>
<g>
	<path id="point-0-0" class="st11" d="M1017.5,314.7V326H840.4v-11.4H1017.5z"/>
	<path id="point-0-0_2_" class="st11" d="M1017.5,287.6V299H741.3v-11.4H1017.5z"/>
	<path id="point-0-1" class="st11" d="M1017.5,341.8v11.4H843.4v-11.4H1017.5z"/>
	<path id="point-0-2" class="st11" d="M1017.5,368.8v11.4H837.4v-11.4H1017.5z"/>
	<path id="point-0-3" class="st11" d="M1017.5,395.9v11.4H858.4v-11.4H1017.5z"/>
	<path id="point-0-4" class="st12" d="M1006,423v11.4H735.3V423H1006z"/>
	<path id="point-0-5" class="st11" d="M1017.5,450v11.4H828.4V450H1017.5z"/>
	<path id="point-0-6" class="st11" d="M1017.5,477.1v11.4H780.3v-11.4H1017.5z"/>
	<path id="point-0-7" class="st11" d="M1017.5,504.2v11.4H846.4v-11.4H1017.5z"/>
	<path id="point-0-8" class="st11" d="M1017.5,531.3v11.4H813.4v-11.4H1017.5z"/>
	<path id="point-0-9" class="st11" d="M1017.5,558.3v11.4H855.4v-11.4H1017.5z"/>
	<path id="point-0-10" class="st11" d="M1017.5,585.4v11.4H825.4v-11.4H1017.5z"/>
	<path id="point-0-11" class="st11" d="M1017.5,612.5v11.4H786.3v-11.4H1017.5z"/>
	<path id="point-0-12" class="st11" d="M1017.5,639.6v11.4H792.3v-11.4H1017.5z"/>
	<path id="point-0-13" class="st11" d="M1017.5,666.6V678H756.3v-11.4H1017.5z"/>
	<path id="point-0-14" class="st11" d="M1017.5,693.7v11.4H741.3v-11.4H1017.5z"/>
	<path id="point-0-15" class="st11" d="M1017.5,720.8v11.4H789.3v-11.4H1017.5z"/>
	<path id="point-0-16" class="st12" d="M1011.5,747.8v11.4H810.4v-11.4H1011.5z"/>
	<path id="point-0-17" class="st12" d="M987.5,774.9v11.4H714.3v-11.4H987.5z"/>
	<path id="point-0-18" class="st11" d="M1017.5,802v11.4H765.3V802H1017.5z"/>
	<path id="point-0-19" class="st11" d="M1017.5,829.1v11.4H807.4v-11.4H1017.5z"/>
	<path id="point-0-20" class="st11" d="M1017.5,856.1v11.4H807.4v-11.4H1017.5z"/>
	<path id="point-0-21" class="st11" d="M1017.5,883.2v11.4H789.3v-11.4H1017.5z"/>
	<path id="point-0-22" class="st11" d="M1017.5,910.3v11.4H762.3v-11.4H1017.5z"/>
	<path id="point-0-23" class="st11" d="M1017.5,937.4v11.4H768.3v-11.4H1017.5z"/>
	<path id="point-0-24" class="st12" d="M990.5,964.4v11.4H732.3v-11.4H990.5z"/>
	<path id="point-0-25" class="st11" d="M1017.5,991.5v11.4H768.3v-11.4H1017.5z"/>
	<path id="point-0-26" class="st11" d="M1017.5,1018.6v11.4H780.3v-11.4H1017.5z"/>
	<path id="point-0-27" class="st11" d="M1017.5,1045.6v11.4H789.3v-11.4H1017.5z"/>
	<path id="point-0-28" class="st11" d="M1017.5,1072.7v11.4H741.3v-11.4H1017.5z"/>
	<path id="point-0-29" class="st11" d="M1017.5,1099.8v11.4H756.3v-11.4H1017.5z"/>
	<path id="point-0-30" class="st11" d="M1017.5,1126.9v11.4H735.3v-11.4H1017.5z"/>
	<path id="point-0-31" class="st12" d="M954.5,1153.9v11.4H753.3v-11.4H954.5z"/>
	<path id="point-0-32" class="st11" d="M1017.5,1181v11.4H744.3V1181H1017.5z"/>
	<path id="point-0-33" class="st12" d="M933.5,1208.1v11.4H687.2v-11.4H933.5z"/>
	<path id="point-0-34" class="st12" d="M999.5,1235.2v11.4H681.2v-11.4H999.5z"/>
	<path id="point-0-35" class="st12" d="M978.5,1262.2v11.4H699.3v-11.4H978.5z"/>
	<path id="point-0-36" class="st11" d="M1017.5,1289.3v11.4H717.3v-11.4H1017.5z"/>
	<path id="point-0-37" class="st11" d="M1017.5,1316.4v11.4H759.3v-11.4H1017.5z"/>
	<path id="point-0-38" class="st11" d="M1017.5,1343.4v11.4H759.3v-11.4H1017.5z"/>
	<path id="point-0-39" class="st11" d="M1017.5,1370.5v11.4H708.3v-11.4H1017.5z"/>
	<path id="point-0-40" class="st11" d="M1017.5,1397.6v11.4H723.3v-11.4H1017.5z"/>
	<path id="point-0-41" class="st12" d="M939.5,1424.7v11.4H738.3v-11.4H939.5z"/>
	<path id="point-0-42" class="st12" d="M927.5,1451.7v11.4H666.2v-11.4H927.5z"/>
	<path id="point-0-43" class="st12" d="M978.5,1478.8v11.4H678.2v-11.4H978.5z"/>
</g>
<line class="st13" x1="795.2" y1="267" x2="795.2" y2="1509"/>
<g>
	<text transform="matrix(1 0 0 1 520.9266 488.3895)" class="st14 st7 st8">Toyo Ito</text>
	<text transform="matrix(1 0 0 1 493.7157 328.033)" class="st14 st7 st8">Rafael Aranda</text>
	<text transform="matrix(1 0 0 1 481.494 301.4496)" class="st14 st7 st8">Balkrishna Doshi</text>
	<text transform="matrix(1 0 0 1 495.9716 355.0927)" class="st14 st7 st8">Carme Pigem</text>
	<text transform="matrix(1 0 0 1 495.0243 382.1522)" class="st14 st7 st8">Ramon Vilalta</text>
	<text transform="matrix(1 0 0 1 475.371 409.2113)" class="st14 st7 st8">Alejandro Aravena</text>
	<path id="point-0-4_2_" class="st15" d="M559.3,427.1v11.4H515v-11.4H559.3z"/>
	<path id="point-0-4_3_" class="st15" d="M559.3,751.9v11.4h-55.1v-11.4H559.3z"/>
	<text transform="matrix(1 0 0 1 518.203 436.2709)" class="st14 st7 st8">Frei Otto</text>
	<text transform="matrix(1 0 0 1 502.0605 463.33)" class="st14 st7 st8">Shigeru Ban</text>
	<text transform="matrix(1 0 0 1 510.7714 517.4489)" class="st14 st7 st8">Wang Shu</text>
	<text transform="matrix(1 0 0 1 445.3564 544.5084)" class="st14 st7 st8">Eduardo Souto de Moura</text>
	<text transform="matrix(1 0 0 1 485.4052 571.568)" class="st14 st7 st8">Ryue Nishizawa</text>
	<text transform="matrix(1 0 0 1 490.4003 598.6271)" class="st14 st7 st8">Kazuyo Sejima</text>
	<text transform="matrix(1 0 0 1 493.1884 625.6862)" class="st14 st7 st8">Peter Zumthor</text>
	<text transform="matrix(1 0 0 1 501.5087 652.7458)" class="st14 st7 st8">Jean Nouvel</text>
	<text transform="matrix(1 0 0 1 487.6269 679.8055)" class="st14 st7 st8">Richard Rogers</text>
	<text transform="matrix(1 0 0 1 475.9374 706.8645)" class="st14 st7 st8">Mendes da Rocha</text>
	<text transform="matrix(1 0 0 1 498.745 733.9242)" class="st14 st7 st8">Thom Mayne</text>
	<text transform="matrix(1 0 0 1 505.4003 760.9833)" class="st14 st7 st8">Zaha Hadid</text>
	<text transform="matrix(1 0 0 1 508.1982 788.043)" class="st14 st7 st8">Jørn Utzon</text>
	<text transform="matrix(1 0 0 1 494.2968 815.1021)" class="st14 st7 st8">Glenn Murcutt</text>
	<text transform="matrix(1 0 0 1 479.8388 842.1616)" class="st14 st7 st8">Pierre de Meuron</text>
	<text transform="matrix(1 0 0 1 484.8388 869.2208)" class="st14 st7 st8">Jacques Herzog</text>
	<text transform="matrix(1 0 0 1 491.5087 896.2803)" class="st14 st7 st8">Rem Koolhaas</text>
	<text transform="matrix(1 0 0 1 490.4149 923.3395)" class="st14 st7 st8">Norman Foster</text>
	<text transform="matrix(1 0 0 1 499.8388 950.3995)" class="st14 st7 st8">Renzo Piano</text>
	<text transform="matrix(1 0 0 1 502.0751 977.4587)" class="st14 st7 st8">Sverre Fehn</text>
	<text transform="matrix(1 0 0 1 470.9374 1004.5178)" class="st14 st7 st8">José Rafael Moneo</text>
	<text transform="matrix(1 0 0 1 504.2675 1031.5769)" class="st14 st7 st8">Tadao Ando</text>
	<text transform="matrix(1 0 0 1 444.2773 1058.637)" class="st14 st7 st8">Christian de Portzamparc</text>
	<text transform="matrix(1 0 0 1 492.6415 1085.6962)" class="st14 st7 st8">Fumihiko Maki</text>
	<text transform="matrix(1 0 0 1 399.4237 1112.7552)" class="st14 st7 st8">Alvaro Joaquim de Meio Siza Vieira</text>
	<text transform="matrix(1 0 0 1 493.1689 1139.8145)" class="st14 st7 st8">Robert Venturi</text>
	<text transform="matrix(1 0 0 1 509.3017 1166.8745)" class="st14 st7 st8">Aldo Rossi</text>
	<text transform="matrix(1 0 0 1 501.5282 1193.9336)" class="st14 st7 st8">Frank Gehry</text>
	<text transform="matrix(1 0 0 1 481.494 1220.9927)" class="st14 st7 st8">Gordon Bunshaft</text>
	<text transform="matrix(1 0 0 1 484.8632 1248.0519)" class="st14 st7 st8">Oscar Niemeyer</text>
	<text transform="matrix(1 0 0 1 498.8964 1275.1119)" class="st14 st7 st8">Kenzo Tange</text>
	<text transform="matrix(1 0 0 1 489.8485 1302.1711)" class="st14 st7 st8">Gottfried Böhm</text>
	<text transform="matrix(1 0 0 1 500.4052 1329.2302)" class="st14 st7 st8">Hans Hollein</text>
	<text transform="matrix(1 0 0 1 494.8583 1356.2903)" class="st14 st7 st8">Richard Meier</text>
	<text transform="matrix(1 0 0 1 495.9521 1383.3495)" class="st14 st7 st8">Ieoh Ming Pei</text>
	<text transform="matrix(1 0 0 1 500.4003 1410.4086)" class="st14 st7 st8">Kevin Roche</text>
	<text transform="matrix(1 0 0 1 494.3017 1437.4678)" class="st14 st7 st8">James Stirling</text>
	<text transform="matrix(1 0 0 1 494.8388 1464.5277)" class="st14 st7 st8">Luis Barragán</text>
	<text transform="matrix(1 0 0 1 492.0556 1491.5864)" class="st14 st7 st8">Philip Johnson</text>
	<path id="point-0-4_4_" class="st15" d="M557.1,779.2v11.4h-49.8v-11.4H557.1z"/>
	<path id="point-0-4_5_" class="st15" d="M557,968.5v11.4h-55.4v-11.4H557z"/>
	<path id="point-0-4_6_" class="st15" d="M559,1158v11.4h-50.8V1158H559z"/>
	<path id="point-0-4_7_" class="st15" d="M559,1212.2v11.4h-77.5v-11.4H559z"/>
	<path id="point-0-4_8_" class="st15" d="M557,1238.7v11.4h-72.1v-11.4H557z"/>
	<path id="point-0-4_9_" class="st15" d="M557,1266.3v11.4h-58.2v-11.4H557z"/>
	<path id="point-0-4_10_" class="st15" d="M557,1428.4v11.4h-64.9v-11.4H557z"/>
	<path id="point-0-4_11_" class="st15" d="M557,1455.8v11.4h-64.9v-11.4H557z"/>
	<path id="point-0-4_12_" class="st15" d="M558,1482.2v11.4h-65.9v-11.4H558z"/>
</g>
<g>
	<polyline class="st16" points="1014.4,293.3 1011.4,320.4 1011.4,374.5 1008.4,401.6 1005.4,428.6 1002.4,455.7 999.4,482.8 
		996.4,509.9 993.4,536.9 990.3,564 990.3,591.1 987.3,618.2 984.3,645.2 981.2,672.3 978.2,699.4 975.2,726.4 972.2,753.5 
		969.2,780.6 966.2,807.7 963.2,834.7 963.2,861.8 960.2,888.9 957.3,916 954.3,943 951.3,970.1 948.3,997.2 945.3,1024.2 
		942.3,1051.3 939.3,1078.4 936.3,1105.5 933.3,1132.5 930.3,1159.6 927.3,1186.7 924.2,1213.8 924.2,1240.8 921.2,1267.9 
		918.2,1295 915.2,1322 912.2,1349.1 909.2,1375.9 906.3,1403.3 903.3,1430.3 900.3,1457.4 897.3,1484.5 	"/>
	<line class="st17" x1="990.6" y1="563.8" x2="990.6" y2="591.1"/>
	<line class="st17" x1="924.3" y1="1213.8" x2="924.3" y2="1241.1"/>
	<line class="st17" x1="1011.4" y1="320.4" x2="1011.4" y2="374.5"/>
	<line class="st17" x1="963.3" y1="835" x2="963.3" y2="862.3"/>
</g>
<g>
	<circle class="st18" cx="1014.4" cy="293.3" r="4.5"/>
	<circle class="st18" cx="1011.4" cy="347.4" r="4.5"/>
	<circle class="st18" cx="1011.4" cy="320.4" r="4.5"/>
	<circle class="st18" cx="1011.4" cy="374.5" r="4.5"/>
	<circle class="st18" cx="1008.5" cy="401.6" r="4.5"/>
	<circle class="st18" cx="1005.2" cy="428.9" r="4.5"/>
	<circle class="st18" cx="1002.2" cy="456" r="4.5"/>
	<circle class="st18" cx="999.2" cy="483.1" r="4.5"/>
	<circle class="st18" cx="996.1" cy="509.9" r="4.5"/>
	<circle class="st18" cx="993.1" cy="536.9" r="4.5"/>
	<circle class="st18" cx="990.5" cy="564.3" r="4.5"/>
	<circle class="st18" cx="990" cy="591.4" r="4.5"/>
	<circle class="st18" cx="987.4" cy="618.5" r="4.5"/>
	<circle class="st18" cx="984.2" cy="645.6" r="4.5"/>
	<circle class="st18" cx="981" cy="672.3" r="4.5"/>
	<circle class="st18" cx="978.1" cy="699.7" r="4.5"/>
	<circle class="st18" cx="975.2" cy="726.4" r="4.5"/>
	<circle class="st18" cx="972.3" cy="753.5" r="4.5"/>
	<circle class="st18" cx="969.2" cy="780.6" r="4.5"/>
	<circle class="st18" cx="966.2" cy="807.7" r="4.5"/>
	<circle class="st18" cx="963.1" cy="835" r="4.5"/>
	<circle class="st18" cx="963.1" cy="861.8" r="4.5"/>
	<circle class="st18" cx="960.3" cy="888.9" r="4.5"/>
	<circle class="st18" cx="957.4" cy="916" r="4.5"/>
	<circle class="st18" cx="954.2" cy="943" r="4.5"/>
	<circle class="st18" cx="951.3" cy="970.1" r="4.5"/>
	<circle class="st18" cx="948.4" cy="997.2" r="4.5"/>
	<circle class="st18" cx="945.1" cy="1024.6" r="4.5"/>
	<circle class="st18" cx="942.3" cy="1051.3" r="4.5"/>
	<circle class="st18" cx="939.5" cy="1078" r="4.5"/>
	<circle class="st18" cx="936.4" cy="1105.5" r="4.5"/>
	<circle class="st18" cx="933.4" cy="1132.5" r="4.5"/>
	<circle class="st18" cx="927" cy="1186.7" r="4.5"/>
	<circle class="st18" cx="924.2" cy="1214.4" r="4.5"/>
	<circle class="st18" cx="924" cy="1241.1" r="4.5"/>
	<circle class="st18" cx="921.3" cy="1267.9" r="4.5"/>
	<circle class="st18" cx="918.1" cy="1295" r="4.5"/>
	<circle class="st18" cx="914.8" cy="1322" r="4.5"/>
	<circle class="st18" cx="912.1" cy="1348.7" r="4.5"/>
	<circle class="st18" cx="909.1" cy="1376.2" r="4.5"/>
	<circle class="st18" cx="906.2" cy="1403.3" r="4.5"/>
	<circle class="st18" cx="903.5" cy="1430.3" r="4.5"/>
	<circle class="st18" cx="900.1" cy="1457.4" r="4.5"/>
	<circle class="st18" cx="897.3" cy="1484.5" r="4.5"/>
	<circle class="st18" cx="930.5" cy="1159.6" r="4.5"/>
</g>
<g>
	<path class="st16" d="M1254.2,299.2c-51.3,9-102.5,18-104.5,27c-2,9-3,18-3,27s6,18,6,27s-23.9,18-23.9,27c0,9,122.4,18,122.4,27
		c0,9-98.6,18-98.6,27c0,9,44.8,18,44.8,27c0,9-68.7,18-68.7,27c0,9,29.9,18,29.9,27c0,9-44.8,18-44.8,27c0,9,18.9,18,29.9,27
		c11,9,35.8,18,35.8,27c0,9-9,18-9,27c0,9,25.4,18,32.9,27c7.5,9,11.9,18,11.9,27c0,9-38.8,18-50.8,27c-11.9,9-20.9,18-20.9,27
		c0,9,92.6,18,92.6,27s-39.8,18-56.7,27c-16.9,9-44.8,18-44.8,27c0,9,0,18,0,27c0,9,8.5,18,14.9,27c6.5,9,23.9,18,23.9,27
		c0,9-9,18-9,27s35.8,18,35.8,27c0,9-32.4,18-41.8,27c-9.5,9-10.5,18-14.9,27c-4.5,9-11.9,18-11.9,27s44.8,18,44.8,27
		s-17.9,18-17.9,27c0,9,20.9,18,20.9,27c0,9-20.9,18-20.9,27c0,9,1,18,3,27c2,9,52.8,18,56.7,27c4,9,6,18,6,27c0,9-13.4,18-20.9,27
		c-7.5,9-12.4,18-23.9,27c-11.4,9-42.8,18-44.8,27c-2,9-3,18-3,27c0,9,47.8,18,47.8,27s-12.4,18-17.9,27c-5.5,9-14.9,18-14.9,27
		c0,9,68.7,18,68.7,27c0,9-7.5,18-14.9,27"/>
</g>
<g id="data-points">
	<g transform="translate(45,10)">
		<path id="point-0-0_3_" class="st19" d="M1209.2,286.8c1.3,0,2.4,1.1,2.4,2.4s-1.1,2.4-2.4,2.4c-1.3,0-2.4-1.1-2.4-2.4
			S1207.9,286.8,1209.2,286.8z"/>
		<path id="point-0-1_2_" class="st19" d="M1104.7,313.8c1.3,0,2.4,1.1,2.4,2.4s-1.1,2.4-2.4,2.4c-1.3,0-2.4-1.1-2.4-2.4
			S1103.4,313.8,1104.7,313.8z"/>
		<path id="point-0-2_2_" class="st19" d="M1101.7,340.9c1.3,0,2.4,1.1,2.4,2.4c0,1.3-1.1,2.4-2.4,2.4s-2.4-1.1-2.4-2.4
			C1099.3,342,1100.4,340.9,1101.7,340.9z"/>
		<path id="point-0-3_2_" class="st19" d="M1107.5,367.9c1.3,0,2.4,1.1,2.4,2.4c0,1.3-1.1,2.4-2.4,2.4c-1.3,0-2.4-1.1-2.4-2.4
			C1105.1,369,1106.2,367.9,1107.5,367.9z"/>
		<path id="point-0-4_13_" class="st19" d="M1083.8,395c1.3,0,2.4,1.1,2.4,2.4c0,1.3-1.1,2.4-2.4,2.4l0,0c-1.3,0-2.4-1.1-2.4-2.4
			C1081.4,396.1,1082.4,395,1083.8,395z"/>
		<path id="point-0-5_2_" class="st19" d="M1206,422c1.3,0,2.4,1.1,2.4,2.4s-1.1,2.4-2.4,2.4c-1.3,0-2.4-1.1-2.4-2.4
			S1204.7,422,1206,422z"/>
		<path id="point-0-6_2_" class="st19" d="M1107.8,449.1c1.3,0,2.4,1.1,2.4,2.4s-1.1,2.4-2.4,2.4c-1.3,0-2.4-1.1-2.4-2.4
			S1106.5,449.1,1107.8,449.1z"/>
		<path id="point-0-7_2_" class="st19" d="M1152.2,476.1c1.3,0,2.4,1.1,2.4,2.4s-1.1,2.4-2.4,2.4s-2.4-1.1-2.4-2.4
			S1150.9,476.1,1152.2,476.1z"/>
		<path id="point-0-8_2_" class="st19" d="M1083.8,503.2c1.3,0,2.4,1.1,2.4,2.4c0,1.3-1.1,2.4-2.4,2.4l0,0c-1.3,0-2.4-1.1-2.4-2.4
			C1081.4,504.2,1082.4,503.2,1083.8,503.2z"/>
		<path id="point-0-9_2_" class="st19" d="M1113.6,530.2c1.3,0,2.4,1.1,2.4,2.4c0,1.3-1.1,2.4-2.4,2.4s-2.4-1.1-2.4-2.4
			C1111.2,531.3,1112.3,530.2,1113.6,530.2z"/>
		<path id="point-0-10_2_" class="st19" d="M1068.8,557.3c1.3,0,2.4,1.1,2.4,2.4c0,1.3-1.1,2.4-2.4,2.4c-1.3,0-2.4-1.1-2.4-2.4
			C1066.4,558.3,1067.5,557.3,1068.8,557.3z"/>
		<path id="point-0-11_2_" class="st19" d="M1098.8,584.3c1.3,0,2.4,1.1,2.4,2.4c0,1.3-1.1,2.4-2.4,2.4l0,0c-1.3,0-2.4-1.1-2.4-2.4
			C1096.4,585.4,1097.4,584.3,1098.8,584.3z"/>
		<path id="point-0-12_2_" class="st19" d="M1134.5,611.3c1.3,0,2.4,1.1,2.4,2.4c0,1.3-1.1,2.4-2.4,2.4c-1.3,0-2.4-1.1-2.4-2.4
			C1132.1,612.4,1133.2,611.3,1134.5,611.3z"/>
		<path id="point-0-13_2_" class="st19" d="M1125.5,638.4c1.3,0,2.4,1.1,2.4,2.4c0,1.3-1.1,2.4-2.4,2.4s-2.4-1.1-2.4-2.4
			C1123.1,639.5,1124.2,638.4,1125.5,638.4z"/>
		<path id="point-0-14_2_" class="st19" d="M1158.4,665.4c1.3,0,2.4,1.1,2.4,2.4c0,1.3-1.1,2.4-2.4,2.4l0,0c-1.3,0-2.4-1.1-2.4-2.4
			C1156,666.5,1157,665.4,1158.4,665.4z"/>
		<path id="point-0-15_2_" class="st19" d="M1170.2,692.5c1.3,0,2.4,1.1,2.4,2.4c0,1.3-1.1,2.4-2.4,2.4c-1.3,0-2.4-1.1-2.4-2.4
			C1167.8,693.6,1168.9,692.5,1170.2,692.5z"/>
		<path id="point-0-16_2_" class="st19" d="M1119.6,719.5c1.3,0,2.4,1.1,2.4,2.4s-1.1,2.4-2.4,2.4s-2.4-1.1-2.4-2.4
			S1118.3,719.5,1119.6,719.5z"/>
		<path id="point-0-17_2_" class="st19" d="M1098.8,746.6c1.3,0,2.4,1.1,2.4,2.4c0,1.3-1.1,2.4-2.4,2.4l0,0c-1.3,0-2.4-1.1-2.4-2.4
			C1096.4,747.6,1097.4,746.6,1098.8,746.6z"/>
		<path id="point-0-18_2_" class="st19" d="M1191.3,773.6c1.3,0,2.4,1.1,2.4,2.4s-1.1,2.4-2.4,2.4c-1.3,0-2.4-1.1-2.4-2.4
			S1189.9,773.6,1191.3,773.6z"/>
		<path id="point-0-19_2_" class="st19" d="M1135.6,800.7c1.3,0,2.4,1.1,2.4,2.4c0,1.3-1.1,2.4-2.4,2.4s-2.4-1.1-2.4-2.4
			C1133.2,801.7,1134.3,800.7,1135.6,800.7z"/>
		<path id="point-0-20_2_" class="st19" d="M1089.8,827.7c1.3,0,2.4,1.1,2.4,2.4c0,1.3-1.1,2.4-2.4,2.4s-2.4-1.1-2.4-2.4
			C1087.4,828.8,1088.4,827.7,1089.8,827.7z"/>
		<path id="point-0-21_2_" class="st19" d="M1089.8,854.7c1.3,0,2.4,1.1,2.4,2.4c0,1.3-1.1,2.4-2.4,2.4c-1.3,0-2.4-1.1-2.4-2.4
			C1087.4,855.8,1088.4,854.7,1089.8,854.7z"/>
		<path id="point-0-22_2_" class="st19" d="M1104.7,881.8c1.3,0,2.4,1.1,2.4,2.4c0,1.3-1.1,2.4-2.4,2.4c-1.3,0-2.4-1.1-2.4-2.4
			C1102.3,882.9,1103.4,881.8,1104.7,881.8L1104.7,881.8z"/>
		<path id="point-0-23_2_" class="st19" d="M1128.5,908.8c1.3,0,2.4,1.1,2.4,2.4c0,1.3-1.1,2.4-2.4,2.4c-1.3,0-2.4-1.1-2.4-2.4
			C1126.1,909.9,1127.1,908.8,1128.5,908.8z"/>
		<path id="point-0-24_2_" class="st19" d="M1119.7,935.9c1.3,0,2.4,1.1,2.4,2.4c0,1.3-1.1,2.4-2.4,2.4s-2.4-1.1-2.4-2.4
			C1117.3,937,1118.3,935.9,1119.7,935.9z"/>
		<path id="point-0-25_2_" class="st19" d="M1155.3,962.9c1.3,0,2.4,1.1,2.4,2.4c0,1.3-1.1,2.4-2.4,2.4c-1.3,0-2.4-1.1-2.4-2.4
			C1152.9,964,1154,962.9,1155.3,962.9z"/>
		<path id="point-0-26_2_" class="st19" d="M1113.6,990c1.3,0,2.4,1.1,2.4,2.4c0,1.3-1.1,2.4-2.4,2.4s-2.4-1.1-2.4-2.4
			C1111.2,991,1112.3,990,1113.6,990z"/>
		<path id="point-0-27_2_" class="st19" d="M1098.8,1017c1.3,0,2.4,1.1,2.4,2.4s-1.1,2.4-2.4,2.4l0,0c-1.3,0-2.4-1.1-2.4-2.4
			S1097.4,1017,1098.8,1017z"/>
		<path id="point-0-28_2_" class="st19" d="M1086.7,1044.1c1.3,0,2.4,1.1,2.4,2.4c0,1.3-1.1,2.4-2.4,2.4s-2.4-1.1-2.4-2.4
			C1084.3,1045.1,1085.4,1044.1,1086.7,1044.1z"/>
		<path id="point-0-29_2_" class="st19" d="M1131.5,1071.1c1.3,0,2.4,1.1,2.4,2.4s-1.1,2.4-2.4,2.4s-2.4-1.1-2.4-2.4
			S1130.2,1071.1,1131.5,1071.1z"/>
		<path id="point-0-30_2_" class="st19" d="M1113.7,1098.1c1.3,0,2.4,1.1,2.4,2.4s-1.1,2.4-2.4,2.4s-2.4-1.1-2.4-2.4
			S1112.4,1098.1,1113.7,1098.1z"/>
		<path id="point-0-31_2_" class="st19" d="M1134.5,1125.2c1.3,0,2.4,1.1,2.4,2.4c0,1.3-1.1,2.4-2.4,2.4c-1.3,0-2.4-1.1-2.4-2.4
			C1132.1,1126.3,1133.2,1125.2,1134.5,1125.2z"/>
		<path id="point-0-32_2_" class="st19" d="M1113.7,1152.2c1.3,0,2.4,1.1,2.4,2.4c0,1.3-1.1,2.4-2.4,2.4s-2.4-1.1-2.4-2.4
			C1111.2,1153.3,1112.3,1152.2,1113.7,1152.2z"/>
		<path id="point-0-33_2_" class="st19" d="M1116.6,1179.3c1.3,0,2.4,1.1,2.4,2.4s-1.1,2.4-2.4,2.4c-1.3,0-2.4-1.1-2.4-2.4
			S1115.3,1179.3,1116.6,1179.3z"/>
		<path id="point-0-34_2_" class="st19" d="M1173.4,1206.3c1.3,0,2.4,1.1,2.4,2.4s-1.1,2.4-2.4,2.4c-1.3,0-2.4-1.1-2.4-2.4
			S1172,1206.3,1173.4,1206.3z"/>
		<path id="point-0-35_2_" class="st19" d="M1179.4,1233.4c1.3,0,2.4,1.1,2.4,2.4c0,1.3-1.1,2.4-2.4,2.4c-1.3,0-2.4-1.1-2.4-2.4
			C1177,1234.4,1178.1,1233.4,1179.4,1233.4z"/>
		<path id="point-0-36_2_" class="st19" d="M1158.8,1260.4c1.3,0,2.4,1.1,2.4,2.4c0,1.3-1.1,2.4-2.4,2.4l0,0c-1.3,0-2.4-1.1-2.4-2.4
			C1156.4,1261.5,1157.5,1260.4,1158.8,1260.4z"/>
		<path id="point-0-37_2_" class="st19" d="M1134.4,1287.5c1.3,0,2.4,1.1,2.4,2.4c0,1.3-1.1,2.4-2.4,2.4c-1.3,0-2.4-1.1-2.4-2.4
			C1132,1288.5,1133.1,1287.5,1134.4,1287.5z"/>
		<path id="point-0-38_2_" class="st19" d="M1089.8,1314.5c1.3,0,2.4,1.1,2.4,2.4s-1.1,2.4-2.4,2.4s-2.4-1.1-2.4-2.4
			S1088.5,1314.5,1089.8,1314.5z"/>
		<path id="point-0-39_2_" class="st19" d="M1086.7,1341.5c1.3,0,2.4,1.1,2.4,2.4c0,1.3-1.1,2.4-2.4,2.4c-1.3,0-2.4-1.1-2.4-2.4
			C1084.3,1342.6,1085.4,1341.5,1086.7,1341.5z"/>
		<path id="point-0-40_2_" class="st19" d="M1134.5,1368.6c1.3,0,2.4,1.1,2.4,2.4c0,1.3-1.1,2.4-2.4,2.4c-1.3,0-2.4-1.1-2.4-2.4
			C1132.1,1369.7,1133.2,1368.6,1134.5,1368.6z"/>
		<path id="point-0-41_2_" class="st19" d="M1116.6,1395.6c1.3,0,2.4,1.1,2.4,2.4c0,1.3-1.1,2.4-2.4,2.4c-1.3,0-2.4-1.1-2.4-2.4
			C1114.2,1396.7,1115.2,1395.6,1116.6,1395.6z"/>
		<path id="point-0-42_2_" class="st19" d="M1101.7,1422.7c1.3,0,2.4,1.1,2.4,2.4s-1.1,2.4-2.4,2.4s-2.4-1.1-2.4-2.4
			S1100.4,1422.7,1101.7,1422.7z"/>
		<path id="point-0-43_2_" class="st19" d="M1170.3,1449.7c1.3,0,2.4,1.1,2.4,2.4c0,1.3-1.1,2.4-2.4,2.4c-1.3,0-2.4-1.1-2.4-2.4
			C1167.9,1450.8,1169,1449.7,1170.3,1449.7z"/>
		<path id="point-0-44" class="st19" d="M1155.5,1476.8c1.3,0,2.4,1.1,2.4,2.4c0,1.3-1.1,2.4-2.4,2.4c-1.3,0-2.4-1.1-2.4-2.4
			C1153.1,1477.8,1154.2,1476.8,1155.5,1476.8z"/>
	</g>
</g>
<g>
	<g transform="translate(45, 10)">
	</g>
</g>
<g>
	<line class="st9" x1="3616.1" y1="519" x2="2788.1" y2="519"/>
	<line class="st9" x1="3616.1" y1="546.1" x2="2788.1" y2="546.1"/>
	<line class="st9" x1="3616.1" y1="492.1" x2="2788.1" y2="492.1"/>
	<line class="st9" x1="3616.1" y1="573.2" x2="2788.1" y2="573.2"/>
	<line class="st9" x1="3616.1" y1="600.2" x2="2788.1" y2="600.2"/>
	<line class="st10" x1="3616.1" y1="627.3" x2="2788.1" y2="627.3"/>
	<line class="st9" x1="3616.1" y1="654.3" x2="2788.1" y2="654.3"/>
	<line class="st9" x1="3616.1" y1="681.4" x2="2788.1" y2="681.4"/>
	<line class="st9" x1="3616.1" y1="708.5" x2="2788.1" y2="708.5"/>
	<line class="st9" x1="3616.1" y1="735.5" x2="2788.1" y2="735.5"/>
	<line class="st9" x1="3616.1" y1="762.6" x2="2788.1" y2="762.6"/>
	<line class="st9" x1="3616.1" y1="789.6" x2="2788.1" y2="789.6"/>
	<line class="st9" x1="3616.1" y1="816.7" x2="2788.1" y2="816.7"/>
	<line class="st9" x1="3616.1" y1="843.8" x2="2788.1" y2="843.8"/>
	<line class="st9" x1="3616.1" y1="870.8" x2="2788.1" y2="870.8"/>
	<line class="st9" x1="3616.1" y1="897.9" x2="2788.1" y2="897.9"/>
	<line class="st9" x1="3616.1" y1="924.9" x2="2788.1" y2="924.9"/>
	<line class="st10" x1="3453.6" y1="952" x2="2788.1" y2="952"/>
	<line class="st10" x1="3418" y1="979.1" x2="2788.1" y2="979.1"/>
	<line class="st9" x1="3616.1" y1="1006.1" x2="2788.1" y2="1006.1"/>
	<line class="st9" x1="3616.1" y1="1033.2" x2="2788.1" y2="1033.2"/>
	<line class="st9" x1="3616.1" y1="1060.2" x2="2788.1" y2="1060.2"/>
	<line class="st9" x1="3616.1" y1="1087.3" x2="2788.1" y2="1087.3"/>
	<line class="st9" x1="3616.1" y1="1114.4" x2="2788.1" y2="1114.4"/>
	<line class="st9" x1="3616.1" y1="1141.4" x2="2788.1" y2="1141.4"/>
	<line class="st10" x1="3527.3" y1="1168.5" x2="2788.1" y2="1168.5"/>
	<line class="st9" x1="3616.1" y1="1195.5" x2="2788.1" y2="1195.5"/>
	<line class="st9" x1="3616.1" y1="1222.6" x2="2788.1" y2="1222.6"/>
	<line class="st9" x1="3616.1" y1="1249.7" x2="2788.1" y2="1249.7"/>
	<line class="st9" x1="3616.1" y1="1276.7" x2="2788.1" y2="1276.7"/>
	<line class="st9" x1="3616.1" y1="1303.8" x2="2788.1" y2="1303.8"/>
	<line class="st9" x1="3616.1" y1="1330.8" x2="2788.1" y2="1330.8"/>
	<line class="st10" x1="3368.9" y1="1357.9" x2="2788.1" y2="1357.9"/>
	<line class="st9" x1="3616.1" y1="1384.9" x2="2788.1" y2="1384.9"/>
	<line class="st10" x1="3337.7" y1="1412" x2="2788.1" y2="1412"/>
	<line class="st10" x1="3435.8" y1="1439.1" x2="2788.1" y2="1439.1"/>
	<line class="st10" x1="3404.6" y1="1466.1" x2="2788.1" y2="1466.1"/>
	<line class="st9" x1="3616.1" y1="1493.2" x2="2788.1" y2="1493.2"/>
	<line class="st9" x1="3616.1" y1="1520.2" x2="2788.1" y2="1520.2"/>
	<line class="st9" x1="3616.1" y1="1547.3" x2="2788.1" y2="1547.3"/>
	<line class="st9" x1="3616.1" y1="1574.4" x2="2788.1" y2="1574.4"/>
	<line class="st9" x1="3616.1" y1="1601.4" x2="2788.1" y2="1601.4"/>
	<line class="st10" x1="3346.7" y1="1628.5" x2="2788.1" y2="1628.5"/>
	<line class="st10" x1="3328.8" y1="1655.5" x2="2788.1" y2="1655.5"/>
	<line class="st10" x1="3404.6" y1="1682.6" x2="2788.1" y2="1682.6"/>
</g>
<text transform="matrix(1 0 0 1 1274 295.5)" class="st20 st21">92</text>
</svg>
