<svg xmlns="http://www.w3.org/2000/svg" id="graphic" width="1536" height="650"><g id="facets"><g class="facet" transform="translate(45,10)" opacity="1"><text class="facet-title" y="0" font-size="16" font-weight="bold" dominant-baseline="middle" x="0" clip-path="url(#facet-clip-0)" fill="black"/><g class="plot"><clipPath class="facet-clip" id="facet-clip-0"><rect width="1496" height="525" transform="translate(-7.5,-10)"/></clipPath><g class="bg"><rect fill="none" width="1481" height="505" style="fill: none;"/></g><g class="interaction"><g class="series"><path data-target="point-0-0" d="M0,159.7199946728792L61.49539620428818,146.45926635640058L81.38910230337969,133.19977994221097L88.6561799381823,0L0,0Z" style="opacity: 0;"/><path data-target="point-0-1" d="M13.857460644360096,505L61.917058144864185,152.6422500004167L61.49539620428818,146.45926635640058L0,159.7199946728792L0,505Z" style="opacity: 0;"/><path data-target="point-0-2" d="M14.0956378703452,505L94.06264635674908,270.48288666652775L61.917058144864185,152.6422500004167L13.857460644360096,505Z" style="opacity: 0;"/><path data-target="point-0-3" d="M61.49539620428818,146.45926635640058L61.917058144864185,152.6422500004167L94.06264635674908,270.48288666652775L149.9980336050395,211.8970943193836L143.25554957912217,162.46334064032217L81.38910230337969,133.19977994221097Z" style="opacity: 0;"/><path data-target="point-0-4" d="M236.39411284036254,505L208.02116560249755,296.9785371645877L149.9980336050395,211.8970943193836L94.06264635674908,270.48288666652775L14.0956378703452,505Z" style="opacity: 0;"/><path data-target="point-0-5" d="M81.38910230337969,133.19977994221097L143.25554957912217,162.46334064032217L168.29088490505586,155.90794269590492L295.8806408349928,0L88.6561799381823,0Z" style="opacity: 0;"/><path data-target="point-0-6" d="M143.25554957912217,162.46334064032217L149.9980336050395,211.8970943193836L208.02116560249755,296.9785371645877L250.12258334003468,194.08711998837651L249.9496679233036,193.32646334102571L168.29088490505586,155.90794269590492Z" style="opacity: 0;"/><path data-target="point-0-7" d="M168.29088490505586,155.90794269590492L249.9496679233036,193.32646334102571L322.50574233840223,96.60679952555725L327.7763900264586,0L295.8806408349928,0Z" style="opacity: 0;"/><path data-target="point-0-8" d="M208.02116560249755,296.9785371645877L236.39411284036254,505L250.80283692220695,505L306.6981198345967,231.79565724073856L250.12258334003468,194.08711998837651Z" style="opacity: 0;"/><path data-target="point-0-9" d="M249.9496679233036,193.32646334102571L250.12258334003468,194.08711998837651L306.6981198345967,231.79565724073856L332.0904704886552,218.49789501308533L348.2068839211866,159.4176751351488L322.50574233840223,96.60679952555725Z" style="opacity: 0;"/><path data-target="point-0-10" d="M524.7528440930532,505L479.5698052636244,326.62507073543077L332.0904704886552,218.49789501308533L306.6981198345967,231.79565724073856L250.80283692220695,505Z" style="opacity: 0;"/><path data-target="point-0-11" d="M332.0904704886552,218.49789501308533L479.5698052636244,326.62507073543077L476.58150784164525,282.80657014506414L410.2812327905095,194.4260952432341L348.2068839211866,159.4176751351488Z" style="opacity: 0;"/><path data-target="point-0-12" d="M322.50574233840223,96.60679952555725L348.2068839211866,159.4176751351488L410.2812327905095,194.4260952432341L430.9142832810937,118.78859904475038L349.9038275425836,0L327.7763900264586,0Z" style="opacity: 0;"/><path data-target="point-0-13" d="M410.2812327905095,194.4260952432341L476.58150784164525,282.80657014506414L491.26611993938803,228.97510912409797L487.83772163975783,153.56731710415227L430.9142832810937,118.78859904475038Z" style="opacity: 0;"/><path data-target="point-0-14" d="M349.9038275425836,0L430.9142832810937,118.78859904475038L487.83772163975783,153.56731710415227L509.1907228249497,125.10305532136093L423.8739888403133,0Z" style="opacity: 0;"/><path data-target="point-0-15" d="M423.8739888403133,0L509.1907228249497,125.10305532136093L554.4924088594037,104.34445457463909L559.2364060591577,0Z" style="opacity: 0;"/><path data-target="point-0-16" d="M487.83772163975783,153.56731710415227L491.26611993938803,228.97510912409797L592.2896838278884,146.67813804623725L589.2506312696863,138.32262423523716L554.4924088594037,104.34445457463909L509.1907228249497,125.10305532136093Z" style="opacity: 0;"/><path data-target="point-0-17" d="M476.58150784164525,282.80657014506414L479.5698052636244,326.62507073543077L524.7528440930532,505L665.5860968379603,505L619.9694741494546,170.55336771321825L592.2896838278884,146.67813804623725L491.26611993938803,228.97510912409797Z" style="opacity: 0;"/><path data-target="point-0-18" d="M554.4924088594037,104.34445457463909L589.2506312696863,138.32262423523716L703.4858269266742,18.674584224568903L706.5423557005914,0L559.2364060591577,0Z" style="opacity: 0;"/><path data-target="point-0-19" d="M589.2506312696863,138.32262423523716L592.2896838278884,146.67813804623725L619.9694741494546,170.55336771321825L690.0113635,133.87301508430937L692.275912400843,131.5011643818645L706.0424412000108,93.65172925457003L703.4858269266742,18.674584224568903Z" style="opacity: 0;"/><path data-target="point-0-20" d="M619.9694741494546,170.55336771321825L665.5860968379603,505L690.0113635,505L690.0113635,133.87301508430937Z" style="opacity: 0;"/><path data-target="point-0-21" d="M690.0113635,133.87301508430937L690.0113635,505L863.8283269702534,505L845.2085992682695,345.73373465080385L837.7459458890921,309.25786126539833L692.275912400843,131.5011643818645Z" style="opacity: 0;"/><path data-target="point-0-22" d="M692.275912400843,131.5011643818645L837.7459458890921,309.25786126539833L834.1867792623289,265.766723535598L781.2825328684143,154.94467511349313L706.0424412000108,93.65172925457003Z" style="opacity: 0;"/><path data-target="point-0-23" d="M703.4858269266742,18.674584224568903L706.0424412000108,93.65172925457003L781.2825328684143,154.94467511349313L804.8279772607556,68.63080400025001L800.147551164846,0L706.5423557005914,0Z" style="opacity: 0;"/><path data-target="point-0-24" d="M781.2825328684143,154.94467511349313L834.1867792623289,265.766723535598L841.477273,225.67803214763333L841.477273,158.19781424979166L804.8279772607556,68.63080400025001Z" style="opacity: 0;"/><path data-target="point-0-25" d="M800.147551164846,0L804.8279772607556,68.63080400025001L841.477273,158.19781424979166L894.7836918029526,27.92255348460742L889.0709750046476,0Z" style="opacity: 0;"/><path data-target="point-0-26" d="M841.477273,158.19781424979166L841.477273,225.67803214763333L918.1770428862245,85.09343366752347L894.7836918029526,27.92255348460742Z" style="opacity: 0;"/><path data-target="point-0-27" d="M834.1867792623289,265.766723535598L837.7459458890921,309.25786126539833L845.2085992682695,345.73373465080385L941.2220288969892,111.087054361436L918.1770428862245,85.09343366752347L841.477273,225.67803214763333Z" style="opacity: 0;"/><path data-target="point-0-28" d="M845.2085992682695,345.73373465080385L863.8283269702534,505L909.0369908395969,505L1009.9993170495014,176.01165046701573L971.8092771750502,125.10305532136093L941.2220288969892,111.087054361436Z" style="opacity: 0;"/><path data-target="point-0-29" d="M889.0709750046476,0L894.7836918029526,27.92255348460742L918.1770428862245,85.09343366752347L941.2220288969892,111.087054361436L971.8092771750502,125.10305532136093L1008.7941433605774,70.87078992200395L999.1277687479823,0Z" style="opacity: 0;"/><path data-target="point-0-30" d="M971.8092771750502,125.10305532136093L1009.9993170495014,176.01165046701573L1067.121519797773,134.13146119416507L1066.6341312561672,131.4514273586647L1008.7941433605774,70.87078992200395Z" style="opacity: 0;"/><path data-target="point-0-31" d="M999.1277687479823,0L1008.7941433605774,70.87078992200395L1066.6341312561672,131.4514273586647L1093.0069113088941,2.5468554078176844L1091.9647814166442,0Z" style="opacity: 0;"/><path data-target="point-0-32" d="M1245.3863635,505L1245.3863635,309.65511071529977L1234.1260690337083,283.58450712361997L1087.6603445308874,140.40580103783105L1067.121519797773,134.13146119416507L1009.9993170495014,176.01165046701573L909.0369908395969,505Z" style="opacity: 0;"/><path data-target="point-0-33" d="M1066.6341312561672,131.4514273586647L1067.121519797773,134.13146119416507L1087.6603445308874,140.40580103783105L1161.0549482369859,80.61624773530436L1159.902398911286,67.9410577122438L1093.0069113088941,2.5468554078176844Z" style="opacity: 0;"/><path data-target="point-0-34" d="M1087.6603445308874,140.40580103783105L1234.1260690337083,283.58450712361997L1216.5284382078835,154.56425751819654L1161.0549482369859,80.61624773530436Z" style="opacity: 0;"/><path data-target="point-0-35" d="M1091.9647814166442,0L1093.0069113088941,2.5468554078176844L1159.902398911286,67.9410577122438L1208.2288618777131,40.68611069571433L1224.8769263084166,1.4210854715202004e-14Z" style="opacity: 0;"/><path data-target="point-0-36" d="M1159.902398911286,67.9410577122438L1161.0549482369859,80.61624773530436L1216.5284382078835,154.56425751819654L1250.0040234799333,84.44071734346167L1208.2288618777131,40.68611069571433Z" style="opacity: 0;"/><path data-target="point-0-37" d="M1208.2288618777131,40.68611069571433L1250.0040234799333,84.44071734346167L1295.875,60.418469571902314L1298.4284756065201,57.74400186091191L1290.5525213668589,0L1224.8769263084166,1.4210854715202004e-14Z" style="opacity: 0;"/><path data-target="point-0-38" d="M1216.5284382078835,154.56425751819654L1234.1260690337083,283.58450712361997L1245.3863635,309.65511071529977L1295.875,231.7252826076499L1295.875,60.418469571902314L1250.0040234799333,84.44071734346167Z" style="opacity: 0;"/><path data-target="point-0-39" d="M1295.875,60.418469571902314L1295.875,231.7252826076499L1380.8896183276122,133.30945429374526L1380.5877422229578,124.45641427288538L1341.02753755897,76.11593295086554L1298.4284756065201,57.74400186091191Z" style="opacity: 0;"/><path data-target="point-0-40" d="M1290.5525213668589,0L1298.4284756065201,57.74400186091191L1341.02753755897,76.11593295086554L1392.936444075121,0Z" style="opacity: 0;"/><path data-target="point-0-41" d="M1341.02753755897,76.11593295086554L1380.5877422229578,124.45641427288538L1431.1120308926404,57.10585466721764L1425.919421222058,0L1392.936444075121,0Z" style="opacity: 0;"/><path data-target="point-0-42" d="M1245.3863635,309.65511071529977L1245.3863635,505L1481,505L1481,170.00833433425439L1380.8896183276122,133.30945429374526L1295.875,231.7252826076499Z" style="opacity: 0;"/><path data-target="point-0-43" d="M1380.5877422229578,124.45641427288538L1380.8896183276122,133.30945429374526L1481,170.00833433425439L1481,85.24145355245611L1431.1120308926404,57.10585466721764Z" style="opacity: 0;"/><path data-target="point-0-44" d="M1425.919421222058,0L1431.1120308926404,57.10585466721764L1481,85.24145355245611L1481,0Z" style="opacity: 0;"/></g></g><g class="axes"><g class="y axis" fill="none" font-size="10" font-family="sans-serif" text-anchor="end"><path class="domain" stroke="#eeeeee" d="M0.5,505.5V0.5" stroke-dasharray="0" style="visibility: hidden;"/><g class="tick" opacity="1" transform="translate(0, 505.5)" style="visibility: visible;"><line stroke="#eeeeee" x2="1481" stroke-dasharray="0"/><text fill="rgb(170, 170, 170)" x="-3" dy="0.33em" opacity="1" text-anchor="end" font-size="10">0</text></g><g class="tick" opacity="1" transform="translate(0, 459.5909118652344)" style="visibility: visible;"><line stroke="#eeeeee" x2="1481" stroke-dasharray="0"/><text fill="rgb(170, 170, 170)" x="-3" dy="0.33em" opacity="1" text-anchor="end" font-size="10">10</text></g><g class="tick" opacity="1" transform="translate(0, 413.68182373046875)" style="visibility: visible;"><line stroke="#eeeeee" x2="1481" stroke-dasharray="0"/><text fill="rgb(170, 170, 170)" x="-3" dy="0.33em" opacity="1" text-anchor="end" font-size="10">20</text></g><g class="tick" opacity="1" transform="translate(0, 367.7727355957031)" style="visibility: visible;"><line stroke="#eeeeee" x2="1481" stroke-dasharray="0"/><text fill="rgb(170, 170, 170)" x="-3" dy="0.33em" opacity="1" text-anchor="end" font-size="10">30</text></g><g class="tick" opacity="1" transform="translate(0, 321.8636474609375)" style="visibility: visible;"><line stroke="#eeeeee" x2="1481" stroke-dasharray="0"/><text fill="rgb(170, 170, 170)" x="-3" dy="0.33em" opacity="1" text-anchor="end" font-size="10">40</text></g><g class="tick" opacity="1" transform="translate(0, 275.9545593261719)" style="visibility: visible;"><line stroke="#eeeeee" x2="1481" stroke-dasharray="0"/><text fill="rgb(170, 170, 170)" x="-3" dy="0.33em" opacity="1" text-anchor="end" font-size="10">50</text></g><g class="tick" opacity="1" transform="translate(0, 230.0454559326172)" style="visibility: visible;"><line stroke="#eeeeee" x2="1481" stroke-dasharray="0"/><text fill="rgb(170, 170, 170)" x="-3" dy="0.33em" opacity="1" text-anchor="end" font-size="10">60</text></g><g class="tick" opacity="1" transform="translate(0, 184.13636779785156)" style="visibility: visible;"><line stroke="#eeeeee" x2="1481" stroke-dasharray="0"/><text fill="rgb(170, 170, 170)" x="-3" dy="0.33em" opacity="1" text-anchor="end" font-size="10">70</text></g><g class="tick" opacity="1" transform="translate(0, 138.22727966308594)" style="visibility: visible;"><line stroke="#eeeeee" x2="1481" stroke-dasharray="0"/><text fill="rgb(170, 170, 170)" x="-3" dy="0.33em" opacity="1" text-anchor="end" font-size="10">80</text></g><g class="tick" opacity="1" transform="translate(0, 92.31818389892578)" style="visibility: visible;"><line stroke="#eeeeee" x2="1481" stroke-dasharray="0"/><text fill="rgb(170, 170, 170)" x="-3" dy="0.33em" opacity="1" text-anchor="end" font-size="10">90</text></g><g class="tick" opacity="1" transform="translate(0, 46.40909194946289)" style="visibility: visible;"><line stroke="#eeeeee" x2="1481" stroke-dasharray="0"/><text fill="rgb(170, 170, 170)" x="-3" dy="0.33em" opacity="1" text-anchor="end" font-size="10">100</text></g><g class="tick" opacity="1" transform="translate(0, 0.5)" style="visibility: visible;"><line stroke="#eeeeee" x2="1481" stroke-dasharray="0"/><text fill="rgb(170, 170, 170)" x="-3" dy="0.33em" opacity="1" text-anchor="end" font-size="10">110</text></g></g><g class="x axis" transform="translate(0, 505)" fill="none" font-size="10" font-family="sans-serif" text-anchor="middle"><path class="domain" stroke="#eeeeee" d="M0.5,0.5H1481.5" stroke-dasharray="0"/><g class="tick" opacity="1" transform="translate(0.5,0)"><line stroke="#eeeeee" y2="6" stroke-dasharray="0"/><text fill="rgb(170, 170, 170)" y="9" dy="-9" opacity="1" dominant-baseline="central" font-size="10" transform="translate(0, 15) rotate(-45)" dx="5" style="text-anchor: end; visibility: visible;">Balkrishna Doshi</text></g><g class="tick" opacity="1" transform="translate(34.15909194946289, 0)"><line stroke="#eeeeee" y2="6" stroke-dasharray="0"/><text fill="rgb(170, 170, 170)" y="9" dy="-9" opacity="1" dominant-baseline="central" font-size="10" transform="translate(0, 15) rotate(-45)" dx="5" style="text-anchor: end; visibility: visible;">Rafael Aranda</text></g><g class="tick" opacity="1" transform="translate(67.81818389892578, 0)"><line stroke="#eeeeee" y2="6" stroke-dasharray="0"/><text fill="rgb(170, 170, 170)" y="9" dy="-9" opacity="1" dominant-baseline="central" font-size="10" transform="translate(0, 15) rotate(-45)" dx="5" style="text-anchor: end; visibility: visible;">Carme Pigem</text></g><g class="tick" opacity="1" transform="translate(101.4772720336914, 0)"><line stroke="#eeeeee" y2="6" stroke-dasharray="0"/><text fill="rgb(170, 170, 170)" y="9" dy="-9" opacity="1" dominant-baseline="central" font-size="10" transform="translate(0, 15) rotate(-45)" dx="5" style="text-anchor: end; visibility: visible;">Ramon Vilalta</text></g><g class="tick" opacity="1" transform="translate(135.13636779785156, 0)"><line stroke="#eeeeee" y2="6" stroke-dasharray="0"/><text fill="rgb(170, 170, 170)" y="9" dy="-9" opacity="1" dominant-baseline="central" font-size="10" transform="translate(0, 15) rotate(-45)" dx="5" style="text-anchor: end; visibility: visible;">Alejandro Aravena</text></g><g class="tick" opacity="1" transform="translate(168.7954559326172, 0)"><line stroke="#eeeeee" y2="6" stroke-dasharray="0"/><text fill="rgb(170, 170, 170)" y="9" dy="-9" opacity="1" dominant-baseline="central" font-size="10" transform="translate(0, 15) rotate(-45)" dx="5" style="text-anchor: end; visibility: visible;">Frei Otto</text></g><g class="tick" opacity="1" transform="translate(202.4545440673828, 0)"><line stroke="#eeeeee" y2="6" stroke-dasharray="0"/><text fill="rgb(170, 170, 170)" y="9" dy="-9" opacity="1" dominant-baseline="central" font-size="10" transform="translate(0, 15) rotate(-45)" dx="5" style="text-anchor: end; visibility: visible;">Shigeru Ban</text></g><g class="tick" opacity="1" transform="translate(236.11363220214844, 0)"><line stroke="#eeeeee" y2="6" stroke-dasharray="0"/><text fill="rgb(170, 170, 170)" y="9" dy="-9" opacity="1" dominant-baseline="central" font-size="10" transform="translate(0, 15) rotate(-45)" dx="5" style="text-anchor: end; visibility: visible;">Toyo Ito</text></g><g class="tick" opacity="1" transform="translate(269.7727355957031, 0)"><line stroke="#eeeeee" y2="6" stroke-dasharray="0"/><text fill="rgb(170, 170, 170)" y="9" dy="-9" opacity="1" dominant-baseline="central" font-size="10" transform="translate(0, 15) rotate(-45)" dx="5" style="text-anchor: end; visibility: visible;">Wang Shu</text></g><g class="tick" opacity="1" transform="translate(303.43182373046875, 0)"><line stroke="#eeeeee" y2="6" stroke-dasharray="0"/><text fill="rgb(170, 170, 170)" y="9" dy="-9" opacity="1" dominant-baseline="central" font-size="10" transform="translate(0, 15) rotate(-45)" dx="5" style="text-anchor: end; visibility: visible;">Eduardo Souto de Moura</text></g><g class="tick" opacity="1" transform="translate(337.0909118652344, 0)"><line stroke="#eeeeee" y2="6" stroke-dasharray="0"/><text fill="rgb(170, 170, 170)" y="9" dy="-9" opacity="1" dominant-baseline="central" font-size="10" transform="translate(0, 15) rotate(-45)" dx="5" style="text-anchor: end; visibility: visible;">Ryue Nishizawa</text></g><g class="tick" opacity="1" transform="translate(370.75, 0)"><line stroke="#eeeeee" y2="6" stroke-dasharray="0"/><text fill="rgb(170, 170, 170)" y="9" dy="-9" opacity="1" dominant-baseline="central" font-size="10" transform="translate(0, 15) rotate(-45)" dx="5" style="text-anchor: end; visibility: visible;">Kazuyo Sejima</text></g><g class="tick" opacity="1" transform="translate(404.4090881347656, 0)"><line stroke="#eeeeee" y2="6" stroke-dasharray="0"/><text fill="rgb(170, 170, 170)" y="9" dy="-9" opacity="1" dominant-baseline="central" font-size="10" transform="translate(0, 15) rotate(-45)" dx="5" style="text-anchor: end; visibility: visible;">Peter Zumthor</text></g><g class="tick" opacity="1" transform="translate(438.06817626953125, 0)"><line stroke="#eeeeee" y2="6" stroke-dasharray="0"/><text fill="rgb(170, 170, 170)" y="9" dy="-9" opacity="1" dominant-baseline="central" font-size="10" transform="translate(0, 15) rotate(-45)" dx="5" style="text-anchor: end; visibility: visible;">Jean Nouvel</text></g><g class="tick" opacity="1" transform="translate(471.7272644042969, 0)"><line stroke="#eeeeee" y2="6" stroke-dasharray="0"/><text fill="rgb(170, 170, 170)" y="9" dy="-9" opacity="1" dominant-baseline="central" font-size="10" transform="translate(0, 15) rotate(-45)" dx="5" style="text-anchor: end; visibility: visible;">Richard Rogers</text></g><g class="tick" opacity="1" transform="translate(505.3863525390625, 0)"><line stroke="#eeeeee" y2="6" stroke-dasharray="0"/><text fill="rgb(170, 170, 170)" y="9" dy="-9" opacity="1" dominant-baseline="central" font-size="10" transform="translate(0, 15) rotate(-45)" dx="5" style="text-anchor: end; visibility: visible;">Mendes da Rocha</text></g><g class="tick" opacity="1" transform="translate(539.0454711914062, 0)"><line stroke="#eeeeee" y2="6" stroke-dasharray="0"/><text fill="rgb(170, 170, 170)" y="9" dy="-9" opacity="1" dominant-baseline="central" font-size="10" transform="translate(0, 15) rotate(-45)" dx="5" style="text-anchor: end; visibility: visible;">Thom Mayne</text></g><g class="tick" opacity="1" transform="translate(572.7045288085938, 0)"><line stroke="#eeeeee" y2="6" stroke-dasharray="0"/><text fill="rgb(170, 170, 170)" y="9" dy="-9" opacity="1" dominant-baseline="central" font-size="10" transform="translate(0, 15) rotate(-45)" dx="5" style="text-anchor: end; visibility: visible;">Zaha Hadid</text></g><g class="tick" opacity="1" transform="translate(606.3636474609375, 0)"><line stroke="#eeeeee" y2="6" stroke-dasharray="0"/><text fill="rgb(170, 170, 170)" y="9" dy="-9" opacity="1" dominant-baseline="central" font-size="10" transform="translate(0, 15) rotate(-45)" dx="5" style="text-anchor: end; visibility: visible;">Jørn Utzon</text></g><g class="tick" opacity="1" transform="translate(640.022705078125, 0)"><line stroke="#eeeeee" y2="6" stroke-dasharray="0"/><text fill="rgb(170, 170, 170)" y="9" dy="-9" opacity="1" dominant-baseline="central" font-size="10" transform="translate(0, 15) rotate(-45)" dx="5" style="text-anchor: end; visibility: visible;">Glenn Murcutt</text></g><g class="tick" opacity="1" transform="translate(673.6818237304688, 0)"><line stroke="#eeeeee" y2="6" stroke-dasharray="0"/><text fill="rgb(170, 170, 170)" y="9" dy="-9" opacity="1" dominant-baseline="central" font-size="10" transform="translate(0, 15) rotate(-45)" dx="5" style="text-anchor: end; visibility: visible;">Pierre de Meuron</text></g><g class="tick" opacity="1" transform="translate(707.3408813476562, 0)"><line stroke="#eeeeee" y2="6" stroke-dasharray="0"/><text fill="rgb(170, 170, 170)" y="9" dy="-9" opacity="1" dominant-baseline="central" font-size="10" transform="translate(0, 15) rotate(-45)" dx="5" style="text-anchor: end; visibility: visible;">Jacques Herzog</text></g><g class="tick" opacity="1" transform="translate(741, 0)"><line stroke="#eeeeee" y2="6" stroke-dasharray="0"/><text fill="rgb(170, 170, 170)" y="9" dy="-9" opacity="1" dominant-baseline="central" font-size="10" transform="translate(0, 15) rotate(-45)" dx="5" style="text-anchor: end; visibility: visible;">Rem Koolhaas</text></g><g class="tick" opacity="1" transform="translate(774.6591186523438, 0)"><line stroke="#eeeeee" y2="6" stroke-dasharray="0"/><text fill="rgb(170, 170, 170)" y="9" dy="-9" opacity="1" dominant-baseline="central" font-size="10" transform="translate(0, 15) rotate(-45)" dx="5" style="text-anchor: end; visibility: visible;">Norman Foster</text></g><g class="tick" opacity="1" transform="translate(808.3181762695312, 0)"><line stroke="#eeeeee" y2="6" stroke-dasharray="0"/><text fill="rgb(170, 170, 170)" y="9" dy="-9" opacity="1" dominant-baseline="central" font-size="10" transform="translate(0, 15) rotate(-45)" dx="5" style="text-anchor: end; visibility: visible;">Renzo Piano</text></g><g class="tick" opacity="1" transform="translate(841.977294921875, 0)"><line stroke="#eeeeee" y2="6" stroke-dasharray="0"/><text fill="rgb(170, 170, 170)" y="9" dy="-9" opacity="1" dominant-baseline="central" font-size="10" transform="translate(0, 15) rotate(-45)" dx="5" style="text-anchor: end; visibility: visible;">Sverre Fehn</text></g><g class="tick" opacity="1" transform="translate(875.6363525390625, 0)"><line stroke="#eeeeee" y2="6" stroke-dasharray="0"/><text fill="rgb(170, 170, 170)" y="9" dy="-9" opacity="1" dominant-baseline="central" font-size="10" transform="translate(0, 15) rotate(-45)" dx="5" style="text-anchor: end; visibility: visible;">José Rafael Moneo</text></g><g class="tick" opacity="1" transform="translate(909.2954711914062, 0)"><line stroke="#eeeeee" y2="6" stroke-dasharray="0"/><text fill="rgb(170, 170, 170)" y="9" dy="-9" opacity="1" dominant-baseline="central" font-size="10" transform="translate(0, 15) rotate(-45)" dx="5" style="text-anchor: end; visibility: visible;">Tadao Ando</text></g><g class="tick" opacity="1" transform="translate(942.9545288085938, 0)"><line stroke="#eeeeee" y2="6" stroke-dasharray="0"/><text fill="rgb(170, 170, 170)" y="9" dy="-9" opacity="1" dominant-baseline="central" font-size="10" transform="translate(0, 15) rotate(-45)" dx="5" style="text-anchor: end; visibility: visible;">Christian de Portzamparc</text></g><g class="tick" opacity="1" transform="translate(976.6136474609375, 0)"><line stroke="#eeeeee" y2="6" stroke-dasharray="0"/><text fill="rgb(170, 170, 170)" y="9" dy="-9" opacity="1" dominant-baseline="central" font-size="10" transform="translate(0, 15) rotate(-45)" dx="5" style="text-anchor: end; visibility: visible;">Fumihiko Maki</text></g><g class="tick" opacity="1" transform="translate(1010.272705078125, 0)"><line stroke="#eeeeee" y2="6" stroke-dasharray="0"/><text fill="rgb(170, 170, 170)" y="9" dy="-9" opacity="1" dominant-baseline="central" font-size="10" transform="translate(0, 15) rotate(-45)" dx="5" style="text-anchor: end; visibility: visible;">Alvaro Joaquim de Meio Siza Vieira</text></g><g class="tick" opacity="1" transform="translate(1043.9317626953125, 0)"><line stroke="#eeeeee" y2="6" stroke-dasharray="0"/><text fill="rgb(170, 170, 170)" y="9" dy="-9" opacity="1" dominant-baseline="central" font-size="10" transform="translate(0, 15) rotate(-45)" dx="5" style="text-anchor: end; visibility: visible;">Robert Venturi</text></g><g class="tick" opacity="1" transform="translate(1077.5909423828125, 0)"><line stroke="#eeeeee" y2="6" stroke-dasharray="0"/><text fill="rgb(170, 170, 170)" y="9" dy="-9" opacity="1" dominant-baseline="central" font-size="10" transform="translate(0, 15) rotate(-45)" dx="5" style="text-anchor: end; visibility: visible;">Aldo Rossi</text></g><g class="tick" opacity="1" transform="translate(1111.25, 0)"><line stroke="#eeeeee" y2="6" stroke-dasharray="0"/><text fill="rgb(170, 170, 170)" y="9" dy="-9" opacity="1" dominant-baseline="central" font-size="10" transform="translate(0, 15) rotate(-45)" dx="5" style="text-anchor: end; visibility: visible;">Frank Gehry</text></g><g class="tick" opacity="1" transform="translate(1144.9090576171875, 0)"><line stroke="#eeeeee" y2="6" stroke-dasharray="0"/><text fill="rgb(170, 170, 170)" y="9" dy="-9" opacity="1" dominant-baseline="central" font-size="10" transform="translate(0, 15) rotate(-45)" dx="5" style="text-anchor: end; visibility: visible;">Gordon Bunshaft</text></g><g class="tick" opacity="1" transform="translate(1178.5682373046875, 0)"><line stroke="#eeeeee" y2="6" stroke-dasharray="0"/><text fill="rgb(170, 170, 170)" y="9" dy="-9" opacity="1" dominant-baseline="central" font-size="10" transform="translate(0, 15) rotate(-45)" dx="5" style="text-anchor: end; visibility: visible;">Oscar Niemeyer</text></g><g class="tick" opacity="1" transform="translate(1212.227294921875, 0)"><line stroke="#eeeeee" y2="6" stroke-dasharray="0"/><text fill="rgb(170, 170, 170)" y="9" dy="-9" opacity="1" dominant-baseline="central" font-size="10" transform="translate(0, 15) rotate(-45)" dx="5" style="text-anchor: end; visibility: visible;">Kenzo Tange</text></g><g class="tick" opacity="1" transform="translate(1245.8863525390625, 0)"><line stroke="#eeeeee" y2="6" stroke-dasharray="0"/><text fill="rgb(170, 170, 170)" y="9" dy="-9" opacity="1" dominant-baseline="central" font-size="10" transform="translate(0, 15) rotate(-45)" dx="5" style="text-anchor: end; visibility: visible;">Gottfried Böhm</text></g><g class="tick" opacity="1" transform="translate(1279.54541015625, 0)"><line stroke="#eeeeee" y2="6" stroke-dasharray="0"/><text fill="rgb(170, 170, 170)" y="9" dy="-9" opacity="1" dominant-baseline="central" font-size="10" transform="translate(0, 15) rotate(-45)" dx="5" style="text-anchor: end; visibility: visible;">Hans Hollein</text></g><g class="tick" opacity="1" transform="translate(1313.20458984375, 0)"><line stroke="#eeeeee" y2="6" stroke-dasharray="0"/><text fill="rgb(170, 170, 170)" y="9" dy="-9" opacity="1" dominant-baseline="central" font-size="10" transform="translate(0, 15) rotate(-45)" dx="5" style="text-anchor: end; visibility: visible;">Richard Meier</text></g><g class="tick" opacity="1" transform="translate(1346.8636474609375, 0)"><line stroke="#eeeeee" y2="6" stroke-dasharray="0"/><text fill="rgb(170, 170, 170)" y="9" dy="-9" opacity="1" dominant-baseline="central" font-size="10" transform="translate(0, 15) rotate(-45)" dx="5" style="text-anchor: end; visibility: visible;">Ieoh Ming Pei</text></g><g class="tick" opacity="1" transform="translate(1380.522705078125, 0)"><line stroke="#eeeeee" y2="6" stroke-dasharray="0"/><text fill="rgb(170, 170, 170)" y="9" dy="-9" opacity="1" dominant-baseline="central" font-size="10" transform="translate(0, 15) rotate(-45)" dx="5" style="text-anchor: end; visibility: visible;">Kevin Roche</text></g><g class="tick" opacity="1" transform="translate(1414.1817626953125, 0)"><line stroke="#eeeeee" y2="6" stroke-dasharray="0"/><text fill="rgb(170, 170, 170)" y="9" dy="-9" opacity="1" dominant-baseline="central" font-size="10" transform="translate(0, 15) rotate(-45)" dx="5" style="text-anchor: end; visibility: visible;">James Stirling</text></g><g class="tick" opacity="1" transform="translate(1447.8409423828125, 0)"><line stroke="#eeeeee" y2="6" stroke-dasharray="0"/><text fill="rgb(170, 170, 170)" y="9" dy="-9" opacity="1" dominant-baseline="central" font-size="10" transform="translate(0, 15) rotate(-45)" dx="5" style="text-anchor: end; visibility: visible;">Luis Barragán</text></g><g class="tick" opacity="1" transform="translate(1481.5, 0)"><line stroke="#eeeeee" y2="6" stroke-dasharray="0"/><text fill="rgb(170, 170, 170)" y="9" dy="-9" opacity="1" dominant-baseline="central" font-size="10" transform="translate(0, 15) rotate(-45)" dx="5" style="text-anchor: end; visibility: visible;">Philip Johnson</text></g></g></g></g></g></g><g class="annotations below"><g class="axis-highlights" transform="translate(45, 10)" style="opacity: 1;"/></g><g id="areas"><g class="series" pointer-events="none"><path class="area" transform="translate(45,10)" fill-opacity="0" fill="#1D6996" clip-path="url(#clip-0-0)" d="M0,78.04545454545456C11.219696969696969,154.56060606060606,22.439393939393938,231.07575757575754,33.65909090909091,234.13636363636363C44.878787878787875,237.19696969696972,56.098484848484844,238.72727272727275,67.31818181818181,238.72727272727275C78.53787878787878,238.72727272727275,89.75757575757575,229.54545454545456,100.97727272727272,229.54545454545456C112.19696969696969,229.54545454545456,123.41666666666666,261.6818181818182,134.63636363636363,261.6818181818182C145.8560606060606,261.6818181818182,157.07575757575756,87.22727272727275,168.29545454545453,87.22727272727275C179.5151515151515,87.22727272727275,190.73484848484847,215.77272727272725,201.95454545454544,215.77272727272725C213.1742424242424,215.77272727272725,224.39393939393938,142.3181818181818,235.61363636363635,142.3181818181818C246.83333333333331,142.3181818181818,258.05303030303025,243.3181818181818,269.27272727272725,243.3181818181818C280.4924242424242,243.3181818181818,291.7121212121212,192.8181818181818,302.93181818181813,192.8181818181818C314.1515151515151,192.8181818181818,325.37121212121207,257.0909090909091,336.59090909090907,257.0909090909091C347.81060606060606,257.0909090909091,359.030303030303,228.78030303030306,370.25,211.1818181818182C381.46969696969694,193.58333333333334,392.68939393939394,151.5,403.9090909090909,151.5C415.1287878787878,151.5,426.3484848484848,160.6818181818182,437.56818181818176,160.6818181818182C448.78787878787875,160.6818181818182,460.0075757575757,118.59848484848487,471.2272727272727,105.59090909090912C482.4469696969697,92.58333333333337,493.66666666666663,82.63636363636368,504.8863636363636,82.63636363636368C516.1060606060606,82.63636363636368,527.3257575757575,136.9621212121212,538.5454545454545,156.09090909090907C549.7651515151515,175.21969696969694,560.9848484848484,197.40909090909088,572.2045454545454,197.40909090909088C583.4242424242424,197.40909090909088,594.6439393939393,87.22727272727275,605.8636363636363,87.22727272727275C617.0833333333333,87.22727272727275,628.3030303030303,103.29545454545452,639.5227272727273,119.36363636363637C650.7424242424242,135.4318181818182,661.9621212121211,183.63636363636363,673.1818181818181,183.63636363636363C684.4015151515151,183.63636363636363,695.621212121212,183.63636363636363,706.840909090909,183.63636363636363C718.060606060606,183.63636363636363,729.280303030303,167.5681818181818,740.5,156.09090909090907C751.719696969697,144.61363636363635,762.9393939393939,114.77272727272731,774.1590909090909,114.77272727272731C785.3787878787879,114.77272727272731,796.5984848484848,123.9545454545455,807.8181818181818,123.9545454545455C819.0378787878788,123.9545454545455,830.2575757575756,110.18181818181819,841.4772727272726,110.18181818181819C852.6969696969696,110.18181818181819,863.9166666666665,118.5984848484849,875.1363636363635,123.9545454545455C886.3560606060605,129.31060606060612,897.5757575757575,136.96212121212122,908.7954545454545,142.3181818181818C920.0151515151515,147.6742424242424,931.2348484848484,156.09090909090907,942.4545454545454,156.09090909090907C953.6742424242424,156.09090909090907,964.8939393939393,82.63636363636368,976.1136363636363,82.63636363636368C987.3333333333333,82.63636363636368,998.5530303030303,105.59090909090912,1009.7727272727273,105.59090909090912C1020.9924242424241,105.59090909090912,1032.212121212121,73.4545454545455,1043.431818181818,73.4545454545455C1054.651515151515,73.4545454545455,1065.871212121212,197.40909090909088,1077.090909090909,197.40909090909088C1088.310606060606,197.40909090909088,1099.530303030303,87.22727272727275,1110.75,87.22727272727275C1121.969696969697,87.22727272727275,1133.1893939393938,128.5454545454545,1144.4090909090908,128.5454545454545C1155.6287878787878,128.5454545454545,1166.8484848484848,18.363636363636374,1178.0681818181818,18.363636363636374C1189.2878787878788,18.363636363636374,1200.5075757575755,78.04545454545456,1211.7272727272725,78.04545454545456C1222.9469696969695,78.04545454545456,1234.1666666666665,45.909090909090935,1245.3863636363635,45.909090909090935C1256.6060606060605,45.909090909090935,1267.8257575757575,110.18181818181819,1279.0454545454545,110.18181818181819C1290.2651515151515,110.18181818181819,1301.4848484848483,110.18181818181819,1312.7045454545453,110.18181818181819C1323.9242424242423,110.18181818181819,1335.1439393939393,32.136363636363626,1346.3636363636363,32.136363636363626C1357.5833333333333,32.136363636363626,1368.8030303030303,39.78787878787878,1380.0227272727273,55.09090909090912C1391.2424242424242,70.39393939393935,1402.462121212121,197.40909090909088,1413.681818181818,197.40909090909088C1424.901515151515,197.40909090909088,1436.121212121212,130.84090909090912,1447.340909090909,105.59090909090912C1458.560606060606,80.34090909090912,1469.780303030303,63.12500000000003,1481,45.909090909090935L1481,45.909090909090935C1469.780303030303,63.12500000000003,1458.560606060606,80.34090909090912,1447.340909090909,105.59090909090912C1436.121212121212,130.84090909090912,1424.901515151515,197.40909090909088,1413.681818181818,197.40909090909088C1402.462121212121,197.40909090909088,1391.2424242424242,70.39393939393935,1380.0227272727273,55.09090909090912C1368.8030303030303,39.78787878787879,1357.5833333333333,32.136363636363626,1346.3636363636363,32.136363636363626C1335.1439393939393,32.136363636363626,1323.9242424242423,110.18181818181819,1312.7045454545453,110.18181818181819C1301.4848484848483,110.18181818181819,1290.2651515151515,110.18181818181819,1279.0454545454545,110.18181818181819C1267.8257575757575,110.18181818181819,1256.6060606060605,45.909090909090935,1245.3863636363635,45.909090909090935C1234.1666666666665,45.909090909090935,1222.9469696969695,78.04545454545456,1211.7272727272725,78.04545454545456C1200.5075757575755,78.04545454545456,1189.2878787878788,18.363636363636374,1178.0681818181818,18.363636363636374C1166.8484848484848,18.363636363636374,1155.6287878787878,128.5454545454545,1144.4090909090908,128.5454545454545C1133.1893939393938,128.5454545454545,1121.969696969697,87.22727272727275,1110.75,87.22727272727275C1099.530303030303,87.22727272727275,1088.310606060606,197.40909090909088,1077.090909090909,197.40909090909088C1065.871212121212,197.40909090909088,1054.651515151515,73.4545454545455,1043.431818181818,73.4545454545455C1032.212121212121,73.4545454545455,1020.9924242424241,105.59090909090912,1009.7727272727273,105.59090909090912C998.5530303030303,105.59090909090912,987.3333333333333,82.63636363636368,976.1136363636363,82.63636363636368C964.8939393939393,82.63636363636368,953.6742424242424,156.09090909090907,942.4545454545454,156.09090909090907C931.2348484848484,156.09090909090907,920.0151515151515,147.6742424242424,908.7954545454545,142.3181818181818C897.5757575757575,136.96212121212122,886.3560606060605,129.31060606060612,875.1363636363635,123.9545454545455C863.9166666666665,118.5984848484849,852.6969696969696,110.18181818181819,841.4772727272726,110.18181818181819C830.2575757575756,110.18181818181819,819.0378787878788,123.9545454545455,807.8181818181818,123.9545454545455C796.5984848484848,123.9545454545455,785.3787878787879,114.77272727272731,774.1590909090909,114.77272727272731C762.9393939393939,114.77272727272731,751.719696969697,144.61363636363635,740.5,156.09090909090907C729.280303030303,167.5681818181818,718.060606060606,183.63636363636363,706.840909090909,183.63636363636363C695.621212121212,183.63636363636363,684.4015151515151,183.63636363636363,673.1818181818181,183.63636363636363C661.9621212121211,183.63636363636363,650.7424242424242,135.4318181818182,639.5227272727273,119.36363636363637C628.3030303030303,103.29545454545452,617.0833333333333,87.22727272727275,605.8636363636363,87.22727272727275C594.6439393939393,87.22727272727275,583.4242424242424,197.40909090909088,572.2045454545454,197.40909090909088C560.9848484848484,197.40909090909088,549.7651515151515,175.21969696969694,538.5454545454545,156.09090909090907C527.3257575757575,136.9621212121212,516.1060606060606,82.63636363636368,504.8863636363636,82.63636363636368C493.66666666666663,82.63636363636368,482.4469696969697,92.58333333333337,471.2272727272727,105.59090909090912C460.0075757575757,118.59848484848487,448.78787878787875,160.6818181818182,437.56818181818176,160.6818181818182C426.3484848484848,160.6818181818182,415.1287878787878,151.5,403.9090909090909,151.5C392.68939393939394,151.5,381.46969696969694,193.58333333333334,370.25,211.1818181818182C359.030303030303,228.78030303030306,347.81060606060606,257.0909090909091,336.59090909090907,257.0909090909091C325.37121212121207,257.0909090909091,314.1515151515151,192.8181818181818,302.93181818181813,192.8181818181818C291.7121212121212,192.8181818181818,280.4924242424242,243.3181818181818,269.27272727272725,243.3181818181818C258.05303030303025,243.3181818181818,246.83333333333331,142.3181818181818,235.61363636363635,142.3181818181818C224.39393939393938,142.3181818181818,213.1742424242424,215.77272727272725,201.95454545454544,215.77272727272725C190.73484848484847,215.77272727272725,179.5151515151515,87.22727272727275,168.29545454545453,87.22727272727275C157.07575757575756,87.22727272727275,145.8560606060606,261.6818181818182,134.63636363636363,261.6818181818182C123.41666666666666,261.6818181818182,112.19696969696969,229.54545454545456,100.97727272727272,229.54545454545456C89.75757575757575,229.54545454545456,78.53787878787878,238.72727272727275,67.31818181818181,238.72727272727275C56.098484848484844,238.72727272727275,44.878787878787875,237.19696969696972,33.65909090909091,234.13636363636363C22.439393939393938,231.07575757575754,11.219696969696969,154.56060606060606,0,78.04545454545456Z"/></g></g><g id="lines"><g class="series"><clipPath id="clip-0-0"><rect width="1481" y="-10" height="615"/></clipPath><path class="line" opacity="1" fill="none" stroke="#1D6996" stroke-width="2" transform="translate(45,10)" clip-path="url(#clip-0-0)" d="M0,78.04545454545456C11.219696969696969,154.56060606060606,22.439393939393938,231.07575757575754,33.65909090909091,234.13636363636363C44.878787878787875,237.19696969696972,56.098484848484844,238.72727272727275,67.31818181818181,238.72727272727275C78.53787878787878,238.72727272727275,89.75757575757575,229.54545454545456,100.97727272727272,229.54545454545456C112.19696969696969,229.54545454545456,123.41666666666666,261.6818181818182,134.63636363636363,261.6818181818182C145.8560606060606,261.6818181818182,157.07575757575756,87.22727272727275,168.29545454545453,87.22727272727275C179.5151515151515,87.22727272727275,190.73484848484847,215.77272727272725,201.95454545454544,215.77272727272725C213.1742424242424,215.77272727272725,224.39393939393938,142.3181818181818,235.61363636363635,142.3181818181818C246.83333333333331,142.3181818181818,258.05303030303025,243.3181818181818,269.27272727272725,243.3181818181818C280.4924242424242,243.3181818181818,291.7121212121212,192.8181818181818,302.93181818181813,192.8181818181818C314.1515151515151,192.8181818181818,325.37121212121207,257.0909090909091,336.59090909090907,257.0909090909091C347.81060606060606,257.0909090909091,359.030303030303,228.78030303030306,370.25,211.1818181818182C381.46969696969694,193.58333333333334,392.68939393939394,151.5,403.9090909090909,151.5C415.1287878787878,151.5,426.3484848484848,160.6818181818182,437.56818181818176,160.6818181818182C448.78787878787875,160.6818181818182,460.0075757575757,118.59848484848487,471.2272727272727,105.59090909090912C482.4469696969697,92.58333333333337,493.66666666666663,82.63636363636368,504.8863636363636,82.63636363636368C516.1060606060606,82.63636363636368,527.3257575757575,136.9621212121212,538.5454545454545,156.09090909090907C549.7651515151515,175.21969696969694,560.9848484848484,197.40909090909088,572.2045454545454,197.40909090909088C583.4242424242424,197.40909090909088,594.6439393939393,87.22727272727275,605.8636363636363,87.22727272727275C617.0833333333333,87.22727272727275,628.3030303030303,103.29545454545452,639.5227272727273,119.36363636363637C650.7424242424242,135.4318181818182,661.9621212121211,183.63636363636363,673.1818181818181,183.63636363636363C684.4015151515151,183.63636363636363,695.621212121212,183.63636363636363,706.840909090909,183.63636363636363C718.060606060606,183.63636363636363,729.280303030303,167.5681818181818,740.5,156.09090909090907C751.719696969697,144.61363636363635,762.9393939393939,114.77272727272731,774.1590909090909,114.77272727272731C785.3787878787879,114.77272727272731,796.5984848484848,123.9545454545455,807.8181818181818,123.9545454545455C819.0378787878788,123.9545454545455,830.2575757575756,110.18181818181819,841.4772727272726,110.18181818181819C852.6969696969696,110.18181818181819,863.9166666666665,118.5984848484849,875.1363636363635,123.9545454545455C886.3560606060605,129.31060606060612,897.5757575757575,136.96212121212122,908.7954545454545,142.3181818181818C920.0151515151515,147.6742424242424,931.2348484848484,156.09090909090907,942.4545454545454,156.09090909090907C953.6742424242424,156.09090909090907,964.8939393939393,82.63636363636368,976.1136363636363,82.63636363636368C987.3333333333333,82.63636363636368,998.5530303030303,105.59090909090912,1009.7727272727273,105.59090909090912C1020.9924242424241,105.59090909090912,1032.212121212121,73.4545454545455,1043.431818181818,73.4545454545455C1054.651515151515,73.4545454545455,1065.871212121212,197.40909090909088,1077.090909090909,197.40909090909088C1088.310606060606,197.40909090909088,1099.530303030303,87.22727272727275,1110.75,87.22727272727275C1121.969696969697,87.22727272727275,1133.1893939393938,128.5454545454545,1144.4090909090908,128.5454545454545C1155.6287878787878,128.5454545454545,1166.8484848484848,18.363636363636374,1178.0681818181818,18.363636363636374C1189.2878787878788,18.363636363636374,1200.5075757575755,78.04545454545456,1211.7272727272725,78.04545454545456C1222.9469696969695,78.04545454545456,1234.1666666666665,45.909090909090935,1245.3863636363635,45.909090909090935C1256.6060606060605,45.909090909090935,1267.8257575757575,110.18181818181819,1279.0454545454545,110.18181818181819C1290.2651515151515,110.18181818181819,1301.4848484848483,110.18181818181819,1312.7045454545453,110.18181818181819C1323.9242424242423,110.18181818181819,1335.1439393939393,32.136363636363626,1346.3636363636363,32.136363636363626C1357.5833333333333,32.136363636363626,1368.8030303030303,39.78787878787878,1380.0227272727273,55.09090909090912C1391.2424242424242,70.39393939393935,1402.462121212121,197.40909090909088,1413.681818181818,197.40909090909088C1424.901515151515,197.40909090909088,1436.121212121212,130.84090909090912,1447.340909090909,105.59090909090912C1458.560606060606,80.34090909090912,1469.780303030303,63.12500000000003,1481,45.909090909090935"/><text class="label" font-size="11" alignment-baseline="middle" opacity="1" x="5" fill="#1D6996" transform="translate(1526, 55.90909194946289)"/></g></g><g id="data-points"><g class="series" transform="translate(45,10)"><path class="data-point" fill="#1D6996" data-type="point" transform="translate(0, 0)" d="M-3,78.04545454545456A3,3,0,1,1,3,78.04545454545456A3,3,0,1,1,-3,78.04545454545456Z" id="point-0-0" opacity="1"/><path class="data-point" fill="#1D6996" data-type="point" transform="translate(0, 0)" d="M30.659090909090907,234.13636363636363A3,3,0,1,1,36.65909090909091,234.13636363636363A3,3,0,1,1,30.659090909090907,234.13636363636363Z" id="point-0-1" opacity="1"/><path class="data-point" fill="#1D6996" data-type="point" transform="translate(0, 0)" d="M64.31818181818181,238.72727272727275A3,3,0,1,1,70.31818181818181,238.72727272727275A3,3,0,1,1,64.31818181818181,238.72727272727275Z" id="point-0-2" opacity="1"/><path class="data-point" fill="#1D6996" data-type="point" transform="translate(0, 0)" d="M97.97727272727272,229.54545454545456A3,3,0,1,1,103.97727272727272,229.54545454545456A3,3,0,1,1,97.97727272727272,229.54545454545456Z" id="point-0-3" opacity="1"/><path class="data-point" fill="#1D6996" data-type="point" transform="translate(0, 0)" d="M131.63636363636363,261.6818181818182A3,3,0,1,1,137.63636363636363,261.6818181818182A3,3,0,1,1,131.63636363636363,261.6818181818182Z" id="point-0-4" opacity="1"/><path class="data-point" fill="#1D6996" data-type="point" transform="translate(0, 0)" d="M165.29545454545453,87.22727272727275A3,3,0,1,1,171.29545454545453,87.22727272727275A3,3,0,1,1,165.29545454545453,87.22727272727275Z" id="point-0-5" opacity="1"/><path class="data-point" fill="#1D6996" data-type="point" transform="translate(0, 0)" d="M198.95454545454544,215.77272727272725A3,3,0,1,1,204.95454545454544,215.77272727272725A3,3,0,1,1,198.95454545454544,215.77272727272725Z" id="point-0-6" opacity="1"/><path class="data-point" fill="#1D6996" data-type="point" transform="translate(0, 0)" d="M232.61363636363635,142.3181818181818A3,3,0,1,1,238.61363636363635,142.3181818181818A3,3,0,1,1,232.61363636363635,142.3181818181818Z" id="point-0-7" opacity="1"/><path class="data-point" fill="#1D6996" data-type="point" transform="translate(0, 0)" d="M266.27272727272725,243.3181818181818A3,3,0,1,1,272.27272727272725,243.3181818181818A3,3,0,1,1,266.27272727272725,243.3181818181818Z" id="point-0-8" opacity="1"/><path class="data-point" fill="#1D6996" data-type="point" transform="translate(0, 0)" d="M299.93181818181813,192.8181818181818A3,3,0,1,1,305.93181818181813,192.8181818181818A3,3,0,1,1,299.93181818181813,192.8181818181818Z" id="point-0-9" opacity="1"/><path class="data-point" fill="#1D6996" data-type="point" transform="translate(0, 0)" d="M333.59090909090907,257.0909090909091A3,3,0,1,1,339.59090909090907,257.0909090909091A3,3,0,1,1,333.59090909090907,257.0909090909091Z" id="point-0-10" opacity="1"/><path class="data-point" fill="#1D6996" data-type="point" transform="translate(0, 0)" d="M367.25,211.1818181818182A3,3,0,1,1,373.25,211.1818181818182A3,3,0,1,1,367.25,211.1818181818182Z" id="point-0-11" opacity="1"/><path class="data-point" fill="#1D6996" data-type="point" transform="translate(0, 0)" d="M400.9090909090909,151.5A3,3,0,1,1,406.9090909090909,151.5A3,3,0,1,1,400.9090909090909,151.5Z" id="point-0-12" opacity="1"/><path class="data-point" fill="#1D6996" data-type="point" transform="translate(0, 0)" d="M434.56818181818176,160.6818181818182A3,3,0,1,1,440.56818181818176,160.6818181818182A3,3,0,1,1,434.56818181818176,160.6818181818182Z" id="point-0-13" opacity="1"/><path class="data-point" fill="#1D6996" data-type="point" transform="translate(0, 0)" d="M468.2272727272727,105.59090909090912A3,3,0,1,1,474.2272727272727,105.59090909090912A3,3,0,1,1,468.2272727272727,105.59090909090912Z" id="point-0-14" opacity="1"/><path class="data-point" fill="#1D6996" data-type="point" transform="translate(0, 0)" d="M501.8863636363636,82.63636363636368A3,3,0,1,1,507.8863636363636,82.63636363636368A3,3,0,1,1,501.8863636363636,82.63636363636368Z" id="point-0-15" opacity="1"/><path class="data-point" fill="#1D6996" data-type="point" transform="translate(0, 0)" d="M535.5454545454545,156.09090909090907A3,3,0,1,1,541.5454545454545,156.09090909090907A3,3,0,1,1,535.5454545454545,156.09090909090907Z" id="point-0-16" opacity="1"/><path class="data-point" fill="#1D6996" data-type="point" transform="translate(0, 0)" d="M569.2045454545454,197.40909090909088A3,3,0,1,1,575.2045454545454,197.40909090909088A3,3,0,1,1,569.2045454545454,197.40909090909088Z" id="point-0-17" opacity="1"/><path class="data-point" fill="#1D6996" data-type="point" transform="translate(0, 0)" d="M602.8636363636363,87.22727272727275A3,3,0,1,1,608.8636363636363,87.22727272727275A3,3,0,1,1,602.8636363636363,87.22727272727275Z" id="point-0-18" opacity="1"/><path class="data-point" fill="#1D6996" data-type="point" transform="translate(0, 0)" d="M636.5227272727273,119.36363636363637A3,3,0,1,1,642.5227272727273,119.36363636363637A3,3,0,1,1,636.5227272727273,119.36363636363637Z" id="point-0-19" opacity="1"/><path class="data-point" fill="#1D6996" data-type="point" transform="translate(0, 0)" d="M670.1818181818181,183.63636363636363A3,3,0,1,1,676.1818181818181,183.63636363636363A3,3,0,1,1,670.1818181818181,183.63636363636363Z" id="point-0-20" opacity="1"/><path class="data-point" fill="#1D6996" data-type="point" transform="translate(0, 0)" d="M703.840909090909,183.63636363636363A3,3,0,1,1,709.840909090909,183.63636363636363A3,3,0,1,1,703.840909090909,183.63636363636363Z" id="point-0-21" opacity="1"/><path class="data-point" fill="#1D6996" data-type="point" transform="translate(0, 0)" d="M737.5,156.09090909090907A3,3,0,1,1,743.5,156.09090909090907A3,3,0,1,1,737.5,156.09090909090907Z" id="point-0-22" opacity="1"/><path class="data-point" fill="#1D6996" data-type="point" transform="translate(0, 0)" d="M771.1590909090909,114.77272727272731A3,3,0,1,1,777.1590909090909,114.77272727272731A3,3,0,1,1,771.1590909090909,114.77272727272731Z" id="point-0-23" opacity="1"/><path class="data-point" fill="#1D6996" data-type="point" transform="translate(0, 0)" d="M804.8181818181818,123.9545454545455A3,3,0,1,1,810.8181818181818,123.9545454545455A3,3,0,1,1,804.8181818181818,123.9545454545455Z" id="point-0-24" opacity="1"/><path class="data-point" fill="#1D6996" data-type="point" transform="translate(0, 0)" d="M838.4772727272726,110.18181818181819A3,3,0,1,1,844.4772727272726,110.18181818181819A3,3,0,1,1,838.4772727272726,110.18181818181819Z" id="point-0-25" opacity="1"/><path class="data-point" fill="#1D6996" data-type="point" transform="translate(0, 0)" d="M872.1363636363635,123.9545454545455A3,3,0,1,1,878.1363636363635,123.9545454545455A3,3,0,1,1,872.1363636363635,123.9545454545455Z" id="point-0-26" opacity="1"/><path class="data-point" fill="#1D6996" data-type="point" transform="translate(0, 0)" d="M905.7954545454545,142.3181818181818A3,3,0,1,1,911.7954545454545,142.3181818181818A3,3,0,1,1,905.7954545454545,142.3181818181818Z" id="point-0-27" opacity="1"/><path class="data-point" fill="#1D6996" data-type="point" transform="translate(0, 0)" d="M939.4545454545454,156.09090909090907A3,3,0,1,1,945.4545454545454,156.09090909090907A3,3,0,1,1,939.4545454545454,156.09090909090907Z" id="point-0-28" opacity="1"/><path class="data-point" fill="#1D6996" data-type="point" transform="translate(0, 0)" d="M973.1136363636363,82.63636363636368A3,3,0,1,1,979.1136363636363,82.63636363636368A3,3,0,1,1,973.1136363636363,82.63636363636368Z" id="point-0-29" opacity="1"/><path class="data-point" fill="#1D6996" data-type="point" transform="translate(0, 0)" d="M1006.7727272727273,105.59090909090912A3,3,0,1,1,1012.7727272727273,105.59090909090912A3,3,0,1,1,1006.7727272727273,105.59090909090912Z" id="point-0-30" opacity="1"/><path class="data-point" fill="#1D6996" data-type="point" transform="translate(0, 0)" d="M1040.431818181818,73.4545454545455A3,3,0,1,1,1046.431818181818,73.4545454545455A3,3,0,1,1,1040.431818181818,73.4545454545455Z" id="point-0-31" opacity="1"/><path class="data-point" fill="#1D6996" data-type="point" transform="translate(0, 0)" d="M1074.090909090909,197.40909090909088A3,3,0,1,1,1080.090909090909,197.40909090909088A3,3,0,1,1,1074.090909090909,197.40909090909088Z" id="point-0-32" opacity="1"/><path class="data-point" fill="#1D6996" data-type="point" transform="translate(0, 0)" d="M1107.75,87.22727272727275A3,3,0,1,1,1113.75,87.22727272727275A3,3,0,1,1,1107.75,87.22727272727275Z" id="point-0-33" opacity="1"/><path class="data-point" fill="#1D6996" data-type="point" transform="translate(0, 0)" d="M1141.4090909090908,128.5454545454545A3,3,0,1,1,1147.4090909090908,128.5454545454545A3,3,0,1,1,1141.4090909090908,128.5454545454545Z" id="point-0-34" opacity="1"/><path class="data-point" fill="#1D6996" data-type="point" transform="translate(0, 0)" d="M1175.0681818181818,18.363636363636374A3,3,0,1,1,1181.0681818181818,18.363636363636374A3,3,0,1,1,1175.0681818181818,18.363636363636374Z" id="point-0-35" opacity="1"/><path class="data-point" fill="#1D6996" data-type="point" transform="translate(0, 0)" d="M1208.7272727272725,78.04545454545456A3,3,0,1,1,1214.7272727272725,78.04545454545456A3,3,0,1,1,1208.7272727272725,78.04545454545456Z" id="point-0-36" opacity="1"/><path class="data-point" fill="#1D6996" data-type="point" transform="translate(0, 0)" d="M1242.3863636363635,45.909090909090935A3,3,0,1,1,1248.3863636363635,45.909090909090935A3,3,0,1,1,1242.3863636363635,45.909090909090935Z" id="point-0-37" opacity="1"/><path class="data-point" fill="#1D6996" data-type="point" transform="translate(0, 0)" d="M1276.0454545454545,110.18181818181819A3,3,0,1,1,1282.0454545454545,110.18181818181819A3,3,0,1,1,1276.0454545454545,110.18181818181819Z" id="point-0-38" opacity="1"/><path class="data-point" fill="#1D6996" data-type="point" transform="translate(0, 0)" d="M1309.7045454545453,110.18181818181819A3,3,0,1,1,1315.7045454545453,110.18181818181819A3,3,0,1,1,1309.7045454545453,110.18181818181819Z" id="point-0-39" opacity="1"/><path class="data-point" fill="#1D6996" data-type="point" transform="translate(0, 0)" d="M1343.3636363636363,32.136363636363626A3,3,0,1,1,1349.3636363636363,32.136363636363626A3,3,0,1,1,1343.3636363636363,32.136363636363626Z" id="point-0-40" opacity="1"/><path class="data-point" fill="#1D6996" data-type="point" transform="translate(0, 0)" d="M1377.0227272727273,55.09090909090912A3,3,0,1,1,1383.0227272727273,55.09090909090912A3,3,0,1,1,1377.0227272727273,55.09090909090912Z" id="point-0-41" opacity="1"/><path class="data-point" fill="#1D6996" data-type="point" transform="translate(0, 0)" d="M1410.681818181818,197.40909090909088A3,3,0,1,1,1416.681818181818,197.40909090909088A3,3,0,1,1,1410.681818181818,197.40909090909088Z" id="point-0-42" opacity="1"/><path class="data-point" fill="#1D6996" data-type="point" transform="translate(0, 0)" d="M1444.340909090909,105.59090909090912A3,3,0,1,1,1450.340909090909,105.59090909090912A3,3,0,1,1,1444.340909090909,105.59090909090912Z" id="point-0-43" opacity="1"/><path class="data-point" fill="#1D6996" data-type="point" transform="translate(0, 0)" d="M1478,45.909090909090935A3,3,0,1,1,1484,45.909090909090935A3,3,0,1,1,1478,45.909090909090935Z" id="point-0-44" opacity="1"/></g></g><g id="data-labels"/><g class="annotations above"><g class="axis-highlights" transform="translate(45, 10)" style="opacity: 1;"/></g></svg>