<svg xmlns="http://www.w3.org/2000/svg" id="graphic" width="1536" height="650"><g id="facets"><g class="facet" transform="translate(45,10)" opacity="1"><text class="facet-title" y="0" font-size="16" font-weight="bold" dominant-baseline="middle" x="0" clip-path="url(#facet-clip-0)" fill="black"/><g class="plot"><clipPath class="facet-clip" id="facet-clip-0"><rect width="1496" height="525" transform="translate(-7.5,-10)"/></clipPath><g class="bg"><rect fill="none" width="1481" height="505" style="fill: none;"/></g><g class="interaction"><g class="series"><path data-target="point-0-0" d="M0,337.12467527322747L28.948367292826767,139.69188051518464L25.798730979417357,96.72976782917182L0,76.02956297255862Z" style="opacity: 0;"/><path data-target="point-0-1" d="M0,393.94957044105547L62.10532580854831,252.75993560243694L28.948367292826767,139.69188051518464L0,337.12467527322747Z" style="opacity: 0;"/><path data-target="point-0-2" d="M25.798730979417357,96.72976782917182L28.948367292826767,139.69188051518464L62.10532580854831,252.75993560243694L120.54651149999998,202.93758075543244L120.5465115,142.90508522977183L115.55712739052217,133.8308319503236Z" style="opacity: 0;"/><path data-target="point-0-3" d="M172.209302,505L172.209302,291.0248393416564L120.54651149999998,202.93758075543244L62.10532580854831,252.75993560243694L0,393.94957044105547L0,505Z" style="opacity: 0;"/><path data-target="point-0-4" d="M0,76.02956297255862L25.798730979417357,96.72976782917182L115.55712739052217,133.8308319503236L292.1623172333359,-3.552713678800501e-15L0,0Z" style="opacity: 0;"/><path data-target="point-0-5" d="M120.5465115,142.90508522977183L120.54651149999998,202.93758075543244L172.209302,291.0248393416564L223.52753352494474,203.52506848577278L222.11618216805675,189.08658330191693Z" style="opacity: 0;"/><path data-target="point-0-6" d="M115.55712739052217,133.8308319503236L120.5465115,142.90508522977183L222.11618216805675,189.08658330191693L300.6390299271855,106.69593688660392L319.4120395736917,0L292.1623172333359,-3.552713678800501e-15Z" style="opacity: 0;"/><path data-target="point-0-7" d="M172.209302,291.0248393416564L172.209302,505L187.60636189763184,505L283.19745805120914,244.2209743553587L223.52753352494474,203.52506848577278Z" style="opacity: 0;"/><path data-target="point-0-8" d="M222.11618216805675,189.08658330191693L223.52753352494474,203.52506848577278L283.19745805120914,244.2209743553587L302.3141699487908,235.5290256446413L324.2460065177292,175.69748064534022L300.6390299271855,106.69593688660392Z" style="opacity: 0;"/><path data-target="point-0-9" d="M483.4125919118629,505L447.74418599999996,334.7147761013445L302.3141699487908,235.5290256446413L283.19745805120914,244.2209743553587L187.60636189763184,505Z" style="opacity: 0;"/><path data-target="point-0-10" d="M302.3141699487908,235.5290256446413L447.74418599999996,334.7147761013445L447.74418599999996,308.9247136273703L381.1961559807663,208.0649571269409L324.2460065177292,175.69748064534022Z" style="opacity: 0;"/><path data-target="point-0-11" d="M300.6390299271855,106.69593688660392L324.2460065177292,175.69748064534022L381.1961559807663,208.0649571269409L410.4431863441768,141.5750459428243L327.41004334526554,0L319.4120395736917,0Z" style="opacity: 0;"/><path data-target="point-0-12" d="M381.1961559807663,208.0649571269409L447.74418599999996,308.9247136273703L455.2590199566817,286.1458479782625L466.0222802564705,176.03494461886518L410.4431863441768,141.5750459428243Z" style="opacity: 0;"/><path data-target="point-0-13" d="M327.41004334526554,0L410.4431863441768,141.5750459428243L466.0222802564705,176.03494461886518L487.1101950170744,153.9083027781764L396.84365233173105,0Z" style="opacity: 0;"/><path data-target="point-0-14" d="M396.84365233173105,0L487.1101950170744,153.9083027781764L547.9224684699404,129.51124036064198L503.6137667676128,0Z" style="opacity: 0;"/><path data-target="point-0-15" d="M455.2590199566817,286.1458479782625L567.6478262929386,176.64430530781064L557.4535279651847,134.92819451167173L547.9224684699404,129.51124036064198L487.1101950170744,153.9083027781764L466.0222802564705,176.03494461886518Z" style="opacity: 0;"/><path data-target="point-0-16" d="M447.74418599999996,308.9247136273703L447.74418599999996,334.7147761013445L483.4125919118629,505L563.1184453013656,505L605.0324653290849,219.13924004463587L567.6478262929386,176.64430530781064L455.2590199566817,286.1458479782625Z" style="opacity: 0;"/><path data-target="point-0-17" d="M503.6137667676128,0L547.9224684699404,129.51124036064198L557.4535279651847,134.92819451167173L695.1567918635199,85.49873607780498L720.1597547035528,44.897672630242425L731.4450209776942,0Z" style="opacity: 0;"/><path data-target="point-0-18" d="M557.4535279651847,134.92819451167173L567.6478262929386,176.64430530781064L605.0324653290849,219.13924004463587L671.616279,188.86504261488594L674.2862627532865,186.43707672794307L690.1339597023298,154.01187849785356L695.1567918635199,85.49873607780498Z" style="opacity: 0;"/><path data-target="point-0-19" d="M671.616279,505L671.616279,188.86504261488594L605.0324653290849,219.13924004463587L563.1184453013656,505Z" style="opacity: 0;"/><path data-target="point-0-20" d="M671.616279,188.86504261488594L671.616279,505L803.9361193721735,505L805.7213921632919,419.76894735135477L801.3186125935293,359.7135335873893L674.2862627532865,186.43707672794307Z" style="opacity: 0;"/><path data-target="point-0-21" d="M674.2862627532865,186.43707672794307L801.3186125935293,359.7135335873893L803.1514662529548,328.4625980074086L761.5098039982865,214.86130514694128L690.1339597023298,154.01187849785356Z" style="opacity: 0;"/><path data-target="point-0-22" d="M690.1339597023298,154.01187849785356L761.5098039982865,214.86130514694128L789.8271000192336,150.4850428730591L720.1597547035528,44.897672630242425L695.1567918635199,85.49873607780498Z" style="opacity: 0;"/><path data-target="point-0-23" d="M761.5098039982865,214.86130514694128L803.1514662529548,328.4625980074086L810.4494822726238,307.13100690756136L830.0644152916605,173.35382141082783L789.8271000192336,150.4850428730591Z" style="opacity: 0;"/><path data-target="point-0-24" d="M720.1597547035528,44.897672630242425L789.8271000192336,150.4850428730591L830.0644152916605,173.35382141082783L898.9156822590126,139.8125800167199L939.915414493828,0L731.4450209776942,0Z" style="opacity: 0;"/><path data-target="point-0-25" d="M810.4494822726238,307.13100690756136L908.6865980340783,173.13223511113355L898.9156822590126,139.8125800167199L830.0644152916605,173.35382141082783Z" style="opacity: 0;"/><path data-target="point-0-26" d="M801.3186125935293,359.7135335873893L805.7213921632919,419.76894735135477L932.8206798949726,203.0592443190004L908.6865980340783,173.13223511113355L810.4494822726238,307.13100690756136L803.1514662529548,328.4625980074086Z" style="opacity: 0;"/><path data-target="point-0-27" d="M1091.2777363614382,505L1033.2558135,329.12471211177706L957.4723705625333,214.2678262164979L932.8206798949726,203.0592443190004L805.7213921632919,419.76894735135477L803.9361193721735,505Z" style="opacity: 0;"/><path data-target="point-0-28" d="M898.9156822590126,139.8125800167199L908.6865980340783,173.13223511113355L932.8206798949726,203.0592443190004L957.4723705625333,214.2678262164979L998.6853792400748,167.42120327753187L986.4114041371396,0L939.915414493828,0Z" style="opacity: 0;"/><path data-target="point-0-29" d="M957.4723705625333,214.2678262164979L1033.2558135,329.12471211177706L1033.2558135,201.10352552618758L998.6853792400748,167.42120327753187Z" style="opacity: 0;"/><path data-target="point-0-30" d="M986.4114041371396,0L998.6853792400748,167.42120327753187L1033.2558135,201.10352552618758L1078.6696889589327,156.85633060075614L1087.2124634772404,137.43527131082155L999.8901810934091,0Z" style="opacity: 0;"/><path data-target="point-0-31" d="M1033.2558135,201.10352552618758L1033.2558135,329.12471211177706L1091.2777363614382,505L1115.7362692854583,505L1123.7246135706753,464.1385980944431L1078.6696889589327,156.85633060075614Z" style="opacity: 0;"/><path data-target="point-0-32" d="M1078.6696889589327,156.85633060075614L1123.7246135706753,464.1385980944431L1183.3946262486504,238.0499020855272L1172.6333957209029,189.1209515053267L1153.5647980351046,161.25286190503846L1087.2124634772404,137.43527131082155Z" style="opacity: 0;"/><path data-target="point-0-33" d="M999.8901810934091,0L1087.2124634772404,137.43527131082155L1153.5647980351046,161.25286190503846L1164.335602613722,131.869372893593L1125.665198995715,0Z" style="opacity: 0;"/><path data-target="point-0-34" d="M1125.665198995715,0L1164.335602613722,131.869372893593L1299.682019206453,0Z" style="opacity: 0;"/><path data-target="point-0-35" d="M1153.5647980351046,161.25286190503846L1172.6333957209029,189.1209515053267L1291.5697675,87.7251598058222L1316.5055430150592,2.692040820774139L1316.2799901405817,1.7763568394002505e-15L1299.682019206453,0L1164.335602613722,131.869372893593Z" style="opacity: 0;"/><path data-target="point-0-36" d="M1172.6333957209029,189.1209515053267L1183.3946262486504,238.0499020855272L1291.5697675,188.8650430695639L1291.5697675,87.7251598058222Z" style="opacity: 0;"/><path data-target="point-0-37" d="M1253.4365565797189,505L1298.8224700534306,195.46033203572244L1291.5697675,188.8650430695639L1183.3946262486504,238.0499020855272L1123.7246135706753,464.1385980944431L1115.7362692854583,505Z" style="opacity: 0;"/><path data-target="point-0-38" d="M1426.4770103033761,505L1364.436136602468,251.1224031329131L1334.9049659435595,210.84087995525698L1298.8224700534306,195.46033203572244L1253.4365565797189,505Z" style="opacity: 0;"/><path data-target="point-0-39" d="M1291.5697675,87.7251598058222L1291.5697675,188.8650430695639L1298.8224700534306,195.46033203572244L1334.9049659435595,210.84087995525698L1397.1123398784673,140.1300639076953L1316.5055430150592,2.692040820774139Z" style="opacity: 0;"/><path data-target="point-0-40" d="M1334.9049659435595,210.84087995525698L1364.436136602468,251.1224031329131L1428.4159131706353,163.8518087807509L1397.1123398784673,140.1300639076953Z" style="opacity: 0;"/><path data-target="point-0-41" d="M1364.436136602468,251.1224031329131L1426.4770103033761,505L1481,505L1481,202.84992859629187L1430.2585058293646,164.39819121924916L1428.4159131706353,163.8518087807509Z" style="opacity: 0;"/><path data-target="point-0-42" d="M1316.2799901405817,1.7763568394002505e-15L1316.5055430150592,2.692040820774139L1397.1123398784673,140.1300639076953L1428.4159131706353,163.8518087807509L1430.2585058293646,164.39819121924916L1481,95.18506494535426L1481,0Z" style="opacity: 0;"/><path data-target="point-0-43" d="M1430.2585058293646,164.39819121924916L1481,202.84992859629187L1481,95.18506494535426Z" style="opacity: 0;"/></g></g><g class="axes"><g class="y axis" fill="none" font-size="10" font-family="sans-serif" text-anchor="end"><path class="domain" stroke="#eeeeee" d="M0.5,505.5V0.5" stroke-dasharray="0" style="visibility: hidden;"/><g class="tick" opacity="1" transform="translate(0, 505.5)" style="visibility: visible;"><line stroke="#eeeeee" x2="1481" stroke-dasharray="0"/><text fill="rgb(170, 170, 170)" x="-3" dy="0.33em" opacity="1" text-anchor="end" font-size="10">0</text></g><g class="tick" opacity="1" transform="translate(0, 455)" style="visibility: visible;"><line stroke="#eeeeee" x2="1481" stroke-dasharray="0"/><text fill="rgb(170, 170, 170)" x="-3" dy="0.33em" opacity="1" text-anchor="end" font-size="10">10</text></g><g class="tick" opacity="1" transform="translate(0, 404.5)" style="visibility: visible;"><line stroke="#eeeeee" x2="1481" stroke-dasharray="0"/><text fill="rgb(170, 170, 170)" x="-3" dy="0.33em" opacity="1" text-anchor="end" font-size="10">20</text></g><g class="tick" opacity="1" transform="translate(0, 354)" style="visibility: visible;"><line stroke="#eeeeee" x2="1481" stroke-dasharray="0"/><text fill="rgb(170, 170, 170)" x="-3" dy="0.33em" opacity="1" text-anchor="end" font-size="10">30</text></g><g class="tick" opacity="1" transform="translate(0, 303.5)" style="visibility: visible;"><line stroke="#eeeeee" x2="1481" stroke-dasharray="0"/><text fill="rgb(170, 170, 170)" x="-3" dy="0.33em" opacity="1" text-anchor="end" font-size="10">40</text></g><g class="tick" opacity="1" transform="translate(0, 253)" style="visibility: visible;"><line stroke="#eeeeee" x2="1481" stroke-dasharray="0"/><text fill="rgb(170, 170, 170)" x="-3" dy="0.33em" opacity="1" text-anchor="end" font-size="10">50</text></g><g class="tick" opacity="1" transform="translate(0, 202.5)" style="visibility: visible;"><line stroke="#eeeeee" x2="1481" stroke-dasharray="0"/><text fill="rgb(170, 170, 170)" x="-3" dy="0.33em" opacity="1" text-anchor="end" font-size="10">60</text></g><g class="tick" opacity="1" transform="translate(0, 152)" style="visibility: visible;"><line stroke="#eeeeee" x2="1481" stroke-dasharray="0"/><text fill="rgb(170, 170, 170)" x="-3" dy="0.33em" opacity="1" text-anchor="end" font-size="10">70</text></g><g class="tick" opacity="1" transform="translate(0, 101.5)" style="visibility: visible;"><line stroke="#eeeeee" x2="1481" stroke-dasharray="0"/><text fill="rgb(170, 170, 170)" x="-3" dy="0.33em" opacity="1" text-anchor="end" font-size="10">80</text></g><g class="tick" opacity="1" transform="translate(0, 51)" style="visibility: visible;"><line stroke="#eeeeee" x2="1481" stroke-dasharray="0"/><text fill="rgb(170, 170, 170)" x="-3" dy="0.33em" opacity="1" text-anchor="end" font-size="10">90</text></g><g class="tick" opacity="1" transform="translate(0, 0.5)" style="visibility: visible;"><line stroke="#eeeeee" x2="1481" stroke-dasharray="0"/><text fill="rgb(170, 170, 170)" x="-3" dy="0.33em" opacity="1" text-anchor="end" font-size="10">100</text></g></g><g class="x axis" transform="translate(0, 505)" fill="none" font-size="10" font-family="sans-serif" text-anchor="middle"><path class="domain" stroke="#eeeeee" d="M0.5,0.5H1481.5" stroke-dasharray="0"/><g class="tick" opacity="1" transform="translate(0.5,0)"><line stroke="#eeeeee" y2="6" stroke-dasharray="0"/><text fill="rgb(170, 170, 170)" y="9" dy="-9" opacity="1" dominant-baseline="central" font-size="10" transform="translate(0, 15) rotate(-45)" dx="5" style="text-anchor: end; visibility: visible;">Rafael Aranda</text></g><g class="tick" opacity="1" transform="translate(34.94186019897461, 0)"><line stroke="#eeeeee" y2="6" stroke-dasharray="0"/><text fill="rgb(170, 170, 170)" y="9" dy="-9" opacity="1" dominant-baseline="central" font-size="10" transform="translate(0, 15) rotate(-45)" dx="5" style="text-anchor: end; visibility: visible;">Carme Pigem</text></g><g class="tick" opacity="1" transform="translate(69.38372039794922, 0)"><line stroke="#eeeeee" y2="6" stroke-dasharray="0"/><text fill="rgb(170, 170, 170)" y="9" dy="-9" opacity="1" dominant-baseline="central" font-size="10" transform="translate(0, 15) rotate(-45)" dx="5" style="text-anchor: end; visibility: visible;">Ramon Vilalta</text></g><g class="tick" opacity="1" transform="translate(103.8255844116211, 0)"><line stroke="#eeeeee" y2="6" stroke-dasharray="0"/><text fill="rgb(170, 170, 170)" y="9" dy="-9" opacity="1" dominant-baseline="central" font-size="10" transform="translate(0, 15) rotate(-45)" dx="5" style="text-anchor: end; visibility: visible;">Alejandro Aravena</text></g><g class="tick" opacity="1" transform="translate(138.26744079589844, 0)"><line stroke="#eeeeee" y2="6" stroke-dasharray="0"/><text fill="rgb(170, 170, 170)" y="9" dy="-9" opacity="1" dominant-baseline="central" font-size="10" transform="translate(0, 15) rotate(-45)" dx="5" style="text-anchor: end; visibility: visible;">Frei Otto</text></g><g class="tick" opacity="1" transform="translate(172.7093048095703, 0)"><line stroke="#eeeeee" y2="6" stroke-dasharray="0"/><text fill="rgb(170, 170, 170)" y="9" dy="-9" opacity="1" dominant-baseline="central" font-size="10" transform="translate(0, 15) rotate(-45)" dx="5" style="text-anchor: end; visibility: visible;">Shigeru Ban</text></g><g class="tick" opacity="1" transform="translate(207.1511688232422, 0)"><line stroke="#eeeeee" y2="6" stroke-dasharray="0"/><text fill="rgb(170, 170, 170)" y="9" dy="-9" opacity="1" dominant-baseline="central" font-size="10" transform="translate(0, 15) rotate(-45)" dx="5" style="text-anchor: end; visibility: visible;">Toyo Ito</text></g><g class="tick" opacity="1" transform="translate(241.593017578125, 0)"><line stroke="#eeeeee" y2="6" stroke-dasharray="0"/><text fill="rgb(170, 170, 170)" y="9" dy="-9" opacity="1" dominant-baseline="central" font-size="10" transform="translate(0, 15) rotate(-45)" dx="5" style="text-anchor: end; visibility: visible;">Wang Shu</text></g><g class="tick" opacity="1" transform="translate(276.0348815917969, 0)"><line stroke="#eeeeee" y2="6" stroke-dasharray="0"/><text fill="rgb(170, 170, 170)" y="9" dy="-9" opacity="1" dominant-baseline="central" font-size="10" transform="translate(0, 15) rotate(-45)" dx="5" style="text-anchor: end; visibility: visible;">Eduardo Souto de Moura</text></g><g class="tick" opacity="1" transform="translate(310.47674560546875, 0)"><line stroke="#eeeeee" y2="6" stroke-dasharray="0"/><text fill="rgb(170, 170, 170)" y="9" dy="-9" opacity="1" dominant-baseline="central" font-size="10" transform="translate(0, 15) rotate(-45)" dx="5" style="text-anchor: end; visibility: visible;">Ryue Nishizawa</text></g><g class="tick" opacity="1" transform="translate(344.9186096191406, 0)"><line stroke="#eeeeee" y2="6" stroke-dasharray="0"/><text fill="rgb(170, 170, 170)" y="9" dy="-9" opacity="1" dominant-baseline="central" font-size="10" transform="translate(0, 15) rotate(-45)" dx="5" style="text-anchor: end; visibility: visible;">Kazuyo Sejima</text></g><g class="tick" opacity="1" transform="translate(379.3604736328125, 0)"><line stroke="#eeeeee" y2="6" stroke-dasharray="0"/><text fill="rgb(170, 170, 170)" y="9" dy="-9" opacity="1" dominant-baseline="central" font-size="10" transform="translate(0, 15) rotate(-45)" dx="5" style="text-anchor: end; visibility: visible;">Peter Zumthor</text></g><g class="tick" opacity="1" transform="translate(413.8023376464844, 0)"><line stroke="#eeeeee" y2="6" stroke-dasharray="0"/><text fill="rgb(170, 170, 170)" y="9" dy="-9" opacity="1" dominant-baseline="central" font-size="10" transform="translate(0, 15) rotate(-45)" dx="5" style="text-anchor: end; visibility: visible;">Jean Nouvel</text></g><g class="tick" opacity="1" transform="translate(448.2441711425781, 0)"><line stroke="#eeeeee" y2="6" stroke-dasharray="0"/><text fill="rgb(170, 170, 170)" y="9" dy="-9" opacity="1" dominant-baseline="central" font-size="10" transform="translate(0, 15) rotate(-45)" dx="5" style="text-anchor: end; visibility: visible;">Richard Rogers</text></g><g class="tick" opacity="1" transform="translate(482.68603515625, 0)"><line stroke="#eeeeee" y2="6" stroke-dasharray="0"/><text fill="rgb(170, 170, 170)" y="9" dy="-9" opacity="1" dominant-baseline="central" font-size="10" transform="translate(0, 15) rotate(-45)" dx="5" style="text-anchor: end; visibility: visible;">Mendes da Rocha</text></g><g class="tick" opacity="1" transform="translate(517.1279296875, 0)"><line stroke="#eeeeee" y2="6" stroke-dasharray="0"/><text fill="rgb(170, 170, 170)" y="9" dy="-9" opacity="1" dominant-baseline="central" font-size="10" transform="translate(0, 15) rotate(-45)" dx="5" style="text-anchor: end; visibility: visible;">Thom Mayne</text></g><g class="tick" opacity="1" transform="translate(551.5697631835938, 0)"><line stroke="#eeeeee" y2="6" stroke-dasharray="0"/><text fill="rgb(170, 170, 170)" y="9" dy="-9" opacity="1" dominant-baseline="central" font-size="10" transform="translate(0, 15) rotate(-45)" dx="5" style="text-anchor: end; visibility: visible;">Zaha Hadid</text></g><g class="tick" opacity="1" transform="translate(586.0116577148438, 0)"><line stroke="#eeeeee" y2="6" stroke-dasharray="0"/><text fill="rgb(170, 170, 170)" y="9" dy="-9" opacity="1" dominant-baseline="central" font-size="10" transform="translate(0, 15) rotate(-45)" dx="5" style="text-anchor: end; visibility: visible;">Jørn Utzon</text></g><g class="tick" opacity="1" transform="translate(620.4534912109375, 0)"><line stroke="#eeeeee" y2="6" stroke-dasharray="0"/><text fill="rgb(170, 170, 170)" y="9" dy="-9" opacity="1" dominant-baseline="central" font-size="10" transform="translate(0, 15) rotate(-45)" dx="5" style="text-anchor: end; visibility: visible;">Glenn Murcutt</text></g><g class="tick" opacity="1" transform="translate(654.8953247070312, 0)"><line stroke="#eeeeee" y2="6" stroke-dasharray="0"/><text fill="rgb(170, 170, 170)" y="9" dy="-9" opacity="1" dominant-baseline="central" font-size="10" transform="translate(0, 15) rotate(-45)" dx="5" style="text-anchor: end; visibility: visible;">Pierre de Meuron</text></g><g class="tick" opacity="1" transform="translate(689.3372192382812, 0)"><line stroke="#eeeeee" y2="6" stroke-dasharray="0"/><text fill="rgb(170, 170, 170)" y="9" dy="-9" opacity="1" dominant-baseline="central" font-size="10" transform="translate(0, 15) rotate(-45)" dx="5" style="text-anchor: end; visibility: visible;">Jacques Herzog</text></g><g class="tick" opacity="1" transform="translate(723.779052734375, 0)"><line stroke="#eeeeee" y2="6" stroke-dasharray="0"/><text fill="rgb(170, 170, 170)" y="9" dy="-9" opacity="1" dominant-baseline="central" font-size="10" transform="translate(0, 15) rotate(-45)" dx="5" style="text-anchor: end; visibility: visible;">Rem Koolhaas</text></g><g class="tick" opacity="1" transform="translate(758.220947265625, 0)"><line stroke="#eeeeee" y2="6" stroke-dasharray="0"/><text fill="rgb(170, 170, 170)" y="9" dy="-9" opacity="1" dominant-baseline="central" font-size="10" transform="translate(0, 15) rotate(-45)" dx="5" style="text-anchor: end; visibility: visible;">Norman Foster</text></g><g class="tick" opacity="1" transform="translate(792.6627807617188, 0)"><line stroke="#eeeeee" y2="6" stroke-dasharray="0"/><text fill="rgb(170, 170, 170)" y="9" dy="-9" opacity="1" dominant-baseline="central" font-size="10" transform="translate(0, 15) rotate(-45)" dx="5" style="text-anchor: end; visibility: visible;">Renzo Piano</text></g><g class="tick" opacity="1" transform="translate(827.1046752929688, 0)"><line stroke="#eeeeee" y2="6" stroke-dasharray="0"/><text fill="rgb(170, 170, 170)" y="9" dy="-9" opacity="1" dominant-baseline="central" font-size="10" transform="translate(0, 15) rotate(-45)" dx="5" style="text-anchor: end; visibility: visible;">Sverre Fehn</text></g><g class="tick" opacity="1" transform="translate(861.5465087890625, 0)"><line stroke="#eeeeee" y2="6" stroke-dasharray="0"/><text fill="rgb(170, 170, 170)" y="9" dy="-9" opacity="1" dominant-baseline="central" font-size="10" transform="translate(0, 15) rotate(-45)" dx="5" style="text-anchor: end; visibility: visible;">José Rafael Moneo</text></g><g class="tick" opacity="1" transform="translate(895.9883422851562, 0)"><line stroke="#eeeeee" y2="6" stroke-dasharray="0"/><text fill="rgb(170, 170, 170)" y="9" dy="-9" opacity="1" dominant-baseline="central" font-size="10" transform="translate(0, 15) rotate(-45)" dx="5" style="text-anchor: end; visibility: visible;">Tadao Ando</text></g><g class="tick" opacity="1" transform="translate(930.4302368164062, 0)"><line stroke="#eeeeee" y2="6" stroke-dasharray="0"/><text fill="rgb(170, 170, 170)" y="9" dy="-9" opacity="1" dominant-baseline="central" font-size="10" transform="translate(0, 15) rotate(-45)" dx="5" style="text-anchor: end; visibility: visible;">Christian de Portzamparc</text></g><g class="tick" opacity="1" transform="translate(964.8720703125, 0)"><line stroke="#eeeeee" y2="6" stroke-dasharray="0"/><text fill="rgb(170, 170, 170)" y="9" dy="-9" opacity="1" dominant-baseline="central" font-size="10" transform="translate(0, 15) rotate(-45)" dx="5" style="text-anchor: end; visibility: visible;">Fumihiko Maki</text></g><g class="tick" opacity="1" transform="translate(999.31396484375, 0)"><line stroke="#eeeeee" y2="6" stroke-dasharray="0"/><text fill="rgb(170, 170, 170)" y="9" dy="-9" opacity="1" dominant-baseline="central" font-size="10" transform="translate(0, 15) rotate(-45)" dx="5" style="text-anchor: end; visibility: visible;">Alvaro Joaquim de Meio Siza Vieira</text></g><g class="tick" opacity="1" transform="translate(1033.755859375, 0)"><line stroke="#eeeeee" y2="6" stroke-dasharray="0"/><text fill="rgb(170, 170, 170)" y="9" dy="-9" opacity="1" dominant-baseline="central" font-size="10" transform="translate(0, 15) rotate(-45)" dx="5" style="text-anchor: end; visibility: visible;">Robert Venturi</text></g><g class="tick" opacity="1" transform="translate(1068.1976318359375, 0)"><line stroke="#eeeeee" y2="6" stroke-dasharray="0"/><text fill="rgb(170, 170, 170)" y="9" dy="-9" opacity="1" dominant-baseline="central" font-size="10" transform="translate(0, 15) rotate(-45)" dx="5" style="text-anchor: end; visibility: visible;">Aldo Rossi</text></g><g class="tick" opacity="1" transform="translate(1102.6395263671875, 0)"><line stroke="#eeeeee" y2="6" stroke-dasharray="0"/><text fill="rgb(170, 170, 170)" y="9" dy="-9" opacity="1" dominant-baseline="central" font-size="10" transform="translate(0, 15) rotate(-45)" dx="5" style="text-anchor: end; visibility: visible;">Frank Gehry</text></g><g class="tick" opacity="1" transform="translate(1137.0814208984375, 0)"><line stroke="#eeeeee" y2="6" stroke-dasharray="0"/><text fill="rgb(170, 170, 170)" y="9" dy="-9" opacity="1" dominant-baseline="central" font-size="10" transform="translate(0, 15) rotate(-45)" dx="5" style="text-anchor: end; visibility: visible;">Gordon Bunshaft</text></g><g class="tick" opacity="1" transform="translate(1171.5233154296875, 0)"><line stroke="#eeeeee" y2="6" stroke-dasharray="0"/><text fill="rgb(170, 170, 170)" y="9" dy="-9" opacity="1" dominant-baseline="central" font-size="10" transform="translate(0, 15) rotate(-45)" dx="5" style="text-anchor: end; visibility: visible;">Oscar Niemeyer</text></g><g class="tick" opacity="1" transform="translate(1205.965087890625, 0)"><line stroke="#eeeeee" y2="6" stroke-dasharray="0"/><text fill="rgb(170, 170, 170)" y="9" dy="-9" opacity="1" dominant-baseline="central" font-size="10" transform="translate(0, 15) rotate(-45)" dx="5" style="text-anchor: end; visibility: visible;">Kenzo Tange</text></g><g class="tick" opacity="1" transform="translate(1240.406982421875, 0)"><line stroke="#eeeeee" y2="6" stroke-dasharray="0"/><text fill="rgb(170, 170, 170)" y="9" dy="-9" opacity="1" dominant-baseline="central" font-size="10" transform="translate(0, 15) rotate(-45)" dx="5" style="text-anchor: end; visibility: visible;">Gottfried Böhm</text></g><g class="tick" opacity="1" transform="translate(1274.848876953125, 0)"><line stroke="#eeeeee" y2="6" stroke-dasharray="0"/><text fill="rgb(170, 170, 170)" y="9" dy="-9" opacity="1" dominant-baseline="central" font-size="10" transform="translate(0, 15) rotate(-45)" dx="5" style="text-anchor: end; visibility: visible;">Hans Hollein</text></g><g class="tick" opacity="1" transform="translate(1309.2906494140625, 0)"><line stroke="#eeeeee" y2="6" stroke-dasharray="0"/><text fill="rgb(170, 170, 170)" y="9" dy="-9" opacity="1" dominant-baseline="central" font-size="10" transform="translate(0, 15) rotate(-45)" dx="5" style="text-anchor: end; visibility: visible;">Richard Meier</text></g><g class="tick" opacity="1" transform="translate(1343.7325439453125, 0)"><line stroke="#eeeeee" y2="6" stroke-dasharray="0"/><text fill="rgb(170, 170, 170)" y="9" dy="-9" opacity="1" dominant-baseline="central" font-size="10" transform="translate(0, 15) rotate(-45)" dx="5" style="text-anchor: end; visibility: visible;">Ieoh Ming Pei</text></g><g class="tick" opacity="1" transform="translate(1378.1744384765625, 0)"><line stroke="#eeeeee" y2="6" stroke-dasharray="0"/><text fill="rgb(170, 170, 170)" y="9" dy="-9" opacity="1" dominant-baseline="central" font-size="10" transform="translate(0, 15) rotate(-45)" dx="5" style="text-anchor: end; visibility: visible;">Kevin Roche</text></g><g class="tick" opacity="1" transform="translate(1412.6163330078125, 0)"><line stroke="#eeeeee" y2="6" stroke-dasharray="0"/><text fill="rgb(170, 170, 170)" y="9" dy="-9" opacity="1" dominant-baseline="central" font-size="10" transform="translate(0, 15) rotate(-45)" dx="5" style="text-anchor: end; visibility: visible;">James Stirling</text></g><g class="tick" opacity="1" transform="translate(1447.05810546875, 0)"><line stroke="#eeeeee" y2="6" stroke-dasharray="0"/><text fill="rgb(170, 170, 170)" y="9" dy="-9" opacity="1" dominant-baseline="central" font-size="10" transform="translate(0, 15) rotate(-45)" dx="5" style="text-anchor: end; visibility: visible;">Luis Barragán</text></g><g class="tick" opacity="1" transform="translate(1481.5, 0)"><line stroke="#eeeeee" y2="6" stroke-dasharray="0"/><text fill="rgb(170, 170, 170)" y="9" dy="-9" opacity="1" dominant-baseline="central" font-size="10" transform="translate(0, 15) rotate(-45)" dx="5" style="text-anchor: end; visibility: visible;">Philip Johnson</text></g></g></g></g></g></g><g class="annotations below"><g class="axis-highlights" transform="translate(45, 10)" style="opacity: 1;"/></g><g id="areas"><g class="series" pointer-events="none"><path class="area" transform="translate(45,10)" fill-opacity="0" fill="#1D6996" clip-path="url(#clip-0-0)" d="M0,217.15000000000003C11.480620155038759,219.675,22.96124031007752,222.2,34.44186046511628,222.2C45.922480620155035,222.2,57.4031007751938,212.10000000000002,68.88372093023256,212.10000000000002C80.36434108527132,212.10000000000002,91.84496124031007,252.5,103.32558139534883,252.5C114.8062015503876,252.5,126.28682170542635,45.44999999999999,137.7674418604651,45.44999999999999C149.24806201550388,45.44999999999999,160.72868217054264,212.10000000000002,172.2093023255814,212.10000000000002C183.68992248062017,212.10000000000002,195.1705426356589,136.35000000000002,206.65116279069767,136.35000000000002C218.13178294573643,136.35000000000002,229.61240310077517,252.5,241.09302325581393,252.5C252.5736434108527,252.5,264.05426356589146,202,275.5348837209302,202C287.015503875969,202,298.49612403100775,277.75,309.9767441860465,277.75C321.4573643410853,277.75,332.93798449612405,245.76666666666668,344.4186046511628,227.25C355.8992248062016,208.73333333333335,367.3798449612403,166.64999999999998,378.86046511627904,166.64999999999998C390.3410852713178,166.64999999999998,401.8217054263566,181.8,413.30232558139534,181.8C424.7829457364341,181.8,436.26356589147287,138.875,447.74418604651163,126.25C459.2248062015504,113.62500000000001,470.7054263565891,106.04999999999995,482.18604651162786,106.04999999999995C493.66666666666663,106.04999999999995,505.1472868217054,171.69999999999996,516.6279069767442,191.89999999999998C528.1085271317829,212.1,539.5891472868217,227.25,551.0697674418604,227.25C562.5503875968992,227.25,574.031007751938,70.69999999999999,585.5116279069767,70.69999999999999C596.9922480620155,70.69999999999999,608.4728682170543,138.0333333333333,619.953488372093,166.64999999999998C631.4341085271318,195.26666666666665,642.9147286821706,242.39999999999998,654.3953488372093,242.39999999999998C665.8759689922481,242.39999999999998,677.3565891472869,242.39999999999998,688.8372093023256,242.39999999999998C700.3178294573644,242.39999999999998,711.798449612403,228.09166666666667,723.2790697674418,217.15000000000003C734.7596899224806,206.20833333333337,746.2403100775193,176.75,757.7209302325581,176.75C769.2015503875969,176.75,780.6821705426356,191.89999999999998,792.1627906976744,191.89999999999998C803.6434108527131,191.89999999999998,815.1240310077519,131.3,826.6046511627907,131.3C838.0852713178294,131.3,849.5658914728682,186.00833333333333,861.046511627907,202C872.5271317829457,217.99166666666667,884.0077519379845,219.675,895.4883720930233,227.25C906.968992248062,234.825,918.4496124031008,247.45,929.9302325581396,247.45C941.4108527131783,247.45,952.891472868217,171.7,964.3720930232557,171.7C975.8527131782945,171.7,987.3333333333333,202,998.813953488372,202C1010.2945736434108,202,1021.7751937984495,166.64999999999998,1033.2558139534883,166.64999999999998C1044.7364341085272,166.64999999999998,1056.2170542635658,202,1067.6976744186047,202C1079.1782945736434,202,1090.6589147286822,200.31666666666666,1102.139534883721,196.95C1113.6201550387595,193.58333333333331,1125.1007751937984,107.73333333333326,1136.581395348837,101C1148.062015503876,94.2666666666667,1159.5426356589146,90.90000000000003,1171.0232558139535,90.90000000000003C1182.5038759689921,90.90000000000003,1193.984496124031,113.62500000000006,1205.4651162790697,126.25C1216.9457364341085,138.87500000000003,1228.4263565891472,147.29166666666654,1239.906976744186,166.64999999999998C1251.3875968992247,186.00833333333327,1262.8682170542636,239.03333333333333,1274.3488372093022,242.39999999999998C1285.8294573643411,245.76666666666665,1297.3100775193798,247.45,1308.7906976744187,247.45C1320.2713178294573,247.45,1331.7519379844962,166.64999999999998,1343.2325581395348,166.64999999999998C1354.7131782945737,166.64999999999998,1366.1937984496124,187.69166666666663,1377.6744186046512,196.95C1389.15503875969,206.2083333333333,1400.6356589147288,222.2,1412.1162790697674,222.2C1423.596899224806,222.2,1435.077519379845,106.04999999999995,1446.5581395348836,106.04999999999995C1458.0387596899225,106.04999999999995,1469.5193798449611,118.67499999999998,1481,131.3L1481,131.3C1469.5193798449611,118.67499999999998,1458.0387596899225,106.04999999999995,1446.5581395348836,106.04999999999995C1435.077519379845,106.04999999999995,1423.596899224806,222.2,1412.1162790697674,222.2C1400.6356589147288,222.2,1389.15503875969,206.2083333333333,1377.6744186046512,196.95C1366.1937984496124,187.69166666666663,1354.7131782945737,166.64999999999998,1343.2325581395348,166.64999999999998C1331.7519379844962,166.64999999999998,1320.2713178294573,247.45,1308.7906976744187,247.45C1297.3100775193798,247.45,1285.8294573643411,245.76666666666665,1274.3488372093022,242.39999999999998C1262.8682170542636,239.03333333333333,1251.3875968992247,186.00833333333327,1239.906976744186,166.64999999999998C1228.4263565891472,147.29166666666654,1216.9457364341085,138.87500000000003,1205.4651162790697,126.25C1193.984496124031,113.62500000000006,1182.5038759689921,90.90000000000003,1171.0232558139535,90.90000000000003C1159.5426356589146,90.90000000000003,1148.062015503876,94.2666666666667,1136.581395348837,101C1125.1007751937984,107.73333333333326,1113.6201550387595,193.58333333333331,1102.139534883721,196.95C1090.6589147286822,200.31666666666666,1079.1782945736434,202,1067.6976744186047,202C1056.2170542635658,202,1044.7364341085272,166.64999999999998,1033.2558139534883,166.64999999999998C1021.7751937984495,166.64999999999998,1010.2945736434108,202,998.813953488372,202C987.3333333333333,202,975.8527131782945,171.7,964.3720930232557,171.7C952.891472868217,171.7,941.4108527131783,247.45,929.9302325581396,247.45C918.4496124031008,247.45,906.968992248062,234.825,895.4883720930233,227.25C884.0077519379845,219.675,872.5271317829457,217.99166666666667,861.046511627907,202C849.5658914728682,186.00833333333333,838.0852713178294,131.3,826.6046511627907,131.3C815.1240310077519,131.3,803.6434108527131,191.89999999999998,792.1627906976744,191.89999999999998C780.6821705426356,191.89999999999998,769.2015503875969,176.75,757.7209302325581,176.75C746.2403100775193,176.75,734.7596899224806,206.20833333333337,723.2790697674418,217.15000000000003C711.798449612403,228.09166666666667,700.3178294573644,242.39999999999998,688.8372093023256,242.39999999999998C677.3565891472869,242.39999999999998,665.8759689922481,242.39999999999998,654.3953488372093,242.39999999999998C642.9147286821706,242.39999999999998,631.4341085271318,195.26666666666665,619.953488372093,166.64999999999998C608.4728682170543,138.0333333333333,596.9922480620155,70.69999999999999,585.5116279069767,70.69999999999999C574.031007751938,70.69999999999999,562.5503875968992,227.25,551.0697674418604,227.25C539.5891472868217,227.25,528.1085271317829,212.1,516.6279069767442,191.89999999999998C505.1472868217054,171.69999999999996,493.66666666666663,106.04999999999995,482.18604651162786,106.04999999999995C470.7054263565891,106.04999999999995,459.2248062015504,113.62500000000001,447.74418604651163,126.25C436.26356589147287,138.875,424.7829457364341,181.8,413.30232558139534,181.8C401.8217054263566,181.8,390.3410852713178,166.64999999999998,378.86046511627904,166.64999999999998C367.3798449612403,166.64999999999998,355.8992248062016,208.73333333333335,344.4186046511628,227.25C332.93798449612405,245.76666666666668,321.4573643410853,277.75,309.9767441860465,277.75C298.49612403100775,277.75,287.015503875969,202,275.5348837209302,202C264.05426356589146,202,252.5736434108527,252.5,241.09302325581393,252.5C229.61240310077517,252.5,218.13178294573643,136.35000000000002,206.65116279069767,136.35000000000002C195.1705426356589,136.35000000000002,183.68992248062017,212.10000000000002,172.2093023255814,212.10000000000002C160.72868217054264,212.10000000000002,149.24806201550388,45.44999999999999,137.7674418604651,45.44999999999999C126.28682170542635,45.44999999999999,114.8062015503876,252.5,103.32558139534883,252.5C91.84496124031007,252.5,80.36434108527132,212.10000000000002,68.88372093023256,212.10000000000002C57.4031007751938,212.10000000000002,45.922480620155035,222.2,34.44186046511628,222.2C22.96124031007752,222.2,11.480620155038759,219.675,0,217.15000000000003Z"/></g></g><g id="lines"><g class="series"><clipPath id="clip-0-0"><rect width="1481" y="-10" height="615"/></clipPath><path class="line" opacity="1" fill="none" stroke="#1D6996" stroke-width="2" transform="translate(45,10)" clip-path="url(#clip-0-0)" d="M0,217.15000000000003C11.480620155038759,219.675,22.96124031007752,222.2,34.44186046511628,222.2C45.922480620155035,222.2,57.4031007751938,212.10000000000002,68.88372093023256,212.10000000000002C80.36434108527132,212.10000000000002,91.84496124031007,252.5,103.32558139534883,252.5C114.8062015503876,252.5,126.28682170542635,45.44999999999999,137.7674418604651,45.44999999999999C149.24806201550388,45.44999999999999,160.72868217054264,212.10000000000002,172.2093023255814,212.10000000000002C183.68992248062017,212.10000000000002,195.1705426356589,136.35000000000002,206.65116279069767,136.35000000000002C218.13178294573643,136.35000000000002,229.61240310077517,252.5,241.09302325581393,252.5C252.5736434108527,252.5,264.05426356589146,202,275.5348837209302,202C287.015503875969,202,298.49612403100775,277.75,309.9767441860465,277.75C321.4573643410853,277.75,332.93798449612405,245.76666666666668,344.4186046511628,227.25C355.8992248062016,208.73333333333335,367.3798449612403,166.64999999999998,378.86046511627904,166.64999999999998C390.3410852713178,166.64999999999998,401.8217054263566,181.8,413.30232558139534,181.8C424.7829457364341,181.8,436.26356589147287,138.875,447.74418604651163,126.25C459.2248062015504,113.62500000000001,470.7054263565891,106.04999999999995,482.18604651162786,106.04999999999995C493.66666666666663,106.04999999999995,505.1472868217054,171.69999999999996,516.6279069767442,191.89999999999998C528.1085271317829,212.1,539.5891472868217,227.25,551.0697674418604,227.25C562.5503875968992,227.25,574.031007751938,70.69999999999999,585.5116279069767,70.69999999999999C596.9922480620155,70.69999999999999,608.4728682170543,138.0333333333333,619.953488372093,166.64999999999998C631.4341085271318,195.26666666666665,642.9147286821706,242.39999999999998,654.3953488372093,242.39999999999998C665.8759689922481,242.39999999999998,677.3565891472869,242.39999999999998,688.8372093023256,242.39999999999998C700.3178294573644,242.39999999999998,711.798449612403,228.09166666666667,723.2790697674418,217.15000000000003C734.7596899224806,206.20833333333337,746.2403100775193,176.75,757.7209302325581,176.75C769.2015503875969,176.75,780.6821705426356,191.89999999999998,792.1627906976744,191.89999999999998C803.6434108527131,191.89999999999998,815.1240310077519,131.3,826.6046511627907,131.3C838.0852713178294,131.3,849.5658914728682,186.00833333333333,861.046511627907,202C872.5271317829457,217.99166666666667,884.0077519379845,219.675,895.4883720930233,227.25C906.968992248062,234.825,918.4496124031008,247.45,929.9302325581396,247.45C941.4108527131783,247.45,952.891472868217,171.7,964.3720930232557,171.7C975.8527131782945,171.7,987.3333333333333,202,998.813953488372,202C1010.2945736434108,202,1021.7751937984495,166.64999999999998,1033.2558139534883,166.64999999999998C1044.7364341085272,166.64999999999998,1056.2170542635658,202,1067.6976744186047,202C1079.1782945736434,202,1090.6589147286822,200.31666666666666,1102.139534883721,196.95C1113.6201550387595,193.58333333333331,1125.1007751937984,107.73333333333326,1136.581395348837,101C1148.062015503876,94.2666666666667,1159.5426356589146,90.90000000000003,1171.0232558139535,90.90000000000003C1182.5038759689921,90.90000000000003,1193.984496124031,113.62500000000006,1205.4651162790697,126.25C1216.9457364341085,138.87500000000003,1228.4263565891472,147.29166666666654,1239.906976744186,166.64999999999998C1251.3875968992247,186.00833333333327,1262.8682170542636,239.03333333333333,1274.3488372093022,242.39999999999998C1285.8294573643411,245.76666666666665,1297.3100775193798,247.45,1308.7906976744187,247.45C1320.2713178294573,247.45,1331.7519379844962,166.64999999999998,1343.2325581395348,166.64999999999998C1354.7131782945737,166.64999999999998,1366.1937984496124,187.69166666666663,1377.6744186046512,196.95C1389.15503875969,206.2083333333333,1400.6356589147288,222.2,1412.1162790697674,222.2C1423.596899224806,222.2,1435.077519379845,106.04999999999995,1446.5581395348836,106.04999999999995C1458.0387596899225,106.04999999999995,1469.5193798449611,118.67499999999998,1481,131.3"/><text class="label" font-size="11" alignment-baseline="middle" opacity="1" x="5" fill="#1D6996" transform="translate(1526, 141.3000030517578)"/></g></g><g id="data-points"><g class="series" transform="translate(45,10)"><path class="data-point" fill="#1D6996" data-type="point" transform="translate(0, 0)" d="M-3,217.15000000000003A3,3,0,1,1,3,217.15000000000003A3,3,0,1,1,-3,217.15000000000003Z" id="point-0-0" opacity="1"/><path class="data-point" fill="#1D6996" data-type="point" transform="translate(0, 0)" d="M31.441860465116278,222.2A3,3,0,1,1,37.44186046511628,222.2A3,3,0,1,1,31.441860465116278,222.2Z" id="point-0-1" opacity="1"/><path class="data-point" fill="#1D6996" data-type="point" transform="translate(0, 0)" d="M65.88372093023256,212.10000000000002A3,3,0,1,1,71.88372093023256,212.10000000000002A3,3,0,1,1,65.88372093023256,212.10000000000002Z" id="point-0-2" opacity="1"/><path class="data-point" fill="#1D6996" data-type="point" transform="translate(0, 0)" d="M100.32558139534883,252.5A3,3,0,1,1,106.32558139534883,252.5A3,3,0,1,1,100.32558139534883,252.5Z" id="point-0-3" opacity="1"/><path class="data-point" fill="#1D6996" data-type="point" transform="translate(0, 0)" d="M134.7674418604651,45.44999999999999A3,3,0,1,1,140.7674418604651,45.44999999999999A3,3,0,1,1,134.7674418604651,45.44999999999999Z" id="point-0-4" opacity="1"/><path class="data-point" fill="#1D6996" data-type="point" transform="translate(0, 0)" d="M169.2093023255814,212.10000000000002A3,3,0,1,1,175.2093023255814,212.10000000000002A3,3,0,1,1,169.2093023255814,212.10000000000002Z" id="point-0-5" opacity="1"/><path class="data-point" fill="#1D6996" data-type="point" transform="translate(0, 0)" d="M203.65116279069767,136.35000000000002A3,3,0,1,1,209.65116279069767,136.35000000000002A3,3,0,1,1,203.65116279069767,136.35000000000002Z" id="point-0-6" opacity="1"/><path class="data-point" fill="#1D6996" data-type="point" transform="translate(0, 0)" d="M238.09302325581393,252.5A3,3,0,1,1,244.09302325581393,252.5A3,3,0,1,1,238.09302325581393,252.5Z" id="point-0-7" opacity="1"/><path class="data-point" fill="#1D6996" data-type="point" transform="translate(0, 0)" d="M272.5348837209302,202A3,3,0,1,1,278.5348837209302,202A3,3,0,1,1,272.5348837209302,202Z" id="point-0-8" opacity="1"/><path class="data-point" fill="#1D6996" data-type="point" transform="translate(0, 0)" d="M306.9767441860465,277.75A3,3,0,1,1,312.9767441860465,277.75A3,3,0,1,1,306.9767441860465,277.75Z" id="point-0-9" opacity="1"/><path class="data-point" fill="#1D6996" data-type="point" transform="translate(0, 0)" d="M341.4186046511628,227.25A3,3,0,1,1,347.4186046511628,227.25A3,3,0,1,1,341.4186046511628,227.25Z" id="point-0-10" opacity="1"/><path class="data-point" fill="#1D6996" data-type="point" transform="translate(0, 0)" d="M375.86046511627904,166.64999999999998A3,3,0,1,1,381.86046511627904,166.64999999999998A3,3,0,1,1,375.86046511627904,166.64999999999998Z" id="point-0-11" opacity="1"/><path class="data-point" fill="#1D6996" data-type="point" transform="translate(0, 0)" d="M410.30232558139534,181.8A3,3,0,1,1,416.30232558139534,181.8A3,3,0,1,1,410.30232558139534,181.8Z" id="point-0-12" opacity="1"/><path class="data-point" fill="#1D6996" data-type="point" transform="translate(0, 0)" d="M444.74418604651163,126.25A3,3,0,1,1,450.74418604651163,126.25A3,3,0,1,1,444.74418604651163,126.25Z" id="point-0-13" opacity="1"/><path class="data-point" fill="#1D6996" data-type="point" transform="translate(0, 0)" d="M479.18604651162786,106.04999999999995A3,3,0,1,1,485.18604651162786,106.04999999999995A3,3,0,1,1,479.18604651162786,106.04999999999995Z" id="point-0-14" opacity="1"/><path class="data-point" fill="#1D6996" data-type="point" transform="translate(0, 0)" d="M513.6279069767442,191.89999999999998A3,3,0,1,1,519.6279069767442,191.89999999999998A3,3,0,1,1,513.6279069767442,191.89999999999998Z" id="point-0-15" opacity="1"/><path class="data-point" fill="#1D6996" data-type="point" transform="translate(0, 0)" d="M548.0697674418604,227.25A3,3,0,1,1,554.0697674418604,227.25A3,3,0,1,1,548.0697674418604,227.25Z" id="point-0-16" opacity="1"/><path class="data-point" fill="#1D6996" data-type="point" transform="translate(0, 0)" d="M582.5116279069767,70.69999999999999A3,3,0,1,1,588.5116279069767,70.69999999999999A3,3,0,1,1,582.5116279069767,70.69999999999999Z" id="point-0-17" opacity="1"/><path class="data-point" fill="#1D6996" data-type="point" transform="translate(0, 0)" d="M616.953488372093,166.64999999999998A3,3,0,1,1,622.953488372093,166.64999999999998A3,3,0,1,1,616.953488372093,166.64999999999998Z" id="point-0-18" opacity="1"/><path class="data-point" fill="#1D6996" data-type="point" transform="translate(0, 0)" d="M651.3953488372093,242.39999999999998A3,3,0,1,1,657.3953488372093,242.39999999999998A3,3,0,1,1,651.3953488372093,242.39999999999998Z" id="point-0-19" opacity="1"/><path class="data-point" fill="#1D6996" data-type="point" transform="translate(0, 0)" d="M685.8372093023256,242.39999999999998A3,3,0,1,1,691.8372093023256,242.39999999999998A3,3,0,1,1,685.8372093023256,242.39999999999998Z" id="point-0-20" opacity="1"/><path class="data-point" fill="#1D6996" data-type="point" transform="translate(0, 0)" d="M720.2790697674418,217.15000000000003A3,3,0,1,1,726.2790697674418,217.15000000000003A3,3,0,1,1,720.2790697674418,217.15000000000003Z" id="point-0-21" opacity="1"/><path class="data-point" fill="#1D6996" data-type="point" transform="translate(0, 0)" d="M754.7209302325581,176.75A3,3,0,1,1,760.7209302325581,176.75A3,3,0,1,1,754.7209302325581,176.75Z" id="point-0-22" opacity="1"/><path class="data-point" fill="#1D6996" data-type="point" transform="translate(0, 0)" d="M789.1627906976744,191.89999999999998A3,3,0,1,1,795.1627906976744,191.89999999999998A3,3,0,1,1,789.1627906976744,191.89999999999998Z" id="point-0-23" opacity="1"/><path class="data-point" fill="#1D6996" data-type="point" transform="translate(0, 0)" d="M823.6046511627907,131.3A3,3,0,1,1,829.6046511627907,131.3A3,3,0,1,1,823.6046511627907,131.3Z" id="point-0-24" opacity="1"/><path class="data-point" fill="#1D6996" data-type="point" transform="translate(0, 0)" d="M858.046511627907,202A3,3,0,1,1,864.046511627907,202A3,3,0,1,1,858.046511627907,202Z" id="point-0-25" opacity="1"/><path class="data-point" fill="#1D6996" data-type="point" transform="translate(0, 0)" d="M892.4883720930233,227.25A3,3,0,1,1,898.4883720930233,227.25A3,3,0,1,1,892.4883720930233,227.25Z" id="point-0-26" opacity="1"/><path class="data-point" fill="#1D6996" data-type="point" transform="translate(0, 0)" d="M926.9302325581396,247.45A3,3,0,1,1,932.9302325581396,247.45A3,3,0,1,1,926.9302325581396,247.45Z" id="point-0-27" opacity="1"/><path class="data-point" fill="#1D6996" data-type="point" transform="translate(0, 0)" d="M961.3720930232557,171.7A3,3,0,1,1,967.3720930232557,171.7A3,3,0,1,1,961.3720930232557,171.7Z" id="point-0-28" opacity="1"/><path class="data-point" fill="#1D6996" data-type="point" transform="translate(0, 0)" d="M995.813953488372,202A3,3,0,1,1,1001.813953488372,202A3,3,0,1,1,995.813953488372,202Z" id="point-0-29" opacity="1"/><path class="data-point" fill="#1D6996" data-type="point" transform="translate(0, 0)" d="M1030.2558139534883,166.64999999999998A3,3,0,1,1,1036.2558139534883,166.64999999999998A3,3,0,1,1,1030.2558139534883,166.64999999999998Z" id="point-0-30" opacity="1"/><path class="data-point" fill="#1D6996" data-type="point" transform="translate(0, 0)" d="M1064.6976744186047,202A3,3,0,1,1,1070.6976744186047,202A3,3,0,1,1,1064.6976744186047,202Z" id="point-0-31" opacity="1"/><path class="data-point" fill="#1D6996" data-type="point" transform="translate(0, 0)" d="M1099.139534883721,196.95A3,3,0,1,1,1105.139534883721,196.95A3,3,0,1,1,1099.139534883721,196.95Z" id="point-0-32" opacity="1"/><path class="data-point" fill="#1D6996" data-type="point" transform="translate(0, 0)" d="M1133.581395348837,101A3,3,0,1,1,1139.581395348837,101A3,3,0,1,1,1133.581395348837,101Z" id="point-0-33" opacity="1"/><path class="data-point" fill="#1D6996" data-type="point" transform="translate(0, 0)" d="M1168.0232558139535,90.90000000000003A3,3,0,1,1,1174.0232558139535,90.90000000000003A3,3,0,1,1,1168.0232558139535,90.90000000000003Z" id="point-0-34" opacity="1"/><path class="data-point" fill="#1D6996" data-type="point" transform="translate(0, 0)" d="M1202.4651162790697,126.25A3,3,0,1,1,1208.4651162790697,126.25A3,3,0,1,1,1202.4651162790697,126.25Z" id="point-0-35" opacity="1"/><path class="data-point" fill="#1D6996" data-type="point" transform="translate(0, 0)" d="M1236.906976744186,166.64999999999998A3,3,0,1,1,1242.906976744186,166.64999999999998A3,3,0,1,1,1236.906976744186,166.64999999999998Z" id="point-0-36" opacity="1"/><path class="data-point" fill="#1D6996" data-type="point" transform="translate(0, 0)" d="M1271.3488372093022,242.39999999999998A3,3,0,1,1,1277.3488372093022,242.39999999999998A3,3,0,1,1,1271.3488372093022,242.39999999999998Z" id="point-0-37" opacity="1"/><path class="data-point" fill="#1D6996" data-type="point" transform="translate(0, 0)" d="M1305.7906976744187,247.45A3,3,0,1,1,1311.7906976744187,247.45A3,3,0,1,1,1305.7906976744187,247.45Z" id="point-0-38" opacity="1"/><path class="data-point" fill="#1D6996" data-type="point" transform="translate(0, 0)" d="M1340.2325581395348,166.64999999999998A3,3,0,1,1,1346.2325581395348,166.64999999999998A3,3,0,1,1,1340.2325581395348,166.64999999999998Z" id="point-0-39" opacity="1"/><path class="data-point" fill="#1D6996" data-type="point" transform="translate(0, 0)" d="M1374.6744186046512,196.95A3,3,0,1,1,1380.6744186046512,196.95A3,3,0,1,1,1374.6744186046512,196.95Z" id="point-0-40" opacity="1"/><path class="data-point" fill="#1D6996" data-type="point" transform="translate(0, 0)" d="M1409.1162790697674,222.2A3,3,0,1,1,1415.1162790697674,222.2A3,3,0,1,1,1409.1162790697674,222.2Z" id="point-0-41" opacity="1"/><path class="data-point" fill="#1D6996" data-type="point" transform="translate(0, 0)" d="M1443.5581395348836,106.04999999999995A3,3,0,1,1,1449.5581395348836,106.04999999999995A3,3,0,1,1,1443.5581395348836,106.04999999999995Z" id="point-0-42" opacity="1"/><path class="data-point" fill="#1D6996" data-type="point" transform="translate(0, 0)" d="M1478,131.3A3,3,0,1,1,1484,131.3A3,3,0,1,1,1478,131.3Z" id="point-0-43" opacity="1"/></g></g><g id="data-labels"/><g class="annotations above"><g class="axis-highlights" transform="translate(45, 10)" style="opacity: 1;"/></g></svg>