<svg xmlns="http://www.w3.org/2000/svg" id="graphic" width="1536" height="650"><g id="facets"><g class="facet" transform="translate(45,10)" opacity="1"><text class="facet-title" y="0" font-size="16" font-weight="bold" dominant-baseline="middle" x="0" clip-path="url(#facet-clip-0)" fill="black"/><g class="plot"><clipPath class="facet-clip" id="facet-clip-0"><rect width="1496" height="525" transform="translate(-7.5,-10)"/></clipPath><g class="bg"><rect fill="none" width="1481" height="505" style="fill: none;"/></g><g class="interaction"><g class="series"><path data-target="point-0-0" d="M0,131.9799063845722L60.25758230191587,120.50485435549061L82.20715341392453,107.59624728262975L85.4357673344685,0L0,0Z" style="opacity: 0;"/><path data-target="point-0-1" d="M0,475.19297884291655L21.266548172964846,414.4450851900418L61.96089033028795,143.21051769331478L60.25758230191587,120.50485435549061L0,131.9799063845722Z" style="opacity: 0;"/><path data-target="point-0-2" d="M21.266548172964846,414.4450851900418L94.51636405614633,251.70434469200558L61.96089033028795,143.21051769331478Z" style="opacity: 0;"/><path data-target="point-0-3" d="M60.25758230191587,120.50485435549061L61.96089033028795,143.21051769331478L94.51636405614633,251.70434469200558L151.46590899999998,204.25706955156596L151.465909,144.31254063283149L145.10281386728607,133.00291705406445L82.20715341392453,107.59624728262975Z" style="opacity: 0;"/><path data-target="point-0-4" d="M201.9545455,505L201.95454549999997,288.38586089686805L151.46590899999998,204.25706955156596L94.51636405614633,251.70434469200558L21.266548172964846,414.4450851900418L0,475.19297884291655L0,505Z" style="opacity: 0;"/><path data-target="point-0-5" d="M82.20715341392453,107.59624728262975L145.10281386728607,133.00291705406445L324.6971668432594,0L85.4357673344685,0Z" style="opacity: 0;"/><path data-target="point-0-6" d="M151.465909,144.31254063283149L151.46590899999998,204.25706955156596L201.95454549999997,288.38586089686805L252.20373354532518,204.65605925856548L250.5727730414315,188.3501242037248Z" style="opacity: 0;"/><path data-target="point-0-7" d="M145.10281386728607,133.00291705406445L151.465909,144.31254063283149L250.5727730414315,188.3501242037248L327.2900350847958,109.68345841885217L347.0375011710975,0L324.6971668432594,0Z" style="opacity: 0;"/><path data-target="point-0-8" d="M201.95454549999997,288.38586089686805L201.9545455,505L212.95844720992136,505L310.93096626295727,243.79873787680225L252.20373354532518,204.65605925856548Z" style="opacity: 0;"/><path data-target="point-0-9" d="M250.5727730414315,188.3501242037248L252.20373354532518,204.65605925856548L310.93096626295727,243.79873787680225L328.5917607370427,235.95126212319775L350.78242574418624,176.78947100827008L327.2900350847958,109.68345841885217Z" style="opacity: 0;"/><path data-target="point-0-10" d="M508.51704800568234,505L471.22727249999997,331.02020608876114L328.5917607370427,235.95126212319775L310.93096626295727,243.79873787680225L212.95844720992136,505Z" style="opacity: 0;"/><path data-target="point-0-11" d="M328.5917607370427,235.95126212319775L471.22727249999997,331.02020608876114L471.22727249999997,304.23319789056166L405.82397699867073,207.36122979467038L350.78242574418624,176.78947100827008Z" style="opacity: 0;"/><path data-target="point-0-12" d="M327.2900350847958,109.68345841885217L350.78242574418624,176.78947100827008L405.82397699867073,207.36122979467038L435.09504919957317,142.32903950571028L349.6784050597968,4.440892098500626e-16L347.0375011710975,0Z" style="opacity: 0;"/><path data-target="point-0-13" d="M405.82397699867073,207.36122979467038L471.22727249999997,304.23319789056166L478.4584185339952,282.8124013594507L489.229067019815,175.1301525931476L435.09504919957317,142.32903950571028Z" style="opacity: 0;"/><path data-target="point-0-14" d="M349.6784050597968,4.440892098500626e-16L435.09504919957317,142.32903950571028L489.229067019815,175.1301525931476L510.4152337838956,153.40564032952642L418.35113334052846,0Z" style="opacity: 0;"/><path data-target="point-0-15" d="M418.35113334052846,0L510.4152337838956,153.40564032952642L569.9670661176459,130.05723562669075L524.4367879833394,0Z" style="opacity: 0;"/><path data-target="point-0-16" d="M478.4584185339952,282.8124013594507L588.6808353444408,177.86229534982422L577.817173041669,134.41742472554176L569.9670661176459,130.05723562669075L510.4152337838956,153.40564032952642L489.229067019815,175.1301525931476Z" style="opacity: 0;"/><path data-target="point-0-17" d="M471.22727249999997,304.23319789056166L471.22727249999997,331.02020608876114L508.51704800568234,505L582.1578102387857,505L625.1596995841245,218.38524620857544L588.6808353444408,177.86229534982422L478.4584185339952,282.8124013594507Z" style="opacity: 0;"/><path data-target="point-0-18" d="M524.4367879833394,0L569.9670661176459,130.05723562669075L577.817173041669,134.41742472554176L713.2004492818197,86.92520987566817L737.0077777570164,49.14430296319601L749.6477284724738,0Z" style="opacity: 0;"/><path data-target="point-0-19" d="M577.817173041669,134.41742472554176L588.6808353444408,177.86229534982422L625.1596995841245,218.38524620857544L690.0113635,189.56877020532954L692.1099425370427,187.70378636959327L708.0280746979674,155.87468583763717L713.2004492818197,86.92520987566817Z" style="opacity: 0;"/><path data-target="point-0-20" d="M690.0113635,505L690.0113635,189.56877020532954L625.1596995841245,218.38524620857544L582.1578102387857,505Z" style="opacity: 0;"/><path data-target="point-0-21" d="M690.0113635,189.56877020532954L690.0113635,505L819.0734369364147,505L821.0761993195132,411.55878670775087L816.7470014495201,353.84913717780853L692.1099425370427,187.70378636959327Z" style="opacity: 0;"/><path data-target="point-0-22" d="M692.1099425370427,187.70378636959327L816.7470014495201,353.84913717780853L818.5982075406977,323.00264495864934L777.6761362771065,213.90167699273232L708.0280746979674,155.87468583763717Z" style="opacity: 0;"/><path data-target="point-0-23" d="M708.0280746979674,155.87468583763717L777.6761362771065,213.90167699273232L805.9032960013292,151.1887702053296L737.0077777570164,49.14430296319601L713.2004492818197,86.92520987566817Z" style="opacity: 0;"/><path data-target="point-0-24" d="M777.6761362771065,213.90167699273232L818.5982075406977,323.00264495864934L825.5403054774707,303.17254259502084L845.0784095948123,172.94782488154058L805.9032960013292,151.1887702053296Z" style="opacity: 0;"/><path data-target="point-0-25" d="M737.0077777570164,49.14430296319601L805.9032960013292,151.1887702053296L845.0784095948123,172.94782488154058L911.9065337575784,141.13206939987384L954.2556842894812,0L749.6477284724738,0Z" style="opacity: 0;"/><path data-target="point-0-26" d="M825.5403054774707,303.17254259502084L921.9612422594421,174.64022237919428L911.9065337575784,141.13206939987384L845.0784095948123,172.94782488154058Z" style="opacity: 0;"/><path data-target="point-0-27" d="M816.7470014495201,353.84913717780853L821.0761993195132,411.55878670775087L945.8706648951281,203.61481896955632L921.9612422594421,174.64022237919428L825.5403054774707,303.17254259502084L818.5982075406977,323.00264495864934Z" style="opacity: 0;"/><path data-target="point-0-28" d="M1104.3868295466195,505L1043.431818,324.43319863113584L968.7140817476262,213.76516413905026L945.8706648951281,203.61481896955632L821.0761993195132,411.55878670775087L819.0734369364147,505Z" style="opacity: 0;"/><path data-target="point-0-29" d="M911.9065337575784,141.13206939987384L921.9612422594421,174.64022237919428L945.8706648951281,203.61481896955632L968.7140817476262,213.76516413905026L1009.7020758313954,168.2331963907649L997.081746278031,0L954.2556842894812,0Z" style="opacity: 0;"/><path data-target="point-0-30" d="M968.7140817476262,213.76516413905026L1043.431818,324.43319863113584L1043.431818,200.34953192286116L1009.7020758313954,168.2331963907649Z" style="opacity: 0;"/><path data-target="point-0-31" d="M997.081746278031,0L1009.7020758313954,168.2331963907649L1043.431818,200.34953192286116L1087.7241830864825,158.17581913499308L1096.735582925684,138.15499225545076L1006.9146264658046,0Z" style="opacity: 0;"/><path data-target="point-0-32" d="M1043.431818,200.34953192286116L1043.431818,324.43319863113584L1104.3868295466195,505L1121.4954520155015,505L1131.9320618336499,452.82869312863073L1087.7241830864825,158.17581913499308Z" style="opacity: 0;"/><path data-target="point-0-33" d="M1087.7241830864825,158.17581913499308L1131.9320618336499,452.82869312863073L1190.3673170575735,236.45052226061446L1179.3406697386777,187.4542284610614L1160.4799480715246,160.51640327349224L1096.735582925684,138.15499225545076Z" style="opacity: 0;"/><path data-target="point-0-34" d="M1006.9146264658046,0L1096.735582925684,138.15499225545076L1160.4799480715246,160.51640327349224L1171.6649308533592,130.69649410222837L1132.4471578471748,0Z" style="opacity: 0;"/><path data-target="point-0-35" d="M1132.4471578471748,0L1171.6649308533592,130.69649410222837L1308.927136375005,0Z" style="opacity: 0;"/><path data-target="point-0-36" d="M1160.4799480715246,160.51640327349224L1179.3406697386777,187.4542284610614L1295.875,90.364138686559L1320.3348486800858,8.84965685940297L1319.5761359349544,0L1308.927136375005,0L1171.6649308533592,130.69649410222837Z" style="opacity: 0;"/><path data-target="point-0-37" d="M1179.3406697386777,187.4542284610614L1190.3673170575735,236.45052226061446L1295.875,189.56877042750182L1295.875,90.364138686559Z" style="opacity: 0;"/><path data-target="point-0-38" d="M1256.8549685612415,504.99999999999994L1303.203208993362,196.08126810962693L1295.875,189.56877042750182L1190.3673170575735,236.45052226061446L1131.9320618336499,452.82869312863073L1121.4954520155015,505Z" style="opacity: 0;"/><path data-target="point-0-39" d="M1430.752133602024,505L1366.8725136821013,249.53901703800832L1337.482436881153,210.36106576909344L1303.203208993362,196.08126810962693L1256.8549685612415,504.99999999999994Z" style="opacity: 0;"/><path data-target="point-0-40" d="M1295.875,90.364138686559L1295.875,189.56877042750182L1303.203208993362,196.08126810962693L1337.482436881153,210.36106576909344L1399.7543187026586,141.18565530799444L1320.3348486800858,8.84965685940297Z" style="opacity: 0;"/><path data-target="point-0-41" d="M1337.482436881153,210.36106576909344L1366.8725136821013,249.53901703800832L1430.7138297198335,164.4364164014226L1430.3088972801665,163.8135835985774L1399.7543187026586,141.18565530799444Z" style="opacity: 0;"/><path data-target="point-0-42" d="M1366.8725136821013,249.53901703800832L1430.752133602024,505L1481,505L1481,201.67704965778398L1430.7138297198335,164.4364164014226Z" style="opacity: 0;"/><path data-target="point-0-43" d="M1319.5761359349544,0L1320.3348486800858,8.84965685940297L1399.7543187026586,141.18565530799444L1430.3088972801665,163.8135835985774L1481,96.24065530799434L1481,0Z" style="opacity: 0;"/><path data-target="point-0-44" d="M1430.3088972801665,163.8135835985774L1430.7138297198335,164.4364164014226L1481,201.67704965778398L1481,96.24065530799434Z" style="opacity: 0;"/></g></g><g class="axes"><g class="y axis" fill="none" font-size="10" font-family="sans-serif" text-anchor="end"><path class="domain" stroke="#eeeeee" d="M0.5,505.5V0.5" stroke-dasharray="0" style="visibility: hidden;"/><g class="tick" opacity="1" transform="translate(0, 505.5)" style="visibility: visible;"><line stroke="#eeeeee" x2="1481" stroke-dasharray="0"/><text fill="rgb(170, 170, 170)" x="-3" dy="0.33em" opacity="1" text-anchor="end" font-size="10">0</text></g><g class="tick" opacity="1" transform="translate(0, 455)" style="visibility: visible;"><line stroke="#eeeeee" x2="1481" stroke-dasharray="0"/><text fill="rgb(170, 170, 170)" x="-3" dy="0.33em" opacity="1" text-anchor="end" font-size="10">10</text></g><g class="tick" opacity="1" transform="translate(0, 404.5)" style="visibility: visible;"><line stroke="#eeeeee" x2="1481" stroke-dasharray="0"/><text fill="rgb(170, 170, 170)" x="-3" dy="0.33em" opacity="1" text-anchor="end" font-size="10">20</text></g><g class="tick" opacity="1" transform="translate(0, 354)" style="visibility: visible;"><line stroke="#eeeeee" x2="1481" stroke-dasharray="0"/><text fill="rgb(170, 170, 170)" x="-3" dy="0.33em" opacity="1" text-anchor="end" font-size="10">30</text></g><g class="tick" opacity="1" transform="translate(0, 303.5)" style="visibility: visible;"><line stroke="#eeeeee" x2="1481" stroke-dasharray="0"/><text fill="rgb(170, 170, 170)" x="-3" dy="0.33em" opacity="1" text-anchor="end" font-size="10">40</text></g><g class="tick" opacity="1" transform="translate(0, 253)" style="visibility: visible;"><line stroke="#eeeeee" x2="1481" stroke-dasharray="0"/><text fill="rgb(170, 170, 170)" x="-3" dy="0.33em" opacity="1" text-anchor="end" font-size="10">50</text></g><g class="tick" opacity="1" transform="translate(0, 202.5)" style="visibility: visible;"><line stroke="#eeeeee" x2="1481" stroke-dasharray="0"/><text fill="rgb(170, 170, 170)" x="-3" dy="0.33em" opacity="1" text-anchor="end" font-size="10">60</text></g><g class="tick" opacity="1" transform="translate(0, 152)" style="visibility: visible;"><line stroke="#eeeeee" x2="1481" stroke-dasharray="0"/><text fill="rgb(170, 170, 170)" x="-3" dy="0.33em" opacity="1" text-anchor="end" font-size="10">70</text></g><g class="tick" opacity="1" transform="translate(0, 101.5)" style="visibility: visible;"><line stroke="#eeeeee" x2="1481" stroke-dasharray="0"/><text fill="rgb(170, 170, 170)" x="-3" dy="0.33em" opacity="1" text-anchor="end" font-size="10">80</text></g><g class="tick" opacity="1" transform="translate(0, 51)" style="visibility: visible;"><line stroke="#eeeeee" x2="1481" stroke-dasharray="0"/><text fill="rgb(170, 170, 170)" x="-3" dy="0.33em" opacity="1" text-anchor="end" font-size="10">90</text></g><g class="tick" opacity="1" transform="translate(0, 0.5)" style="visibility: visible;"><line stroke="#eeeeee" x2="1481" stroke-dasharray="0"/><text fill="rgb(170, 170, 170)" x="-3" dy="0.33em" opacity="1" text-anchor="end" font-size="10">100</text></g></g><g class="x axis" transform="translate(0, 505)" fill="none" font-size="10" font-family="sans-serif" text-anchor="middle"><path class="domain" stroke="#eeeeee" d="M0.5,0.5H1481.5" stroke-dasharray="0"/><g class="tick" opacity="1" transform="translate(0.5,0)"><line stroke="#eeeeee" y2="6" stroke-dasharray="0"/><text fill="rgb(170, 170, 170)" y="9" dy="-9" opacity="1" dominant-baseline="central" font-size="10" transform="translate(0, 15) rotate(-45)" dx="5" style="text-anchor: end; visibility: visible;">Balkrishna Doshi</text></g><g class="tick" opacity="1" transform="translate(34.15909194946289, 0)"><line stroke="#eeeeee" y2="6" stroke-dasharray="0"/><text fill="rgb(170, 170, 170)" y="9" dy="-9" opacity="1" dominant-baseline="central" font-size="10" transform="translate(0, 15) rotate(-45)" dx="5" style="text-anchor: end; visibility: visible;">Rafael Aranda</text></g><g class="tick" opacity="1" transform="translate(67.81818389892578, 0)"><line stroke="#eeeeee" y2="6" stroke-dasharray="0"/><text fill="rgb(170, 170, 170)" y="9" dy="-9" opacity="1" dominant-baseline="central" font-size="10" transform="translate(0, 15) rotate(-45)" dx="5" style="text-anchor: end; visibility: visible;">Carme Pigem</text></g><g class="tick" opacity="1" transform="translate(101.4772720336914, 0)"><line stroke="#eeeeee" y2="6" stroke-dasharray="0"/><text fill="rgb(170, 170, 170)" y="9" dy="-9" opacity="1" dominant-baseline="central" font-size="10" transform="translate(0, 15) rotate(-45)" dx="5" style="text-anchor: end; visibility: visible;">Ramon Vilalta</text></g><g class="tick" opacity="1" transform="translate(135.13636779785156, 0)"><line stroke="#eeeeee" y2="6" stroke-dasharray="0"/><text fill="rgb(170, 170, 170)" y="9" dy="-9" opacity="1" dominant-baseline="central" font-size="10" transform="translate(0, 15) rotate(-45)" dx="5" style="text-anchor: end; visibility: visible;">Alejandro Aravena</text></g><g class="tick" opacity="1" transform="translate(168.7954559326172, 0)"><line stroke="#eeeeee" y2="6" stroke-dasharray="0"/><text fill="rgb(170, 170, 170)" y="9" dy="-9" opacity="1" dominant-baseline="central" font-size="10" transform="translate(0, 15) rotate(-45)" dx="5" style="text-anchor: end; visibility: visible;">Frei Otto</text></g><g class="tick" opacity="1" transform="translate(202.4545440673828, 0)"><line stroke="#eeeeee" y2="6" stroke-dasharray="0"/><text fill="rgb(170, 170, 170)" y="9" dy="-9" opacity="1" dominant-baseline="central" font-size="10" transform="translate(0, 15) rotate(-45)" dx="5" style="text-anchor: end; visibility: visible;">Shigeru Ban</text></g><g class="tick" opacity="1" transform="translate(236.11363220214844, 0)"><line stroke="#eeeeee" y2="6" stroke-dasharray="0"/><text fill="rgb(170, 170, 170)" y="9" dy="-9" opacity="1" dominant-baseline="central" font-size="10" transform="translate(0, 15) rotate(-45)" dx="5" style="text-anchor: end; visibility: visible;">Toyo Ito</text></g><g class="tick" opacity="1" transform="translate(269.7727355957031, 0)"><line stroke="#eeeeee" y2="6" stroke-dasharray="0"/><text fill="rgb(170, 170, 170)" y="9" dy="-9" opacity="1" dominant-baseline="central" font-size="10" transform="translate(0, 15) rotate(-45)" dx="5" style="text-anchor: end; visibility: visible;">Wang Shu</text></g><g class="tick" opacity="1" transform="translate(303.43182373046875, 0)"><line stroke="#eeeeee" y2="6" stroke-dasharray="0"/><text fill="rgb(170, 170, 170)" y="9" dy="-9" opacity="1" dominant-baseline="central" font-size="10" transform="translate(0, 15) rotate(-45)" dx="5" style="text-anchor: end; visibility: visible;">Eduardo Souto de Moura</text></g><g class="tick" opacity="1" transform="translate(337.0909118652344, 0)"><line stroke="#eeeeee" y2="6" stroke-dasharray="0"/><text fill="rgb(170, 170, 170)" y="9" dy="-9" opacity="1" dominant-baseline="central" font-size="10" transform="translate(0, 15) rotate(-45)" dx="5" style="text-anchor: end; visibility: visible;">Ryue Nishizawa</text></g><g class="tick" opacity="1" transform="translate(370.75, 0)"><line stroke="#eeeeee" y2="6" stroke-dasharray="0"/><text fill="rgb(170, 170, 170)" y="9" dy="-9" opacity="1" dominant-baseline="central" font-size="10" transform="translate(0, 15) rotate(-45)" dx="5" style="text-anchor: end; visibility: visible;">Kazuyo Sejima</text></g><g class="tick" opacity="1" transform="translate(404.4090881347656, 0)"><line stroke="#eeeeee" y2="6" stroke-dasharray="0"/><text fill="rgb(170, 170, 170)" y="9" dy="-9" opacity="1" dominant-baseline="central" font-size="10" transform="translate(0, 15) rotate(-45)" dx="5" style="text-anchor: end; visibility: visible;">Peter Zumthor</text></g><g class="tick" opacity="1" transform="translate(438.06817626953125, 0)"><line stroke="#eeeeee" y2="6" stroke-dasharray="0"/><text fill="rgb(170, 170, 170)" y="9" dy="-9" opacity="1" dominant-baseline="central" font-size="10" transform="translate(0, 15) rotate(-45)" dx="5" style="text-anchor: end; visibility: visible;">Jean Nouvel</text></g><g class="tick" opacity="1" transform="translate(471.7272644042969, 0)"><line stroke="#eeeeee" y2="6" stroke-dasharray="0"/><text fill="rgb(170, 170, 170)" y="9" dy="-9" opacity="1" dominant-baseline="central" font-size="10" transform="translate(0, 15) rotate(-45)" dx="5" style="text-anchor: end; visibility: visible;">Richard Rogers</text></g><g class="tick" opacity="1" transform="translate(505.3863525390625, 0)"><line stroke="#eeeeee" y2="6" stroke-dasharray="0"/><text fill="rgb(170, 170, 170)" y="9" dy="-9" opacity="1" dominant-baseline="central" font-size="10" transform="translate(0, 15) rotate(-45)" dx="5" style="text-anchor: end; visibility: visible;">Mendes da Rocha</text></g><g class="tick" opacity="1" transform="translate(539.0454711914062, 0)"><line stroke="#eeeeee" y2="6" stroke-dasharray="0"/><text fill="rgb(170, 170, 170)" y="9" dy="-9" opacity="1" dominant-baseline="central" font-size="10" transform="translate(0, 15) rotate(-45)" dx="5" style="text-anchor: end; visibility: visible;">Thom Mayne</text></g><g class="tick" opacity="1" transform="translate(572.7045288085938, 0)"><line stroke="#eeeeee" y2="6" stroke-dasharray="0"/><text fill="rgb(170, 170, 170)" y="9" dy="-9" opacity="1" dominant-baseline="central" font-size="10" transform="translate(0, 15) rotate(-45)" dx="5" style="text-anchor: end; visibility: visible;">Zaha Hadid</text></g><g class="tick" opacity="1" transform="translate(606.3636474609375, 0)"><line stroke="#eeeeee" y2="6" stroke-dasharray="0"/><text fill="rgb(170, 170, 170)" y="9" dy="-9" opacity="1" dominant-baseline="central" font-size="10" transform="translate(0, 15) rotate(-45)" dx="5" style="text-anchor: end; visibility: visible;">Jørn Utzon</text></g><g class="tick" opacity="1" transform="translate(640.022705078125, 0)"><line stroke="#eeeeee" y2="6" stroke-dasharray="0"/><text fill="rgb(170, 170, 170)" y="9" dy="-9" opacity="1" dominant-baseline="central" font-size="10" transform="translate(0, 15) rotate(-45)" dx="5" style="text-anchor: end; visibility: visible;">Glenn Murcutt</text></g><g class="tick" opacity="1" transform="translate(673.6818237304688, 0)"><line stroke="#eeeeee" y2="6" stroke-dasharray="0"/><text fill="rgb(170, 170, 170)" y="9" dy="-9" opacity="1" dominant-baseline="central" font-size="10" transform="translate(0, 15) rotate(-45)" dx="5" style="text-anchor: end; visibility: visible;">Pierre de Meuron</text></g><g class="tick" opacity="1" transform="translate(707.3408813476562, 0)"><line stroke="#eeeeee" y2="6" stroke-dasharray="0"/><text fill="rgb(170, 170, 170)" y="9" dy="-9" opacity="1" dominant-baseline="central" font-size="10" transform="translate(0, 15) rotate(-45)" dx="5" style="text-anchor: end; visibility: visible;">Jacques Herzog</text></g><g class="tick" opacity="1" transform="translate(741, 0)"><line stroke="#eeeeee" y2="6" stroke-dasharray="0"/><text fill="rgb(170, 170, 170)" y="9" dy="-9" opacity="1" dominant-baseline="central" font-size="10" transform="translate(0, 15) rotate(-45)" dx="5" style="text-anchor: end; visibility: visible;">Rem Koolhaas</text></g><g class="tick" opacity="1" transform="translate(774.6591186523438, 0)"><line stroke="#eeeeee" y2="6" stroke-dasharray="0"/><text fill="rgb(170, 170, 170)" y="9" dy="-9" opacity="1" dominant-baseline="central" font-size="10" transform="translate(0, 15) rotate(-45)" dx="5" style="text-anchor: end; visibility: visible;">Norman Foster</text></g><g class="tick" opacity="1" transform="translate(808.3181762695312, 0)"><line stroke="#eeeeee" y2="6" stroke-dasharray="0"/><text fill="rgb(170, 170, 170)" y="9" dy="-9" opacity="1" dominant-baseline="central" font-size="10" transform="translate(0, 15) rotate(-45)" dx="5" style="text-anchor: end; visibility: visible;">Renzo Piano</text></g><g class="tick" opacity="1" transform="translate(841.977294921875, 0)"><line stroke="#eeeeee" y2="6" stroke-dasharray="0"/><text fill="rgb(170, 170, 170)" y="9" dy="-9" opacity="1" dominant-baseline="central" font-size="10" transform="translate(0, 15) rotate(-45)" dx="5" style="text-anchor: end; visibility: visible;">Sverre Fehn</text></g><g class="tick" opacity="1" transform="translate(875.6363525390625, 0)"><line stroke="#eeeeee" y2="6" stroke-dasharray="0"/><text fill="rgb(170, 170, 170)" y="9" dy="-9" opacity="1" dominant-baseline="central" font-size="10" transform="translate(0, 15) rotate(-45)" dx="5" style="text-anchor: end; visibility: visible;">José Rafael Moneo</text></g><g class="tick" opacity="1" transform="translate(909.2954711914062, 0)"><line stroke="#eeeeee" y2="6" stroke-dasharray="0"/><text fill="rgb(170, 170, 170)" y="9" dy="-9" opacity="1" dominant-baseline="central" font-size="10" transform="translate(0, 15) rotate(-45)" dx="5" style="text-anchor: end; visibility: visible;">Tadao Ando</text></g><g class="tick" opacity="1" transform="translate(942.9545288085938, 0)"><line stroke="#eeeeee" y2="6" stroke-dasharray="0"/><text fill="rgb(170, 170, 170)" y="9" dy="-9" opacity="1" dominant-baseline="central" font-size="10" transform="translate(0, 15) rotate(-45)" dx="5" style="text-anchor: end; visibility: visible;">Christian de Portzamparc</text></g><g class="tick" opacity="1" transform="translate(976.6136474609375, 0)"><line stroke="#eeeeee" y2="6" stroke-dasharray="0"/><text fill="rgb(170, 170, 170)" y="9" dy="-9" opacity="1" dominant-baseline="central" font-size="10" transform="translate(0, 15) rotate(-45)" dx="5" style="text-anchor: end; visibility: visible;">Fumihiko Maki</text></g><g class="tick" opacity="1" transform="translate(1010.272705078125, 0)"><line stroke="#eeeeee" y2="6" stroke-dasharray="0"/><text fill="rgb(170, 170, 170)" y="9" dy="-9" opacity="1" dominant-baseline="central" font-size="10" transform="translate(0, 15) rotate(-45)" dx="5" style="text-anchor: end; visibility: visible;">Alvaro Joaquim de Meio Siza Vieira</text></g><g class="tick" opacity="1" transform="translate(1043.9317626953125, 0)"><line stroke="#eeeeee" y2="6" stroke-dasharray="0"/><text fill="rgb(170, 170, 170)" y="9" dy="-9" opacity="1" dominant-baseline="central" font-size="10" transform="translate(0, 15) rotate(-45)" dx="5" style="text-anchor: end; visibility: visible;">Robert Venturi</text></g><g class="tick" opacity="1" transform="translate(1077.5909423828125, 0)"><line stroke="#eeeeee" y2="6" stroke-dasharray="0"/><text fill="rgb(170, 170, 170)" y="9" dy="-9" opacity="1" dominant-baseline="central" font-size="10" transform="translate(0, 15) rotate(-45)" dx="5" style="text-anchor: end; visibility: visible;">Aldo Rossi</text></g><g class="tick" opacity="1" transform="translate(1111.25, 0)"><line stroke="#eeeeee" y2="6" stroke-dasharray="0"/><text fill="rgb(170, 170, 170)" y="9" dy="-9" opacity="1" dominant-baseline="central" font-size="10" transform="translate(0, 15) rotate(-45)" dx="5" style="text-anchor: end; visibility: visible;">Frank Gehry</text></g><g class="tick" opacity="1" transform="translate(1144.9090576171875, 0)"><line stroke="#eeeeee" y2="6" stroke-dasharray="0"/><text fill="rgb(170, 170, 170)" y="9" dy="-9" opacity="1" dominant-baseline="central" font-size="10" transform="translate(0, 15) rotate(-45)" dx="5" style="text-anchor: end; visibility: visible;">Gordon Bunshaft</text></g><g class="tick" opacity="1" transform="translate(1178.5682373046875, 0)"><line stroke="#eeeeee" y2="6" stroke-dasharray="0"/><text fill="rgb(170, 170, 170)" y="9" dy="-9" opacity="1" dominant-baseline="central" font-size="10" transform="translate(0, 15) rotate(-45)" dx="5" style="text-anchor: end; visibility: visible;">Oscar Niemeyer</text></g><g class="tick" opacity="1" transform="translate(1212.227294921875, 0)"><line stroke="#eeeeee" y2="6" stroke-dasharray="0"/><text fill="rgb(170, 170, 170)" y="9" dy="-9" opacity="1" dominant-baseline="central" font-size="10" transform="translate(0, 15) rotate(-45)" dx="5" style="text-anchor: end; visibility: visible;">Kenzo Tange</text></g><g class="tick" opacity="1" transform="translate(1245.8863525390625, 0)"><line stroke="#eeeeee" y2="6" stroke-dasharray="0"/><text fill="rgb(170, 170, 170)" y="9" dy="-9" opacity="1" dominant-baseline="central" font-size="10" transform="translate(0, 15) rotate(-45)" dx="5" style="text-anchor: end; visibility: visible;">Gottfried Böhm</text></g><g class="tick" opacity="1" transform="translate(1279.54541015625, 0)"><line stroke="#eeeeee" y2="6" stroke-dasharray="0"/><text fill="rgb(170, 170, 170)" y="9" dy="-9" opacity="1" dominant-baseline="central" font-size="10" transform="translate(0, 15) rotate(-45)" dx="5" style="text-anchor: end; visibility: visible;">Hans Hollein</text></g><g class="tick" opacity="1" transform="translate(1313.20458984375, 0)"><line stroke="#eeeeee" y2="6" stroke-dasharray="0"/><text fill="rgb(170, 170, 170)" y="9" dy="-9" opacity="1" dominant-baseline="central" font-size="10" transform="translate(0, 15) rotate(-45)" dx="5" style="text-anchor: end; visibility: visible;">Richard Meier</text></g><g class="tick" opacity="1" transform="translate(1346.8636474609375, 0)"><line stroke="#eeeeee" y2="6" stroke-dasharray="0"/><text fill="rgb(170, 170, 170)" y="9" dy="-9" opacity="1" dominant-baseline="central" font-size="10" transform="translate(0, 15) rotate(-45)" dx="5" style="text-anchor: end; visibility: visible;">Ieoh Ming Pei</text></g><g class="tick" opacity="1" transform="translate(1380.522705078125, 0)"><line stroke="#eeeeee" y2="6" stroke-dasharray="0"/><text fill="rgb(170, 170, 170)" y="9" dy="-9" opacity="1" dominant-baseline="central" font-size="10" transform="translate(0, 15) rotate(-45)" dx="5" style="text-anchor: end; visibility: visible;">Kevin Roche</text></g><g class="tick" opacity="1" transform="translate(1414.1817626953125, 0)"><line stroke="#eeeeee" y2="6" stroke-dasharray="0"/><text fill="rgb(170, 170, 170)" y="9" dy="-9" opacity="1" dominant-baseline="central" font-size="10" transform="translate(0, 15) rotate(-45)" dx="5" style="text-anchor: end; visibility: visible;">James Stirling</text></g><g class="tick" opacity="1" transform="translate(1447.8409423828125, 0)"><line stroke="#eeeeee" y2="6" stroke-dasharray="0"/><text fill="rgb(170, 170, 170)" y="9" dy="-9" opacity="1" dominant-baseline="central" font-size="10" transform="translate(0, 15) rotate(-45)" dx="5" style="text-anchor: end; visibility: visible;">Luis Barragán</text></g><g class="tick" opacity="1" transform="translate(1481.5, 0)"><line stroke="#eeeeee" y2="6" stroke-dasharray="0"/><text fill="rgb(170, 170, 170)" y="9" dy="-9" opacity="1" dominant-baseline="central" font-size="10" transform="translate(0, 15) rotate(-45)" dx="5" style="text-anchor: end; visibility: visible;">Philip Johnson</text></g></g></g></g></g></g><g class="annotations below"><g class="axis-highlights" transform="translate(45, 10)" style="opacity: 1;"/></g><g id="areas"><g class="series" pointer-events="none"><path class="area" transform="translate(45,10)" fill-opacity="0" fill="#1D6996" clip-path="url(#clip-0-0)" d="M0,40.39999999999998C11.219696969696969,127.09166666666668,22.439393939393938,213.7833333333334,33.65909090909091,217.15000000000003C44.878787878787875,220.51666666666668,56.098484848484844,222.2,67.31818181818181,222.2C78.53787878787878,222.2,89.75757575757575,212.10000000000002,100.97727272727272,212.10000000000002C112.19696969696969,212.10000000000002,123.41666666666666,252.5,134.63636363636363,252.5C145.8560606060606,252.5,157.07575757575756,45.44999999999999,168.29545454545453,45.44999999999999C179.5151515151515,45.44999999999999,190.73484848484847,212.10000000000002,201.95454545454544,212.10000000000002C213.1742424242424,212.10000000000002,224.39393939393938,136.35000000000002,235.61363636363635,136.35000000000002C246.83333333333331,136.35000000000002,258.05303030303025,252.5,269.27272727272725,252.5C280.4924242424242,252.5,291.7121212121212,202,302.93181818181813,202C314.1515151515151,202,325.37121212121207,277.75,336.59090909090907,277.75C347.81060606060606,277.75,359.030303030303,245.76666666666668,370.25,227.25C381.46969696969694,208.73333333333335,392.68939393939394,166.64999999999998,403.9090909090909,166.64999999999998C415.1287878787878,166.64999999999998,426.3484848484848,181.8,437.56818181818176,181.8C448.78787878787875,181.8,460.0075757575757,138.875,471.2272727272727,126.25C482.4469696969697,113.62499999999999,493.66666666666663,106.04999999999995,504.8863636363636,106.04999999999995C516.1060606060606,106.04999999999995,527.3257575757575,171.69999999999996,538.5454545454545,191.89999999999998C549.7651515151515,212.1,560.9848484848484,227.25,572.2045454545454,227.25C583.4242424242424,227.25,594.6439393939393,70.69999999999999,605.8636363636363,70.69999999999999C617.0833333333333,70.69999999999999,628.3030303030303,138.03333333333327,639.5227272727273,166.64999999999998C650.7424242424242,195.2666666666666,661.9621212121211,242.39999999999998,673.1818181818181,242.39999999999998C684.4015151515151,242.39999999999998,695.621212121212,242.39999999999998,706.840909090909,242.39999999999998C718.060606060606,242.39999999999998,729.280303030303,228.09166666666673,740.5,217.15000000000003C751.719696969697,206.20833333333337,762.9393939393939,176.75,774.1590909090909,176.75C785.3787878787879,176.75,796.5984848484848,191.89999999999998,807.8181818181818,191.89999999999998C819.0378787878788,191.89999999999998,830.2575757575756,131.3,841.4772727272726,131.3C852.6969696969696,131.3,863.9166666666665,186.00833333333333,875.1363636363635,202C886.3560606060605,217.99166666666673,897.5757575757575,219.67499999999998,908.7954545454545,227.25C920.0151515151515,234.825,931.2348484848484,247.45,942.4545454545454,247.45C953.6742424242424,247.45,964.8939393939393,171.7,976.1136363636363,171.7C987.3333333333333,171.7,998.5530303030303,202,1009.7727272727273,202C1020.9924242424241,202,1032.212121212121,166.64999999999998,1043.431818181818,166.64999999999998C1054.651515151515,166.64999999999998,1065.871212121212,202,1077.090909090909,202C1088.310606060606,202,1099.530303030303,200.31666666666666,1110.75,196.95C1121.969696969697,193.58333333333334,1133.1893939393938,107.73333333333326,1144.4090909090908,101C1155.6287878787878,94.2666666666667,1166.8484848484848,90.90000000000003,1178.0681818181818,90.90000000000003C1189.2878787878788,90.90000000000003,1200.5075757575755,113.62500000000006,1211.7272727272725,126.25C1222.9469696969695,138.87500000000003,1234.1666666666665,147.29166666666666,1245.3863636363635,166.64999999999998C1256.6060606060605,186.0083333333333,1267.8257575757575,239.03333333333327,1279.0454545454545,242.39999999999998C1290.2651515151515,245.76666666666665,1301.4848484848483,247.45,1312.7045454545453,247.45C1323.9242424242423,247.45,1335.1439393939393,166.64999999999998,1346.3636363636363,166.64999999999998C1357.5833333333333,166.64999999999998,1368.8030303030303,187.69166666666663,1380.0227272727273,196.95C1391.2424242424242,206.2083333333333,1402.462121212121,222.2,1413.681818181818,222.2C1424.901515151515,222.2,1436.121212121212,106.04999999999995,1447.340909090909,106.04999999999995C1458.560606060606,106.04999999999995,1469.780303030303,118.67499999999998,1481,131.3L1481,131.3C1469.780303030303,118.67499999999998,1458.560606060606,106.04999999999995,1447.340909090909,106.04999999999995C1436.121212121212,106.04999999999995,1424.901515151515,222.2,1413.681818181818,222.2C1402.462121212121,222.2,1391.2424242424242,206.2083333333333,1380.0227272727273,196.95C1368.8030303030303,187.69166666666663,1357.5833333333333,166.64999999999998,1346.3636363636363,166.64999999999998C1335.1439393939393,166.64999999999998,1323.9242424242423,247.45,1312.7045454545453,247.45C1301.4848484848483,247.45,1290.2651515151515,245.76666666666665,1279.0454545454545,242.39999999999998C1267.8257575757575,239.03333333333327,1256.6060606060605,186.0083333333333,1245.3863636363635,166.64999999999998C1234.1666666666665,147.29166666666666,1222.9469696969695,138.87500000000003,1211.7272727272725,126.25C1200.5075757575755,113.62500000000006,1189.2878787878788,90.90000000000003,1178.0681818181818,90.90000000000003C1166.8484848484848,90.90000000000003,1155.6287878787878,94.2666666666667,1144.4090909090908,101C1133.1893939393938,107.73333333333326,1121.969696969697,193.58333333333334,1110.75,196.95C1099.530303030303,200.31666666666666,1088.310606060606,202,1077.090909090909,202C1065.871212121212,202,1054.651515151515,166.64999999999998,1043.431818181818,166.64999999999998C1032.212121212121,166.64999999999998,1020.9924242424241,202,1009.7727272727273,202C998.5530303030303,202,987.3333333333333,171.7,976.1136363636363,171.7C964.8939393939393,171.7,953.6742424242424,247.45,942.4545454545454,247.45C931.2348484848484,247.45,920.0151515151515,234.825,908.7954545454545,227.25C897.5757575757575,219.67499999999998,886.3560606060605,217.99166666666673,875.1363636363635,202C863.9166666666665,186.00833333333333,852.6969696969696,131.3,841.4772727272726,131.3C830.2575757575756,131.3,819.0378787878788,191.89999999999998,807.8181818181818,191.89999999999998C796.5984848484848,191.89999999999998,785.3787878787879,176.75,774.1590909090909,176.75C762.9393939393939,176.75,751.719696969697,206.20833333333337,740.5,217.15000000000003C729.280303030303,228.09166666666673,718.060606060606,242.39999999999998,706.840909090909,242.39999999999998C695.621212121212,242.39999999999998,684.4015151515151,242.39999999999998,673.1818181818181,242.39999999999998C661.9621212121211,242.39999999999998,650.7424242424242,195.2666666666666,639.5227272727273,166.64999999999998C628.3030303030303,138.03333333333327,617.0833333333333,70.69999999999999,605.8636363636363,70.69999999999999C594.6439393939393,70.69999999999999,583.4242424242424,227.25,572.2045454545454,227.25C560.9848484848484,227.25,549.7651515151515,212.1,538.5454545454545,191.89999999999998C527.3257575757575,171.69999999999996,516.1060606060606,106.04999999999995,504.8863636363636,106.04999999999995C493.66666666666663,106.04999999999995,482.4469696969697,113.62499999999999,471.2272727272727,126.25C460.0075757575757,138.875,448.78787878787875,181.8,437.56818181818176,181.8C426.3484848484848,181.8,415.1287878787878,166.64999999999998,403.9090909090909,166.64999999999998C392.68939393939394,166.64999999999998,381.46969696969694,208.73333333333335,370.25,227.25C359.030303030303,245.76666666666668,347.81060606060606,277.75,336.59090909090907,277.75C325.37121212121207,277.75,314.1515151515151,202,302.93181818181813,202C291.7121212121212,202,280.4924242424242,252.5,269.27272727272725,252.5C258.05303030303025,252.5,246.83333333333331,136.35000000000002,235.61363636363635,136.35000000000002C224.39393939393938,136.35000000000002,213.1742424242424,212.10000000000002,201.95454545454544,212.10000000000002C190.73484848484847,212.10000000000002,179.5151515151515,45.44999999999999,168.29545454545453,45.44999999999999C157.07575757575756,45.44999999999999,145.8560606060606,252.5,134.63636363636363,252.5C123.41666666666666,252.5,112.19696969696969,212.10000000000002,100.97727272727272,212.10000000000002C89.75757575757575,212.10000000000002,78.53787878787878,222.2,67.31818181818181,222.2C56.098484848484844,222.2,44.878787878787875,220.51666666666668,33.65909090909091,217.15000000000003C22.439393939393938,213.7833333333334,11.219696969696969,127.09166666666668,0,40.39999999999998Z"/></g></g><g id="lines"><g class="series"><clipPath id="clip-0-0"><rect width="1481" y="-10" height="615"/></clipPath><path class="line" opacity="1" fill="none" stroke="#1D6996" stroke-width="2" transform="translate(45,10)" clip-path="url(#clip-0-0)" d="M0,40.39999999999998C11.219696969696969,127.09166666666668,22.439393939393938,213.7833333333334,33.65909090909091,217.15000000000003C44.878787878787875,220.51666666666668,56.098484848484844,222.2,67.31818181818181,222.2C78.53787878787878,222.2,89.75757575757575,212.10000000000002,100.97727272727272,212.10000000000002C112.19696969696969,212.10000000000002,123.41666666666666,252.5,134.63636363636363,252.5C145.8560606060606,252.5,157.07575757575756,45.44999999999999,168.29545454545453,45.44999999999999C179.5151515151515,45.44999999999999,190.73484848484847,212.10000000000002,201.95454545454544,212.10000000000002C213.1742424242424,212.10000000000002,224.39393939393938,136.35000000000002,235.61363636363635,136.35000000000002C246.83333333333331,136.35000000000002,258.05303030303025,252.5,269.27272727272725,252.5C280.4924242424242,252.5,291.7121212121212,202,302.93181818181813,202C314.1515151515151,202,325.37121212121207,277.75,336.59090909090907,277.75C347.81060606060606,277.75,359.030303030303,245.76666666666668,370.25,227.25C381.46969696969694,208.73333333333335,392.68939393939394,166.64999999999998,403.9090909090909,166.64999999999998C415.1287878787878,166.64999999999998,426.3484848484848,181.8,437.56818181818176,181.8C448.78787878787875,181.8,460.0075757575757,138.875,471.2272727272727,126.25C482.4469696969697,113.62499999999999,493.66666666666663,106.04999999999995,504.8863636363636,106.04999999999995C516.1060606060606,106.04999999999995,527.3257575757575,171.69999999999996,538.5454545454545,191.89999999999998C549.7651515151515,212.1,560.9848484848484,227.25,572.2045454545454,227.25C583.4242424242424,227.25,594.6439393939393,70.69999999999999,605.8636363636363,70.69999999999999C617.0833333333333,70.69999999999999,628.3030303030303,138.03333333333327,639.5227272727273,166.64999999999998C650.7424242424242,195.2666666666666,661.9621212121211,242.39999999999998,673.1818181818181,242.39999999999998C684.4015151515151,242.39999999999998,695.621212121212,242.39999999999998,706.840909090909,242.39999999999998C718.060606060606,242.39999999999998,729.280303030303,228.09166666666673,740.5,217.15000000000003C751.719696969697,206.20833333333337,762.9393939393939,176.75,774.1590909090909,176.75C785.3787878787879,176.75,796.5984848484848,191.89999999999998,807.8181818181818,191.89999999999998C819.0378787878788,191.89999999999998,830.2575757575756,131.3,841.4772727272726,131.3C852.6969696969696,131.3,863.9166666666665,186.00833333333333,875.1363636363635,202C886.3560606060605,217.99166666666673,897.5757575757575,219.67499999999998,908.7954545454545,227.25C920.0151515151515,234.825,931.2348484848484,247.45,942.4545454545454,247.45C953.6742424242424,247.45,964.8939393939393,171.7,976.1136363636363,171.7C987.3333333333333,171.7,998.5530303030303,202,1009.7727272727273,202C1020.9924242424241,202,1032.212121212121,166.64999999999998,1043.431818181818,166.64999999999998C1054.651515151515,166.64999999999998,1065.871212121212,202,1077.090909090909,202C1088.310606060606,202,1099.530303030303,200.31666666666666,1110.75,196.95C1121.969696969697,193.58333333333334,1133.1893939393938,107.73333333333326,1144.4090909090908,101C1155.6287878787878,94.2666666666667,1166.8484848484848,90.90000000000003,1178.0681818181818,90.90000000000003C1189.2878787878788,90.90000000000003,1200.5075757575755,113.62500000000006,1211.7272727272725,126.25C1222.9469696969695,138.87500000000003,1234.1666666666665,147.29166666666666,1245.3863636363635,166.64999999999998C1256.6060606060605,186.0083333333333,1267.8257575757575,239.03333333333327,1279.0454545454545,242.39999999999998C1290.2651515151515,245.76666666666665,1301.4848484848483,247.45,1312.7045454545453,247.45C1323.9242424242423,247.45,1335.1439393939393,166.64999999999998,1346.3636363636363,166.64999999999998C1357.5833333333333,166.64999999999998,1368.8030303030303,187.69166666666663,1380.0227272727273,196.95C1391.2424242424242,206.2083333333333,1402.462121212121,222.2,1413.681818181818,222.2C1424.901515151515,222.2,1436.121212121212,106.04999999999995,1447.340909090909,106.04999999999995C1458.560606060606,106.04999999999995,1469.780303030303,118.67499999999998,1481,131.3"/><text class="label" font-size="11" alignment-baseline="middle" opacity="1" x="5" fill="#1D6996" transform="translate(1526, 141.3000030517578)"/></g></g><g id="data-points"><g class="series" transform="translate(45,10)"><path class="data-point" fill="#1D6996" data-type="point" transform="translate(0, 0)" d="M-3,40.39999999999998A3,3,0,1,1,3,40.39999999999998A3,3,0,1,1,-3,40.39999999999998Z" id="point-0-0" opacity="1"/><path class="data-point" fill="#1D6996" data-type="point" transform="translate(0, 0)" d="M30.659090909090907,217.15000000000003A3,3,0,1,1,36.65909090909091,217.15000000000003A3,3,0,1,1,30.659090909090907,217.15000000000003Z" id="point-0-1" opacity="1"/><path class="data-point" fill="#1D6996" data-type="point" transform="translate(0, 0)" d="M64.31818181818181,222.2A3,3,0,1,1,70.31818181818181,222.2A3,3,0,1,1,64.31818181818181,222.2Z" id="point-0-2" opacity="1"/><path class="data-point" fill="#1D6996" data-type="point" transform="translate(0, 0)" d="M97.97727272727272,212.10000000000002A3,3,0,1,1,103.97727272727272,212.10000000000002A3,3,0,1,1,97.97727272727272,212.10000000000002Z" id="point-0-3" opacity="1"/><path class="data-point" fill="#1D6996" data-type="point" transform="translate(0, 0)" d="M131.63636363636363,252.5A3,3,0,1,1,137.63636363636363,252.5A3,3,0,1,1,131.63636363636363,252.5Z" id="point-0-4" opacity="1"/><path class="data-point" fill="#1D6996" data-type="point" transform="translate(0, 0)" d="M165.29545454545453,45.44999999999999A3,3,0,1,1,171.29545454545453,45.44999999999999A3,3,0,1,1,165.29545454545453,45.44999999999999Z" id="point-0-5" opacity="1"/><path class="data-point" fill="#1D6996" data-type="point" transform="translate(0, 0)" d="M198.95454545454544,212.10000000000002A3,3,0,1,1,204.95454545454544,212.10000000000002A3,3,0,1,1,198.95454545454544,212.10000000000002Z" id="point-0-6" opacity="1"/><path class="data-point" fill="#1D6996" data-type="point" transform="translate(0, 0)" d="M232.61363636363635,136.35000000000002A3,3,0,1,1,238.61363636363635,136.35000000000002A3,3,0,1,1,232.61363636363635,136.35000000000002Z" id="point-0-7" opacity="1"/><path class="data-point" fill="#1D6996" data-type="point" transform="translate(0, 0)" d="M266.27272727272725,252.5A3,3,0,1,1,272.27272727272725,252.5A3,3,0,1,1,266.27272727272725,252.5Z" id="point-0-8" opacity="1"/><path class="data-point" fill="#1D6996" data-type="point" transform="translate(0, 0)" d="M299.93181818181813,202A3,3,0,1,1,305.93181818181813,202A3,3,0,1,1,299.93181818181813,202Z" id="point-0-9" opacity="1"/><path class="data-point" fill="#1D6996" data-type="point" transform="translate(0, 0)" d="M333.59090909090907,277.75A3,3,0,1,1,339.59090909090907,277.75A3,3,0,1,1,333.59090909090907,277.75Z" id="point-0-10" opacity="1"/><path class="data-point" fill="#1D6996" data-type="point" transform="translate(0, 0)" d="M367.25,227.25A3,3,0,1,1,373.25,227.25A3,3,0,1,1,367.25,227.25Z" id="point-0-11" opacity="1"/><path class="data-point" fill="#1D6996" data-type="point" transform="translate(0, 0)" d="M400.9090909090909,166.64999999999998A3,3,0,1,1,406.9090909090909,166.64999999999998A3,3,0,1,1,400.9090909090909,166.64999999999998Z" id="point-0-12" opacity="1"/><path class="data-point" fill="#1D6996" data-type="point" transform="translate(0, 0)" d="M434.56818181818176,181.8A3,3,0,1,1,440.56818181818176,181.8A3,3,0,1,1,434.56818181818176,181.8Z" id="point-0-13" opacity="1"/><path class="data-point" fill="#1D6996" data-type="point" transform="translate(0, 0)" d="M468.2272727272727,126.25A3,3,0,1,1,474.2272727272727,126.25A3,3,0,1,1,468.2272727272727,126.25Z" id="point-0-14" opacity="1"/><path class="data-point" fill="#1D6996" data-type="point" transform="translate(0, 0)" d="M501.8863636363636,106.04999999999995A3,3,0,1,1,507.8863636363636,106.04999999999995A3,3,0,1,1,501.8863636363636,106.04999999999995Z" id="point-0-15" opacity="1"/><path class="data-point" fill="#1D6996" data-type="point" transform="translate(0, 0)" d="M535.5454545454545,191.89999999999998A3,3,0,1,1,541.5454545454545,191.89999999999998A3,3,0,1,1,535.5454545454545,191.89999999999998Z" id="point-0-16" opacity="1"/><path class="data-point" fill="#1D6996" data-type="point" transform="translate(0, 0)" d="M569.2045454545454,227.25A3,3,0,1,1,575.2045454545454,227.25A3,3,0,1,1,569.2045454545454,227.25Z" id="point-0-17" opacity="1"/><path class="data-point" fill="#1D6996" data-type="point" transform="translate(0, 0)" d="M602.8636363636363,70.69999999999999A3,3,0,1,1,608.8636363636363,70.69999999999999A3,3,0,1,1,602.8636363636363,70.69999999999999Z" id="point-0-18" opacity="1"/><path class="data-point" fill="#1D6996" data-type="point" transform="translate(0, 0)" d="M636.5227272727273,166.64999999999998A3,3,0,1,1,642.5227272727273,166.64999999999998A3,3,0,1,1,636.5227272727273,166.64999999999998Z" id="point-0-19" opacity="1"/><path class="data-point" fill="#1D6996" data-type="point" transform="translate(0, 0)" d="M670.1818181818181,242.39999999999998A3,3,0,1,1,676.1818181818181,242.39999999999998A3,3,0,1,1,670.1818181818181,242.39999999999998Z" id="point-0-20" opacity="1"/><path class="data-point" fill="#1D6996" data-type="point" transform="translate(0, 0)" d="M703.840909090909,242.39999999999998A3,3,0,1,1,709.840909090909,242.39999999999998A3,3,0,1,1,703.840909090909,242.39999999999998Z" id="point-0-21" opacity="1"/><path class="data-point" fill="#1D6996" data-type="point" transform="translate(0, 0)" d="M737.5,217.15000000000003A3,3,0,1,1,743.5,217.15000000000003A3,3,0,1,1,737.5,217.15000000000003Z" id="point-0-22" opacity="1"/><path class="data-point" fill="#1D6996" data-type="point" transform="translate(0, 0)" d="M771.1590909090909,176.75A3,3,0,1,1,777.1590909090909,176.75A3,3,0,1,1,771.1590909090909,176.75Z" id="point-0-23" opacity="1"/><path class="data-point" fill="#1D6996" data-type="point" transform="translate(0, 0)" d="M804.8181818181818,191.89999999999998A3,3,0,1,1,810.8181818181818,191.89999999999998A3,3,0,1,1,804.8181818181818,191.89999999999998Z" id="point-0-24" opacity="1"/><path class="data-point" fill="#1D6996" data-type="point" transform="translate(0, 0)" d="M838.4772727272726,131.3A3,3,0,1,1,844.4772727272726,131.3A3,3,0,1,1,838.4772727272726,131.3Z" id="point-0-25" opacity="1"/><path class="data-point" fill="#1D6996" data-type="point" transform="translate(0, 0)" d="M872.1363636363635,202A3,3,0,1,1,878.1363636363635,202A3,3,0,1,1,872.1363636363635,202Z" id="point-0-26" opacity="1"/><path class="data-point" fill="#1D6996" data-type="point" transform="translate(0, 0)" d="M905.7954545454545,227.25A3,3,0,1,1,911.7954545454545,227.25A3,3,0,1,1,905.7954545454545,227.25Z" id="point-0-27" opacity="1"/><path class="data-point" fill="#1D6996" data-type="point" transform="translate(0, 0)" d="M939.4545454545454,247.45A3,3,0,1,1,945.4545454545454,247.45A3,3,0,1,1,939.4545454545454,247.45Z" id="point-0-28" opacity="1"/><path class="data-point" fill="#1D6996" data-type="point" transform="translate(0, 0)" d="M973.1136363636363,171.7A3,3,0,1,1,979.1136363636363,171.7A3,3,0,1,1,973.1136363636363,171.7Z" id="point-0-29" opacity="1"/><path class="data-point" fill="#1D6996" data-type="point" transform="translate(0, 0)" d="M1006.7727272727273,202A3,3,0,1,1,1012.7727272727273,202A3,3,0,1,1,1006.7727272727273,202Z" id="point-0-30" opacity="1"/><path class="data-point" fill="#1D6996" data-type="point" transform="translate(0, 0)" d="M1040.431818181818,166.64999999999998A3,3,0,1,1,1046.431818181818,166.64999999999998A3,3,0,1,1,1040.431818181818,166.64999999999998Z" id="point-0-31" opacity="1"/><path class="data-point" fill="#1D6996" data-type="point" transform="translate(0, 0)" d="M1074.090909090909,202A3,3,0,1,1,1080.090909090909,202A3,3,0,1,1,1074.090909090909,202Z" id="point-0-32" opacity="1"/><path class="data-point" fill="#1D6996" data-type="point" transform="translate(0, 0)" d="M1107.75,196.95A3,3,0,1,1,1113.75,196.95A3,3,0,1,1,1107.75,196.95Z" id="point-0-33" opacity="1"/><path class="data-point" fill="#1D6996" data-type="point" transform="translate(0, 0)" d="M1141.4090909090908,101A3,3,0,1,1,1147.4090909090908,101A3,3,0,1,1,1141.4090909090908,101Z" id="point-0-34" opacity="1"/><path class="data-point" fill="#1D6996" data-type="point" transform="translate(0, 0)" d="M1175.0681818181818,90.90000000000003A3,3,0,1,1,1181.0681818181818,90.90000000000003A3,3,0,1,1,1175.0681818181818,90.90000000000003Z" id="point-0-35" opacity="1"/><path class="data-point" fill="#1D6996" data-type="point" transform="translate(0, 0)" d="M1208.7272727272725,126.25A3,3,0,1,1,1214.7272727272725,126.25A3,3,0,1,1,1208.7272727272725,126.25Z" id="point-0-36" opacity="1"/><path class="data-point" fill="#1D6996" data-type="point" transform="translate(0, 0)" d="M1242.3863636363635,166.64999999999998A3,3,0,1,1,1248.3863636363635,166.64999999999998A3,3,0,1,1,1242.3863636363635,166.64999999999998Z" id="point-0-37" opacity="1"/><path class="data-point" fill="#1D6996" data-type="point" transform="translate(0, 0)" d="M1276.0454545454545,242.39999999999998A3,3,0,1,1,1282.0454545454545,242.39999999999998A3,3,0,1,1,1276.0454545454545,242.39999999999998Z" id="point-0-38" opacity="1"/><path class="data-point" fill="#1D6996" data-type="point" transform="translate(0, 0)" d="M1309.7045454545453,247.45A3,3,0,1,1,1315.7045454545453,247.45A3,3,0,1,1,1309.7045454545453,247.45Z" id="point-0-39" opacity="1"/><path class="data-point" fill="#1D6996" data-type="point" transform="translate(0, 0)" d="M1343.3636363636363,166.64999999999998A3,3,0,1,1,1349.3636363636363,166.64999999999998A3,3,0,1,1,1343.3636363636363,166.64999999999998Z" id="point-0-40" opacity="1"/><path class="data-point" fill="#1D6996" data-type="point" transform="translate(0, 0)" d="M1377.0227272727273,196.95A3,3,0,1,1,1383.0227272727273,196.95A3,3,0,1,1,1377.0227272727273,196.95Z" id="point-0-41" opacity="1"/><path class="data-point" fill="#1D6996" data-type="point" transform="translate(0, 0)" d="M1410.681818181818,222.2A3,3,0,1,1,1416.681818181818,222.2A3,3,0,1,1,1410.681818181818,222.2Z" id="point-0-42" opacity="1"/><path class="data-point" fill="#1D6996" data-type="point" transform="translate(0, 0)" d="M1444.340909090909,106.04999999999995A3,3,0,1,1,1450.340909090909,106.04999999999995A3,3,0,1,1,1444.340909090909,106.04999999999995Z" id="point-0-43" opacity="1"/><path class="data-point" fill="#1D6996" data-type="point" transform="translate(0, 0)" d="M1478,131.3A3,3,0,1,1,1484,131.3A3,3,0,1,1,1478,131.3Z" id="point-0-44" opacity="1"/></g></g><g id="data-labels"/><g class="annotations above"><g class="axis-highlights" transform="translate(45, 10)" style="opacity: 1;"/></g></svg>