<?xml version="1.0" encoding="utf-8"?>
<!-- Generator: Adobe Illustrator 22.1.0, SVG Export Plug-In . SVG Version: 6.00 Build 0)  -->
<svg version="1.1" id="Layer_1" xmlns="http://www.w3.org/2000/svg" xmlns:xlink="http://www.w3.org/1999/xlink" x="0px" y="0px"
	 viewBox="0 0 792 438.7" style="enable-background:new 0 0 792 438.7;" xml:space="preserve">
<style type="text/css">
	.st0{fill:#7B7C7D;}
	.st1{font-family:'Helvetica-Bold';}
	.st2{font-size:8px;}
	.st3{font-family:'Helvetica';}
	.st4{opacity:0.23;fill:#C9B2C3;enable-background:new    ;}
	.st5{fill:none;stroke:#9B9D9F;stroke-width:0.25;stroke-dasharray:1,1;}
	.st6{fill:none;stroke:#000000;stroke-width:0.25;}
	.st7{opacity:0.23;fill:#B2BEC9;enable-background:new    ;}
	.st8{fill:none;stroke:#5ABA48;stroke-width:0.25;}
	.st9{fill:none;stroke:#8B8B8B;stroke-width:0.25;}
	.st10{fill:#5ABA48;}
	.st11{fill:#8B8B8B;}
	.st12{fill:#ACABAB;}
	.st13{font-size:5.0978px;}
	.st14{opacity:0.55;enable-background:new    ;}
	.st15{fill:#E4E5E6;}
	.st16{fill:none;stroke:#474848;stroke-width:0.25;stroke-linecap:round;stroke-dasharray:3,3;}
	.st17{enable-background:new    ;}
	.st18{fill:#5ABA48;stroke:#5ABA48;stroke-width:2;stroke-miterlimit:10;}
	.st19{fill:none;stroke:#010101;stroke-width:0.75;stroke-linecap:round;stroke-dasharray:3,3;}
	.st20{fill:#F78C1E;stroke:#F78C1E;stroke-width:2;}
	.st21{clip-path:url(#SVGID_2_);fill:#9C9E9F;stroke:#9C9E9F;stroke-width:2;stroke-miterlimit:10;}
	.st22{fill:#010101;}
	.st23{font-family:'ArialMT';}
	.st24{font-size:7px;}
	.st25{fill:none;stroke:#717375;stroke-width:0.5;}
	.st26{fill:#FFFFFF;}
	.st27{fill:#717375;}
	.st28{font-size:5px;}
</style>
<g>
	<text transform="matrix(0.5 0.866 -0.866 0.5 202.1725 332.2939)" class="st0 st1 st2" style="text-decoration: underline;">2013_</text>
	<text transform="matrix(0.5 0.866 -0.866 0.5 213.2721 351.5193)" class="st0 st3 st2" style="text-decoration: underline;">Toyo Ito</text>
	<text transform="matrix(0.5 0.866 -0.866 0.5 105.5846 331.7934)" class="st0 st1 st2" style="text-decoration: underline;">2017_</text>
	<text transform="matrix(0.5 0.866 -0.866 0.5 116.6842 351.0185)" class="st0 st3 st2" style="text-decoration: underline;">Rafael Aranda</text>
	<text transform="matrix(0.5 0.866 -0.866 0.5 91.7867 331.7939)" class="st0 st1 st2" style="text-decoration: underline;">2018_</text>
	<text transform="matrix(0.5 0.866 -0.866 0.5 102.8863 351.019)" class="st0 st3 st2" style="text-decoration: underline;">Balkrishna Doshi</text>
	<text transform="matrix(0.5 0.866 -0.866 0.5 119.3824 331.7937)" class="st0 st1 st2" style="text-decoration: underline;">2017_</text>
	<text transform="matrix(0.5 0.866 -0.866 0.5 130.483 351.019)" class="st0 st3 st2" style="text-decoration: underline;">Carme Pigem</text>
	<text transform="matrix(0.5 0.866 -0.866 0.5 64.3346 331.7934)" class="st0 st1 st2" style="text-decoration: underline;">2020_</text>
	<text transform="matrix(0.5 0.866 -0.866 0.5 75.4342 351.0185)" class="st0 st3 st2" style="text-decoration: underline;">Shelley McNamara</text>
	<text transform="matrix(0.5 0.866 -0.866 0.5 50.5367 331.7939)" class="st0 st1 st2" style="text-decoration: underline;">2020_</text>
	<text transform="matrix(0.5 0.866 -0.866 0.5 61.6363 351.019)" class="st0 st3 st2" style="text-decoration: underline;">Yvonne Farrell </text>
	<text transform="matrix(0.5 0.866 -0.866 0.5 78.1324 331.7937)" class="st0 st1 st2" style="text-decoration: underline;">2019_</text>
	<text transform="matrix(0.5 0.866 -0.866 0.5 89.233 351.019)" class="st0 st3 st2" style="text-decoration: underline;">Arata Isozaki</text>
	<text transform="matrix(0.5 0.866 -0.866 0.5 133.1812 331.7937)" class="st0 st1 st2" style="text-decoration: underline;">2017_</text>
	<text transform="matrix(0.5 0.866 -0.866 0.5 144.2818 351.019)" class="st0 st3 st2" style="text-decoration: underline;">Ramon Vilalta</text>
	<text transform="matrix(0.5 0.866 -0.866 0.5 146.9801 331.7942)" class="st0 st1 st2" style="text-decoration: underline;">2016_</text>
	<text transform="matrix(0.5 0.866 -0.866 0.5 158.0797 351.0195)" class="st0 st3 st2" style="text-decoration: underline;">Alejandro Aravena</text>
	<text transform="matrix(0.5 0.866 -0.866 0.5 160.7779 332.2949)" class="st0 st1 st2" style="text-decoration: underline;">2015_</text>
	<text transform="matrix(0.5 0.866 -0.866 0.5 171.8775 351.52)" class="st0 st3 st2" style="text-decoration: underline;">Frei Otto</text>
	<text transform="matrix(0.5 0.866 -0.866 0.5 326.358 331.7934)" class="st0 st1 st2" style="text-decoration: underline;">2004_</text>
	<text transform="matrix(0.5 0.866 -0.866 0.5 337.4576 351.0185)" class="st0 st3 st2" style="text-decoration: underline;">Zaha Hadid</text>
	<text transform="matrix(0.5 0.866 -0.866 0.5 174.5758 331.7934)" class="st0 st1 st2" style="text-decoration: underline;">2014_</text>
	<text transform="matrix(0.5 0.866 -0.866 0.5 185.6754 351.0188)" class="st0 st3 st2" style="text-decoration: underline;">Shigeru Ban</text>
	<text transform="matrix(0.5 0.866 -0.866 0.5 215.9723 331.7934)" class="st0 st1 st2" style="text-decoration: underline;">2012_</text>
	<text transform="matrix(0.5 0.866 -0.866 0.5 227.0719 351.0188)" class="st0 st3 st2" style="text-decoration: underline;">Wang Shu</text>
	<text transform="matrix(0.5 0.866 -0.866 0.5 188.3756 331.7939)" class="st0 st1 st2" style="text-decoration: underline;">2011_</text>
	<text transform="matrix(0.5 0.866 -0.866 0.5 199.4752 351.019)" class="st0 st3 st2" style="text-decoration: underline;">Eduardo Souto de Moura</text>
	<text transform="matrix(0.5 0.866 -0.866 0.5 229.7691 331.7932)" class="st0 st1 st2" style="text-decoration: underline;">2010_</text>
	<text transform="matrix(0.5 0.866 -0.866 0.5 240.8687 351.0185)" class="st0 st3 st2" style="text-decoration: underline;">Ryue Nishizawa</text>
	<text transform="matrix(0.5 0.866 -0.866 0.5 243.5689 331.7934)" class="st0 st1 st2" style="text-decoration: underline;">2010_</text>
	<text transform="matrix(0.5 0.866 -0.866 0.5 254.6685 351.0185)" class="st0 st3 st2" style="text-decoration: underline;">Kazuyo Sejima</text>
	<text transform="matrix(0.5 0.866 -0.866 0.5 257.3658 331.7942)" class="st0 st1 st2" style="text-decoration: underline;">2009_</text>
	<text transform="matrix(0.5 0.866 -0.866 0.5 268.4664 351.0195)" class="st0 st3 st2" style="text-decoration: underline;">Peter Zumthor</text>
	<text transform="matrix(0.5 0.866 -0.866 0.5 271.1656 331.7937)" class="st0 st1 st2" style="text-decoration: underline;">2008_</text>
	<text transform="matrix(0.5 0.866 -0.866 0.5 282.2652 351.0188)" class="st0 st3 st2" style="text-decoration: underline;">Jean Nouvel</text>
	<text transform="matrix(0.5 0.866 -0.866 0.5 284.9635 331.7946)" class="st0 st1 st2" style="text-decoration: underline;">2007_</text>
	<text transform="matrix(0.5 0.866 -0.866 0.5 296.0631 351.0197)" class="st0 st3 st2" style="text-decoration: underline;">Richard Rogers</text>
	<text transform="matrix(0.5 0.866 -0.866 0.5 298.7603 331.7949)" class="st0 st1 st2" style="text-decoration: underline;">2006_</text>
	<text transform="matrix(0.5 0.866 -0.866 0.5 309.86 351.02)" class="st0 st3 st2" style="text-decoration: underline;">Mendes da Rocha</text>
	<text transform="matrix(0.5 0.866 -0.866 0.5 312.5592 331.7942)" class="st0 st1 st2" style="text-decoration: underline;">2005_</text>
	<text transform="matrix(0.5 0.866 -0.866 0.5 323.6598 351.0195)" class="st0 st3 st2" style="text-decoration: underline;">Thom Mayne</text>
	<text transform="matrix(0.5 0.866 -0.866 0.5 353.9547 331.7937)" class="st0 st1 st2" style="text-decoration: underline;">2002_</text>
	<text transform="matrix(0.5 0.866 -0.866 0.5 365.0543 351.019)" class="st0 st3 st2" style="text-decoration: underline;">Glenn Murcutt</text>
	<text transform="matrix(0.5 0.866 -0.866 0.5 367.7535 331.7939)" class="st0 st1 st2" style="text-decoration: underline;">2001_</text>
	<text transform="matrix(0.5 0.866 -0.866 0.5 378.8531 351.0193)" class="st0 st3 st2" style="text-decoration: underline;">Pierre de Meuron</text>
	<text transform="matrix(0.5 0.866 -0.866 0.5 381.5514 331.7937)" class="st0 st1 st2" style="text-decoration: underline;">2001_</text>
	<text transform="matrix(0.5 0.866 -0.866 0.5 392.651 351.019)" class="st0 st3 st2" style="text-decoration: underline;">Jacques Herzog</text>
	<text transform="matrix(0.5 0.866 -0.866 0.5 395.3502 331.7946)" class="st0 st1 st2" style="text-decoration: underline;">2000_</text>
	<text transform="matrix(0.5 0.866 -0.866 0.5 406.4498 351.02)" class="st0 st3 st2" style="text-decoration: underline;">Rem Koolhaas</text>
	<text transform="matrix(0.5 0.866 -0.866 0.5 409.1471 331.7946)" class="st0 st1 st2" style="text-decoration: underline;">1999_</text>
	<text transform="matrix(0.5 0.866 -0.866 0.5 420.2467 351.02)" class="st0 st3 st2" style="text-decoration: underline;">Norman Foster</text>
	<text transform="matrix(0.5 0.866 -0.866 0.5 422.9459 331.7937)" class="st0 st1 st2" style="text-decoration: underline;">1998_</text>
	<text transform="matrix(0.5 0.866 -0.866 0.5 434.0465 351.0188)" class="st0 st3 st2" style="text-decoration: underline;">Renzo Piano</text>
	<text transform="matrix(0.5 0.866 -0.866 0.5 436.7437 331.7937)" class="st0 st1 st2" style="text-decoration: underline;">1997_</text>
	<text transform="matrix(0.5 0.866 -0.866 0.5 447.8443 351.019)" class="st0 st3 st2" style="text-decoration: underline;">Sverre Fehn</text>
	<text transform="matrix(0.5 0.866 -0.866 0.5 450.5435 331.7937)" class="st0 st1 st2" style="text-decoration: underline;">1996_</text>
	<text transform="matrix(0.5 0.866 -0.866 0.5 461.6432 351.0188)" class="st0 st3 st2" style="text-decoration: underline;">José Rafael Moneo</text>
	<text transform="matrix(0.5 0.866 -0.866 0.5 478.1393 331.7934)" class="st0 st1 st2" style="text-decoration: underline;">1995_</text>
	<text transform="matrix(0.5 0.866 -0.866 0.5 489.2389 351.0188)" class="st0 st3 st2" style="text-decoration: underline;">Tadao Ando</text>
	<text transform="matrix(0.5 0.866 -0.866 0.5 464.3414 331.7934)" class="st0 st1 st2" style="text-decoration: underline;">1994_</text>
	<text transform="matrix(0.5 0.866 -0.866 0.5 475.441 351.0188)" class="st0 st3 st2" style="text-decoration: underline;">Christian de Portzamparc</text>
	<text transform="matrix(0.5 0.866 -0.866 0.5 491.9371 331.7944)" class="st0 st1 st2" style="text-decoration: underline;">1993_</text>
	<text transform="matrix(0.5 0.866 -0.866 0.5 503.0377 351.0195)" class="st0 st3 st2" style="text-decoration: underline;">Fumihiko Maki</text>
	<text transform="matrix(0.5 0.866 -0.866 0.5 505.7359 331.7942)" class="st0 st1 st2" style="text-decoration: underline;">1992_</text>
	<text transform="matrix(0.5 0.866 -0.866 0.5 516.8356 351.0193)" class="st0 st3 st2" style="text-decoration: underline;">Alvaro Siza </text>
	<text transform="matrix(0.5 0.866 -0.866 0.5 519.5348 331.7934)" class="st0 st1 st2" style="text-decoration: underline;">1991_</text>
	<text transform="matrix(0.5 0.866 -0.866 0.5 530.6354 351.0188)" class="st0 st3 st2" style="text-decoration: underline;">Robert Venturi</text>
	<text transform="matrix(0.5 0.866 -0.866 0.5 533.3317 331.7942)" class="st0 st1 st2" style="text-decoration: underline;">1990_</text>
	<text transform="matrix(0.5 0.866 -0.866 0.5 544.4323 351.0193)" class="st0 st3 st2" style="text-decoration: underline;">Aldo Rossi</text>
	<text transform="matrix(0.5 0.866 -0.866 0.5 547.1305 331.7937)" class="st0 st1 st2" style="text-decoration: underline;">1989_</text>
	<text transform="matrix(0.5 0.866 -0.866 0.5 558.2301 351.019)" class="st0 st3 st2" style="text-decoration: underline;">Frank Gehry</text>
	<text transform="matrix(0.5 0.866 -0.866 0.5 560.9283 331.7932)" class="st0 st1 st2" style="text-decoration: underline;">1988_</text>
	<text transform="matrix(0.5 0.866 -0.866 0.5 572.0289 351.0183)" class="st0 st3 st2" style="text-decoration: underline;">Gordon Bunshaft</text>
	<text transform="matrix(0.5 0.866 -0.866 0.5 574.7272 331.7932)" class="st0 st1 st2" style="text-decoration: underline;">1988</text>
	<text transform="matrix(0.5 0.866 -0.866 0.5 583.6276 347.208)" class="st0 st3 st2" style="text-decoration: underline;">_Oscar Niemeyer</text>
	<text transform="matrix(0.5 0.866 -0.866 0.5 588.526 331.7932)" class="st0 st1 st2" style="text-decoration: underline;">1987_</text>
	<text transform="matrix(0.5 0.866 -0.866 0.5 599.6256 351.0185)" class="st0 st3 st2" style="text-decoration: underline;">Kenzo Tange</text>
	<text transform="matrix(0.5 0.866 -0.866 0.5 602.3239 331.7946)" class="st0 st1 st2" style="text-decoration: underline;">1986_</text>
	<text transform="matrix(0.5 0.866 -0.866 0.5 613.4244 351.0197)" class="st0 st3 st2" style="text-decoration: underline;">Gottfried Böhm</text>
	<text transform="matrix(0.5 0.866 -0.866 0.5 616.1217 331.7942)" class="st0 st1 st2" style="text-decoration: underline;">1985_</text>
	<text transform="matrix(0.5 0.866 -0.866 0.5 627.2223 351.0195)" class="st0 st3 st2" style="text-decoration: underline;">Hans Hollein</text>
	<text transform="matrix(0.5 0.866 -0.866 0.5 629.9205 331.7939)" class="st0 st1 st2" style="text-decoration: underline;">1984_</text>
	<text transform="matrix(0.5 0.866 -0.866 0.5 641.0211 351.019)" class="st0 st3 st2" style="text-decoration: underline;">Richard Meier</text>
	<text transform="matrix(0.5 0.866 -0.866 0.5 643.7194 331.7937)" class="st0 st1 st2" style="text-decoration: underline;">1983_</text>
	<text transform="matrix(0.5 0.866 -0.866 0.5 654.819 351.019)" class="st0 st3 st2" style="text-decoration: underline;">Ieoh Ming Pei</text>
	<text transform="matrix(0.5 0.866 -0.866 0.5 657.5182 331.7944)" class="st0 st1 st2" style="text-decoration: underline;">1982_</text>
	<text transform="matrix(0.5 0.866 -0.866 0.5 668.6178 351.0197)" class="st0 st3 st2" style="text-decoration: underline;">Kevin Roche</text>
	<text transform="matrix(0.5 0.866 -0.866 0.5 671.316 331.7944)" class="st0 st1 st2" style="text-decoration: underline;">1981_</text>
	<text transform="matrix(0.5 0.866 -0.866 0.5 682.4156 351.0195)" class="st0 st3 st2" style="text-decoration: underline;">James Stirling</text>
	<text transform="matrix(0.5 0.866 -0.866 0.5 685.1139 331.7949)" class="st0 st1 st2" style="text-decoration: underline;">1980_</text>
	<text transform="matrix(0.5 0.866 -0.866 0.5 696.2145 351.02)" class="st0 st3 st2" style="text-decoration: underline;">Luis Barragán</text>
	<text transform="matrix(0.5 0.866 -0.866 0.5 698.9117 331.7934)" class="st0 st1 st2" style="text-decoration: underline;">1979_</text>
	<text transform="matrix(0.5 0.866 -0.866 0.5 710.0123 351.0188)" class="st0 st3 st2" style="text-decoration: underline;">Philip Johnson</text>
	<text transform="matrix(0.5 0.866 -0.866 0.5 340.1568 331.7949)" class="st0 st1 st2" style="text-decoration: underline;">2003_</text>
	<text transform="matrix(0.5 0.866 -0.866 0.5 351.2574 351.02)" class="st0 st3 st2" style="text-decoration: underline;">Jørn Utzon</text>
</g>
<rect x="48.8" y="291.6" class="st4" width="687.5" height="6"/>
<g>
	<line class="st5" x1="36.8" y1="303.8" x2="710.8" y2="303.8"/>
	<line class="st5" x1="36.8" y1="288.5" x2="710.8" y2="288.5"/>
	<line class="st5" x1="36.8" y1="273.2" x2="710.8" y2="273.2"/>
	<line class="st5" x1="36.8" y1="257.9" x2="710.8" y2="257.9"/>
	<line class="st5" x1="36.8" y1="257.9" x2="710.8" y2="257.9"/>
	<line class="st5" x1="36.8" y1="242.6" x2="710.8" y2="242.6"/>
	<line class="st5" x1="36.8" y1="319.1" x2="710.8" y2="319.1"/>
	<line class="st5" x1="36.8" y1="273.2" x2="710.8" y2="273.2"/>
	<line class="st5" x1="36.8" y1="257.9" x2="710.8" y2="257.9"/>
	<line class="st5" x1="36.8" y1="242.6" x2="710.8" y2="242.6"/>
	<line class="st5" x1="36.8" y1="227.3" x2="710.8" y2="227.3"/>
	<line class="st5" x1="36.8" y1="212" x2="710.8" y2="212"/>
	<line class="st5" x1="36.8" y1="196.7" x2="710.8" y2="196.7"/>
	<line class="st5" x1="36.8" y1="181.4" x2="710.8" y2="181.4"/>
	<line class="st5" x1="36.8" y1="166.1" x2="710.8" y2="166.1"/>
	<line class="st5" x1="36.8" y1="150.8" x2="710.8" y2="150.8"/>
	<line class="st6" x1="36.8" y1="137" x2="710.8" y2="137"/>
</g>
<rect x="48.7" y="250.3" class="st7" width="687.5" height="9.1"/>
<g>
	<line class="st8" x1="105.1" y1="10.3" x2="105.1" y2="331.3"/>
	<line class="st8" x1="118.9" y1="10.3" x2="118.9" y2="331.3"/>
	<line class="st8" x1="91.4" y1="10.3" x2="91.4" y2="331.3"/>
	<line class="st8" x1="77.6" y1="10.3" x2="77.6" y2="331.3"/>
	<line class="st8" x1="63.7" y1="10.3" x2="63.7" y2="331.4"/>
	<line class="st8" x1="49.8" y1="10.3" x2="49.8" y2="331.4"/>
	<line class="st8" x1="132.7" y1="10.3" x2="132.7" y2="331.3"/>
	<line class="st8" x1="146.5" y1="10.3" x2="146.5" y2="331.3"/>
	<line class="st9" x1="160.3" y1="10.3" x2="160.3" y2="331.3"/>
	<line class="st8" x1="174.1" y1="10.3" x2="174.1" y2="331.3"/>
	<line class="st8" x1="187.9" y1="10.3" x2="187.9" y2="331.3"/>
	<line class="st8" x1="201.7" y1="10.3" x2="201.7" y2="331.3"/>
	<line class="st8" x1="215.5" y1="10.3" x2="215.5" y2="331.3"/>
	<line class="st8" x1="229.3" y1="10.3" x2="229.3" y2="331.3"/>
	<line class="st8" x1="243.1" y1="10.3" x2="243.1" y2="331.3"/>
	<line class="st8" x1="256.9" y1="10.3" x2="256.9" y2="331.3"/>
	<line class="st8" x1="270.7" y1="10.3" x2="270.7" y2="331.3"/>
	<line class="st8" x1="284.5" y1="10.3" x2="284.5" y2="331.3"/>
	<line class="st8" x1="298.3" y1="10.3" x2="298.3" y2="331.3"/>
	<line class="st8" x1="312.1" y1="10.3" x2="312.1" y2="331.3"/>
	<line class="st9" x1="325.8" y1="10.3" x2="325.8" y2="331.3"/>
	<line class="st9" x1="339.6" y1="10.3" x2="339.6" y2="331.3"/>
	<line class="st8" x1="353.4" y1="10.3" x2="353.4" y2="331.3"/>
	<line class="st8" x1="367.2" y1="10.3" x2="367.2" y2="331.3"/>
	<line class="st8" x1="381" y1="10.3" x2="381" y2="331.3"/>
	<line class="st8" x1="394.8" y1="10.3" x2="394.8" y2="331.3"/>
	<line class="st8" x1="408.6" y1="10.3" x2="408.6" y2="331.3"/>
	<line class="st8" x1="422.4" y1="10.3" x2="422.4" y2="331.3"/>
	<line class="st9" x1="436.2" y1="10.3" x2="436.2" y2="331.3"/>
	<line class="st8" x1="450" y1="10.3" x2="450" y2="331.3"/>
	<line class="st8" x1="463.8" y1="10.3" x2="463.8" y2="331.3"/>
	<line class="st8" x1="477.6" y1="10.3" x2="477.6" y2="331.3"/>
	<line class="st8" x1="491.4" y1="10.3" x2="491.4" y2="331.3"/>
	<line class="st8" x1="505.2" y1="10.3" x2="505.2" y2="331.3"/>
	<line class="st8" x1="519" y1="10.3" x2="519" y2="331.3"/>
	<line class="st9" x1="532.8" y1="10.3" x2="532.8" y2="331.3"/>
	<line class="st8" x1="546.6" y1="10.3" x2="546.6" y2="331.3"/>
	<line class="st9" x1="560.4" y1="11.3" x2="560.4" y2="331.3"/>
	<line class="st9" x1="574.1" y1="10.3" x2="574.1" y2="331.3"/>
	<line class="st9" x1="587.9" y1="10.3" x2="587.9" y2="331.3"/>
	<line class="st8" x1="601.7" y1="10.3" x2="601.7" y2="331.3"/>
	<line class="st8" x1="615.5" y1="10.3" x2="615.5" y2="331.3"/>
	<line class="st8" x1="629.3" y1="10.3" x2="629.3" y2="331.3"/>
	<line class="st8" x1="643.1" y1="10.3" x2="643.1" y2="331.3"/>
	<line class="st8" x1="656.9" y1="10.3" x2="656.9" y2="331.3"/>
	<line class="st9" x1="670.7" y1="10.3" x2="670.7" y2="331.3"/>
	<line class="st9" x1="684.5" y1="10.3" x2="684.5" y2="331.3"/>
	<line class="st9" x1="698.3" y1="10.3" x2="698.3" y2="331.3"/>
</g>
<g>
	<path id="point-0-0_12_" class="st10" d="M102,137h5.8v90.3H102V137z"/>
	<path id="point-0-0_11_" class="st10" d="M88.2,137H94v140.8h-5.8V137z"/>
	<path id="point-0-0_9_" class="st10" d="M46.7,137.1h5.8v103.6h-5.8V137.1z"/>
	<path id="point-0-0_10_" class="st10" d="M60.8,137.1h5.8v101.6h-5.8V137.1z"/>
	<path id="point-0-0_13_" class="st10" d="M74.6,137.1h5.8V271h-5.8V137.1z"/>
	<path id="point-0-1_8_" class="st10" d="M115.8,137h5.8v88.8h-5.8V137z"/>
	<path id="point-0-2_8_" class="st10" d="M129.6,137h5.8v91.8h-5.8V137z"/>
	<path id="point-0-3_8_" class="st10" d="M143.4,137h5.8v81.1h-5.8V137z"/>
	<path id="point-0-4_30_" class="st11" d="M157.2,142.9h5.8v138h-5.8V142.9z"/>
	<path id="point-0-5_6_" class="st10" d="M171,137h5.8v96.4H171V137z"/>
	<path id="point-0-6_10_" class="st10" d="M184.8,137h5.8v120.9h-5.8V137z"/>
	<path id="point-0-7_8_" class="st10" d="M198.6,137h5.8v87.3h-5.8V137z"/>
	<path id="point-0-8_8_" class="st10" d="M212.4,137h5.8v104.1h-5.8V137z"/>
	<path id="point-0-9_8_" class="st10" d="M226.2,137h5.8v82.7h-5.8V137z"/>
	<path id="point-0-10_8_" class="st10" d="M240,137h5.8v98H240V137z"/>
	<path id="point-0-11_8_" class="st10" d="M253.8,137h5.8v117.9h-5.8V137z"/>
	<path id="point-0-12_8_" class="st10" d="M267.6,137h5.8v114.8h-5.8V137z"/>
	<path id="point-0-13_8_" class="st10" d="M281.4,137h5.8v133.2h-5.8V137z"/>
	<path id="point-0-14_8_" class="st10" d="M295.2,137h5.8v140.8h-5.8V137z"/>
	<path id="point-0-15_8_" class="st10" d="M309,137h5.8v116.3H309V137z"/>
	<path id="point-0-16_8_" class="st11" d="M322.8,140.1h5.8v102.6h-5.8V140.1z"/>
	<path id="point-0-17_8_" class="st11" d="M336.6,152.3h5.8v139.3h-5.8V152.3z"/>
	<path id="point-0-18_8_" class="st10" d="M350.4,137h5.8v128.6h-5.8V137z"/>
	<path id="point-0-19_8_" class="st10" d="M364.2,137h5.8v107.2h-5.8V137z"/>
	<path id="point-0-20_8_" class="st10" d="M378,137h5.8v107.2H378V137z"/>
	<path id="point-0-21_8_" class="st10" d="M391.8,137h5.8v116.3h-5.8V137z"/>
	<path id="point-0-22_8_" class="st10" d="M405.6,137h5.8v130.1h-5.8V137z"/>
	<path id="point-0-23_8_" class="st10" d="M419.4,137h5.8v127.1h-5.8V137z"/>
	<path id="point-0-24_8_" class="st11" d="M433.2,150.8h5.8v131.6h-5.8V150.8z"/>
	<path id="point-0-25_8_" class="st10" d="M447,137h5.8v127.1H447V137z"/>
	<path id="point-0-26_8_" class="st10" d="M460.8,137h5.8v120.9h-5.8V137z"/>
	<path id="point-0-27_8_" class="st10" d="M474.6,137h5.8v116.3h-5.8V137z"/>
	<path id="point-0-28_8_" class="st10" d="M488.4,137h5.8v140.8h-5.8V137z"/>
	<path id="point-0-29_8_" class="st10" d="M502.2,137h5.8v133.2h-5.8V137z"/>
	<path id="point-0-30_8_" class="st10" d="M516,137h5.8v143.9H516V137z"/>
	<path id="point-0-31_8_" class="st11" d="M529.8,169.1h5.8v102.6h-5.8V169.1z"/>
	<path id="point-0-32_8_" class="st10" d="M543.6,137h5.8v139.3h-5.8V137z"/>
	<path id="point-0-33_8_" class="st11" d="M557.4,179.9h5.8v125.5h-5.8V179.9z"/>
	<path id="point-0-34_8_" class="st11" d="M571.2,146.2h5.8v162.3h-5.8V146.2z"/>
	<path id="point-0-35_8_" class="st11" d="M585,156.9h5.8v142.4H585V156.9z"/>
	<path id="point-0-36_8_" class="st10" d="M598.8,137h5.8v153.1h-5.8V137z"/>
	<path id="point-0-37_8_" class="st10" d="M612.6,137h5.8v131.6h-5.8V137z"/>
	<path id="point-0-38_8_" class="st10" d="M626.4,137h5.8v131.6h-5.8V137z"/>
	<path id="point-0-39_8_" class="st10" d="M640.2,137h5.8v157.7h-5.8V137z"/>
	<path id="point-0-40_8_" class="st10" d="M654,137h5.8v150H654V137z"/>
	<path id="point-0-41_8_" class="st11" d="M667.8,176.8h5.8v102.6h-5.8V176.8z"/>
	<path id="point-0-42_8_" class="st11" d="M681.6,182.9h5.8v133.2h-5.8V182.9z"/>
	<path id="point-0-43_8_" class="st11" d="M695.4,156.9h5.8V310h-5.8V156.9z"/>
</g>
<g>
	<g>
		<line class="st5" x1="36.3" y1="95.7" x2="711.4" y2="95.7"/>
		<line class="st5" x1="36.3" y1="80.4" x2="711.4" y2="80.4"/>
		<line class="st5" x1="36.3" y1="111" x2="711.4" y2="111"/>
		<line class="st5" x1="36.3" y1="65.1" x2="711.4" y2="65.1"/>
		<line class="st5" x1="36.3" y1="49.8" x2="711.4" y2="49.8"/>
		<line class="st5" x1="36.3" y1="34.5" x2="711.4" y2="34.5"/>
		<line class="st5" x1="36.3" y1="19.2" x2="711.4" y2="19.2"/>
	</g>
	<g>
		<g>
			<g>
				<text transform="matrix(1 0 0 1 26.6667 21.0417)" class="st12 st3 st13">105</text>
			</g>
			<g>
				<text transform="matrix(1 0 0 1 29.6667 35.9166)" class="st12 st3 st13">95</text>
			</g>
			<g>
				<text transform="matrix(1 0 0 1 29.6667 51.4166)" class="st12 st3 st13">85</text>
			</g>
			<g>
				<text transform="matrix(1 0 0 1 29.6667 66.5416)" class="st12 st3 st13">75</text>
			</g>
			<g>
				<text transform="matrix(1 0 0 1 29.6667 81.7916)" class="st12 st3 st13">65</text>
			</g>
			<g>
				<text transform="matrix(1 0 0 1 29.6667 97.2916)" class="st12 st3 st13">55</text>
			</g>
			<g>
				<text transform="matrix(1 0 0 1 29.6667 112.4166)" class="st12 st3 st13">45</text>
			</g>
		</g>
		<g>
			<g>
				<text transform="matrix(1 0 0 1 712.2917 21.2917)" class="st12 st3 st13">105</text>
			</g>
			<g>
				<text transform="matrix(1 0 0 1 712.2917 36.1666)" class="st12 st3 st13">95</text>
			</g>
			<g>
				<text transform="matrix(1 0 0 1 712.2917 51.6666)" class="st12 st3 st13">85</text>
			</g>
			<g>
				<text transform="matrix(1 0 0 1 712.2917 66.7916)" class="st12 st3 st13">75</text>
			</g>
			<g>
				<text transform="matrix(1 0 0 1 712.2917 82.0416)" class="st12 st3 st13">65</text>
			</g>
			<g>
				<text transform="matrix(1 0 0 1 712.2917 97.5416)" class="st12 st3 st13">55</text>
			</g>
			<g>
				<text transform="matrix(1 0 0 1 712.2917 112.6666)" class="st12 st3 st13">45</text>
			</g>
		</g>
	</g>
	<g class="st14">
		<path class="st15" d="M92.8,36.8c7,23.9,9.3,49.6,12.2,51.4c4,2.5,9.2,1.5,13.8,1.5s9.2-3.1,13.8-3.1s9.2,10.7,13.8,10.7
			s9.2-58.1,13.8-58.1S169.4,82,174,82s9.2-24.5,13.8-24.5s9.2,33.6,13.8,33.6s9.2-16.8,13.8-16.8s9.2,21.4,13.8,21.4
			s9.2-9.4,13.8-15.3s9.2-19.9,13.8-19.9c4.6,0,9.2,3.1,13.8,3.1s9.2-14,13.8-18.4s9.2-7.6,13.8-7.6s9.2,18.1,13.8,24.5
			s9.2,13.8,13.8,13.8c4.6,0,9.2-36.7,13.8-36.7s9.2,5.4,13.8,10.7c4.4,5.4,9,21.4,13.6,21.4s9.2,0,13.8,0c4.6,0,9.2-5.4,13.8-9.2
			c4.6-3.8,9.2-13.8,13.8-13.8c4.6,0,9.2,3.1,13.8,3.1s9.2-4.6,13.8-4.6c4.6,0,9.2,2.8,13.8,4.6s9.2,4.3,13.8,6.1
			c4.6,1.8,9.2,4.6,13.8,4.6s9.2-24.5,13.8-24.5c4.6,0,9.2,7.6,13.8,7.6s9.2-10.7,13.8-10.7s9.2,41.3,13.8,41.3s9.2-36.7,13.8-36.7
			s9.2,13.8,13.8,13.8s9-36.6,13.6-36.6s9.2,19.9,13.8,19.9s9.2-10.7,13.8-10.7s9.2,21.4,13.8,21.4s9.2,0,13.8,0s9.2-26,13.8-26
			s9.2,2.5,13.8,7.6s9.2,47.4,13.8,47.4s9.2-22.2,13.8-30.6s9.2-14.1,13.8-19.9l-0.3,41.9c-4.6-3.8-9.2-7.6-13.8-7.6
			s-9.2,35-13.8,35s-9.2-4.8-13.8-7.6c-4.6-2.8-9.2-9.1-13.8-9.1s-9.2,24.4-13.8,24.4s-9.2-0.5-13.8-1.5s-9.2-17-13.8-22.8
			s-9.2-8.4-13.8-12.2c-4.6-3.8-9.2-10.7-13.8-10.7s-9.2,1-13.8,3s-9.2,27.9-13.8,28.9s-9.2,1.5-13.8,1.5s-9.2-10.7-13.8-10.7
			s-9.2,10.7-13.8,10.7c-4.6,0-9.2-9.1-13.8-9.1s-9.2,22.8-13.8,22.8c-4.6,0-9.2-3.8-13.8-6.1c-4.6-2.3-9.2-2.8-13.8-7.6
			c-4.3-4.8-8.9-21.3-13.5-21.3s-9.2,18.3-13.8,18.3s-9.2-4.6-13.8-4.6c-4.6,0-9.2,8.9-13.8,12.2s-9.2,7.6-13.8,7.6
			c-4.6,0-9.2,0-13.8,0c-4.6,0-9.2-14.2-13.8-22.8c-4.6-8.6-9.2-28.9-13.8-28.9c-4.6,0-9.2,47.2-13.8,47.2c-4.6,0-9.2-4.6-13.8-10.7
			c-4.6-6.1-9.2-25.9-13.8-25.9s-9.2,2.3-13.8,6.1c-4.6,3.8-9.2,16.7-13.8,16.7s-9.2-4.6-13.8-4.6c-4.6,0-9.2,12.7-13.8,18.3
			s-9.2,15.2-13.8,15.2s-9.2-22.8-13.8-22.8s-9.2,15.2-13.8,15.2s-9.2-35-13.8-35s-9.2,22.8-13.8,22.8s-9.2-50.2-13.8-50.2
			s-9.2,62.4-13.8,62.4s-9.2-12.2-13.8-12.2c-4.6,0-9.2,3-13.8,3s-9.2-0.5-13.8-1.5c-4.6-1-7.6-27.9-12.2-54L90.8,36L92.8,36.8z"/>
		<polygon class="st15" points="90.3,36.5 88.1,37.4 84.1,41.2 79.2,45.5 75.2,48.9 71.7,56.2 68.4,67.2 65.6,73.9 70.7,65.1 
			77.3,51.2 86.1,43.2 89.9,38 		"/>
	</g>
	<g>
		<g>
			<path class="st16" d="M91.3,35.7c4.7-3.2,9.2,51,13.8,52s9.2,1.5,13.8,1.5s9.2-3.1,13.8-3.1s9.2,10.7,13.8,10.7
				s9.2-58.1,13.8-58.1s9.2,42.8,13.8,42.8S183.3,57,187.9,57s9.2,33.6,13.8,33.6s9.2-16.8,13.8-16.8s9.2,21.4,13.8,21.4
				s9.2-9.4,13.8-15.3S252.3,60,256.9,60c4.6,0,9.2,3.1,13.8,3.1s9.2-14,13.8-18.4s9.2-7.6,13.8-7.6s9.2,18.1,13.8,24.5
				s9.2,13.8,13.8,13.8c4.6,0,9.2-36.7,13.8-36.7s9.2,5.4,13.8,10.7c4.6,5.4,9.2,21.4,13.8,21.4s9.2,0,13.8,0
				c4.6,0,9.2-5.4,13.8-9.2c4.6-3.8,9.2-13.8,13.8-13.8c4.6,0,9.2,3.1,13.8,3.1s9.2-4.6,13.8-4.6c4.6,0,9.2,2.8,13.8,4.6
				s9.2,4.3,13.8,6.1c4.6,1.8,9.2,4.6,13.8,4.6s9.2-24.5,13.8-24.5c4.6,0,9.2,7.6,13.8,7.6S514.5,34,519.1,34s9.2,41.3,13.8,41.3
				s9.2-36.7,13.8-36.7s9.2,13.8,13.8,13.8s9.2-36.7,13.8-36.7s9.2,19.9,13.8,19.9s9.2-10.7,13.8-10.7s9.2,21.4,13.8,21.4
				s9.2,0,13.8,0s9.2-26,13.8-26s9.2,2.5,13.8,7.6s9.2,47.4,13.8,47.4s9.2-22.2,13.8-30.6s9.2-14.1,13.8-19.9"/>
			<path class="st16" d="M90.9,35.6c0,0-2.8,1.2-5.8,4.4s-7.4,6.4-7.8,6.5s-4.9,6.1-6.5,13C69.2,66.4,65,75.6,64,76.1
				s-8.1,0.8-14.5-1.6"/>
		</g>
		<g id="data-points_4_" class="st17">
			<g transform="translate(45,10)">
				<path id="point-0-0_8_" class="st18" d="M45,26.3c0-0.7,0.6-1.2,1.2-1.2s1.2,0.6,1.2,1.2c0,0.7-0.6,1.2-1.2,1.2S45,27,45,26.3z"
					/>
				<path id="point-0-0_17_" class="st18" d="M31.4,36.2c0-0.7,0.6-1.2,1.2-1.2s1.2,0.6,1.2,1.2s-0.6,1.2-1.2,1.2
					S31.4,36.9,31.4,36.2z"/>
				<path id="point-0-1_6_" class="st18" d="M58.8,77.4c0-0.7,0.6-1.2,1.2-1.2s1.2,0.6,1.2,1.2c0,0.7-0.6,1.2-1.2,1.2
					S58.8,78,58.8,77.4L58.8,77.4z"/>
				<path id="point-0-2_6_" class="st18" d="M72.9,79.2c0-0.7,0.6-1.2,1.2-1.2s1.2,0.6,1.2,1.2s-0.6,1.2-1.2,1.2
					S72.9,79.9,72.9,79.2z"/>
				<path id="point-0-3_6_" class="st18" d="M86.2,76.1c0-0.7,0.6-1.2,1.2-1.2c0.7,0,1.2,0.6,1.2,1.2c0,0.7-0.6,1.2-1.2,1.2
					C86.8,77.3,86.2,76.8,86.2,76.1L86.2,76.1z"/>
				<path id="point-0-4_17_" class="st18" d="M100,86.5c0-0.7,0.6-1.2,1.2-1.2c0.7,0,1.2,0.6,1.2,1.2c0,0.7-0.6,1.2-1.2,1.2
					C100.6,87.8,100,87.2,100,86.5z"/>
				<path id="point-0-6_8_" class="st18" d="M128.1,71.4c0-0.7,0.6-1.2,1.2-1.2s1.2,0.6,1.2,1.2s-0.6,1.2-1.2,1.2
					S128.1,72.1,128.1,71.4z"/>
				<path id="point-0-7_6_" class="st18" d="M141.8,47.2c0-0.7,0.6-1.2,1.2-1.2s1.2,0.6,1.2,1.2c0,0.7-0.6,1.2-1.2,1.2
					S141.8,47.9,141.8,47.2z"/>
				<path id="point-0-8_6_" class="st18" d="M155.6,80.4c0-0.7,0.6-1.2,1.2-1.2s1.2,0.6,1.2,1.2s-0.6,1.2-1.2,1.2
					S155.6,81.1,155.6,80.4z"/>
				<path id="point-0-9_6_" class="st18" d="M169.4,64c0-0.7,0.6-1.2,1.2-1.2c0.7,0,1.2,0.6,1.2,1.2c0,0.7-0.6,1.2-1.2,1.2
					S169.4,64.6,169.4,64z"/>
				<path id="point-0-10_6_" class="st18" d="M183.2,85.5c0-0.7,0.6-1.2,1.2-1.2c0.7,0,1.2,0.6,1.2,1.2c0,0.7-0.6,1.2-1.2,1.2
					C183.7,86.7,183.2,86.1,183.2,85.5z"/>
				<path id="point-0-11_6_" class="st18" d="M197,70.2c0-0.7,0.6-1.2,1.2-1.2c0.7,0,1.2,0.6,1.2,1.2s-0.6,1.2-1.2,1.2
					C197.5,71.4,197,70.8,197,70.2z"/>
				<path id="point-0-12_6_" class="st18" d="M210.8,50.4c0-0.7,0.6-1.2,1.2-1.2c0.7,0,1.2,0.6,1.2,1.2c0,0.7-0.6,1.2-1.2,1.2
					C211.3,51.6,210.8,51.1,210.8,50.4z"/>
				<path id="point-0-13_6_" class="st18" d="M224.6,52.9c0-0.7,0.6-1.2,1.2-1.2c0.7,0,1.2,0.6,1.2,1.2c0,0.7-0.6,1.2-1.2,1.2
					C225.1,54.1,224.6,53.5,224.6,52.9z"/>
				<path id="point-0-14_6_" class="st18" d="M238.3,34.5c0-0.7,0.6-1.2,1.2-1.2s1.2,0.6,1.2,1.2c0,0.7-0.6,1.2-1.2,1.2
					S238.3,35.2,238.3,34.5z"/>
				<path id="point-0-15_6_" class="st18" d="M252.1,26.8c0-0.7,0.6-1.2,1.2-1.2s1.2,0.6,1.2,1.2c0,0.7-0.6,1.2-1.2,1.2
					S252.1,27.5,252.1,26.8z"/>
				<path id="point-0-16_6_" class="st18" d="M265.9,51.7c0-0.7,0.6-1.2,1.2-1.2s1.2,0.6,1.2,1.2c0,0.7-0.6,1.2-1.2,1.2
					S265.9,52.3,265.9,51.7z"/>
				<path id="point-0-17_6_" class="st18" d="M279.7,65.7c0-0.7,0.6-1.2,1.2-1.2s1.2,0.6,1.2,1.2c0,0.7-0.6,1.2-1.2,1.2
					S279.7,66.4,279.7,65.7z"/>
				<path id="point-0-18_6_" class="st18" d="M293.5,28.8c0-0.7,0.6-1.2,1.2-1.2s1.2,0.6,1.2,1.2c0,0.7-0.6,1.2-1.2,1.2
					S293.5,29.4,293.5,28.8z"/>
				<path id="point-0-19_6_" class="st18" d="M307.3,39.5c0-0.7,0.6-1.2,1.2-1.2c0.7,0,1.2,0.6,1.2,1.2s-0.6,1.2-1.2,1.2
					C307.8,40.8,307.3,40.2,307.3,39.5z"/>
				<path id="point-0-20_6_" class="st18" d="M321.1,60.5c0-0.7,0.6-1.2,1.2-1.2s1.2,0.6,1.2,1.2c0,0.7-0.6,1.2-1.2,1.2
					S321.1,61.2,321.1,60.5z"/>
				<path id="point-0-21_6_" class="st18" d="M334.9,60.8c0-0.7,0.6-1.2,1.2-1.2c0.7,0,1.2,0.6,1.2,1.2c0,0.7-0.6,1.2-1.2,1.2
					C335.4,62.1,334.9,61.5,334.9,60.8z"/>
				<path id="point-0-22_6_" class="st18" d="M348.6,51.7c0-0.7,0.6-1.2,1.2-1.2s1.2,0.6,1.2,1.2c0,0.7-0.6,1.2-1.2,1.2
					S348.6,52.3,348.6,51.7z"/>
				<path id="point-0-23_6_" class="st18" d="M362.4,37.6c0-0.7,0.6-1.2,1.2-1.2s1.2,0.6,1.2,1.2s-0.6,1.2-1.2,1.2
					S362.4,38.2,362.4,37.6L362.4,37.6z"/>
				<path id="point-0-24_6_" class="st18" d="M376.2,40.6c0-0.7,0.6-1.2,1.2-1.2s1.2,0.6,1.2,1.2c0,0.7-0.6,1.2-1.2,1.2
					S376.2,41.3,376.2,40.6z"/>
				<path id="point-0-25_6_" class="st18" d="M390,36c0-0.7,0.6-1.2,1.2-1.2c0.7,0,1.2,0.6,1.2,1.2l0,0c0,0.7-0.6,1.2-1.2,1.2
					C390.6,37.3,390,36.7,390,36z"/>
				<path id="point-0-26_6_" class="st18" d="M403.8,40.6c0-0.7,0.6-1.2,1.2-1.2s1.2,0.6,1.2,1.2c0,0.7-0.6,1.2-1.2,1.2
					S403.8,41.3,403.8,40.6z"/>
				<path id="point-0-27_6_" class="st18" d="M417.6,46.7c0-0.7,0.6-1.2,1.2-1.2c0.7,0,1.2,0.6,1.2,1.2c0,0.7-0.6,1.2-1.2,1.2
					C418.1,48,417.6,47.4,417.6,46.7z"/>
				<path id="point-0-28_6_" class="st18" d="M431.4,51.7c0-0.7,0.6-1.2,1.2-1.2s1.2,0.6,1.2,1.2c0,0.7-0.6,1.2-1.2,1.2
					S431.4,52.3,431.4,51.7z"/>
				<path id="point-0-29_6_" class="st18" d="M445.1,26.8c0-0.7,0.6-1.2,1.2-1.2c0.7,0,1.2,0.6,1.2,1.2c0,0.7-0.6,1.2-1.2,1.2
					C445.7,28.1,445.1,27.5,445.1,26.8z"/>
				<path id="point-0-30_6_" class="st18" d="M458.9,34.5c0-0.7,0.6-1.2,1.2-1.2s1.2,0.6,1.2,1.2c0,0.7-0.6,1.2-1.2,1.2
					S458.9,35.2,458.9,34.5z"/>
				<path id="point-0-31_6_" class="st18" d="M472.7,24.2c0-0.7,0.6-1.2,1.2-1.2s1.2,0.6,1.2,1.2c0,0.7-0.6,1.2-1.2,1.2
					S472.7,24.9,472.7,24.2z"/>
				<path id="point-0-32_6_" class="st18" d="M486.5,65c0-0.7,0.6-1.2,1.2-1.2s1.2,0.6,1.2,1.2c0,0.7-0.6,1.2-1.2,1.2
					S486.5,65.7,486.5,65z"/>
				<path id="point-0-33_6_" class="st18" d="M500.3,28.8c0-0.7,0.6-1.2,1.2-1.2s1.2,0.6,1.2,1.2c0,0.7-0.6,1.2-1.2,1.2
					S500.3,29.5,500.3,28.8z"/>
				<path id="point-0-34_6_" class="st18" d="M513.8,42.6c0-0.7,0.6-1.2,1.2-1.2s1.2,0.6,1.2,1.2s-0.6,1.2-1.2,1.2
					S513.8,43.3,513.8,42.6z"/>
				<path id="point-0-35_6_" class="st18" d="M527.9,5.8c0-0.7,0.6-1.2,1.2-1.2s1.2,0.6,1.2,1.2S529.7,7,529.1,7
					S527.9,6.5,527.9,5.8z"/>
				<path id="point-0-36_6_" class="st18" d="M541.7,25.7c0-0.7,0.6-1.2,1.2-1.2s1.2,0.6,1.2,1.2c0,0.7-0.6,1.2-1.2,1.2
					S541.7,26.4,541.7,25.7z"/>
				<path id="point-0-37_6_" class="st18" d="M555.4,15.1c0-0.7,0.6-1.2,1.2-1.2s1.2,0.6,1.2,1.2s-0.6,1.2-1.2,1.2
					S555.4,15.8,555.4,15.1z"/>
				<path id="point-0-38_6_" class="st18" d="M569.2,36c0-0.7,0.6-1.2,1.2-1.2s1.2,0.6,1.2,1.2l0,0c0,0.7-0.6,1.2-1.2,1.2
					S569.2,36.7,569.2,36z"/>
				<path id="point-0-39_6_" class="st18" d="M583,36c0-0.7,0.6-1.2,1.2-1.2s1.2,0.6,1.2,1.2l0,0c0,0.7-0.6,1.2-1.2,1.2
					S583,36.7,583,36z"/>
				<path id="point-0-40_6_" class="st18" d="M596.8,10c0-0.7,0.6-1.2,1.2-1.2s1.2,0.6,1.2,1.2s-0.6,1.2-1.2,1.2
					S596.8,10.7,596.8,10z"/>
				<path id="point-0-41_6_" class="st18" d="M610.6,17.7c0-0.7,0.6-1.2,1.2-1.2s1.2,0.6,1.2,1.2l0,0c0,0.7-0.6,1.2-1.2,1.2
					S610.6,18.3,610.6,17.7z"/>
				<path id="point-0-42_6_" class="st18" d="M624.4,65.2c0-0.7,0.6-1.2,1.2-1.2s1.2,0.6,1.2,1.2c0,0.7-0.6,1.2-1.2,1.2
					S624.4,65.9,624.4,65.2z"/>
				<path id="point-0-43_6_" class="st18" d="M638.2,34.4c0-0.7,0.6-1.2,1.2-1.2s1.2,0.6,1.2,1.2c0,0.7-0.6,1.2-1.2,1.2
					S638.2,35.1,638.2,34.4z"/>
				<path id="point-0-44_3_" class="st18" d="M652,15.2c0-0.7,0.6-1.2,1.2-1.2s1.2,0.6,1.2,1.2s-0.6,1.2-1.2,1.2S652,15.9,652,15.2z
					"/>
			</g>
		</g>
		<g>
			<g transform="translate(45, 10)">
			</g>
		</g>
	</g>
	<g>
		<g>
			<path class="st19" d="M697.7,66.8c-4.6-3.8-9.2-7.6-13.8-7.6s-9.2,35-13.8,35s-9.2-4.8-13.8-7.6c-4.6-2.8-9.2-9.1-13.8-9.1
				s-9.2,24.4-13.8,24.4s-9.2-0.5-13.8-1.5s-9.2-17-13.8-22.8s-9.2-8.4-13.8-12.2c-4.6-3.8-9.2-10.7-13.8-10.7s-9.2,1-13.8,3
				s-9.2,27.9-13.8,28.9s-9.2,1.5-13.8,1.5s-9.2-10.7-13.8-10.7s-9.2,10.7-13.8,10.7c-4.6,0-9.2-9.1-13.8-9.1s-9.2,22.8-13.8,22.8
				c-4.6,0-9.2-3.8-13.8-6.1c-4.6-2.3-9.2-2.8-13.8-7.6c-4.6-4.8-9.2-21.3-13.8-21.3c-4.6,0-9.2,18.3-13.8,18.3s-9.2-4.6-13.8-4.6
				c-4.6,0-9.2,8.9-13.8,12.2s-9.2,7.6-13.8,7.6c-4.6,0-9.2,0-13.8,0c-4.6,0-9.2-14.2-13.8-22.8c-4.6-8.6-9.2-28.9-13.8-28.9
				c-4.6,0-9.2,47.2-13.8,47.2c-4.6,0-9.2-4.6-13.8-10.7c-4.6-6.1-9.2-25.9-13.8-25.9s-9.2,2.3-13.8,6.1S274.5,82,269.9,82
				s-9.2-4.6-13.8-4.6c-4.6,0-9.2,12.7-13.8,18.3s-9.2,15.2-13.8,15.2s-9.2-22.8-13.8-22.8s-9.2,15.2-13.8,15.2s-9.2-35-13.8-35
				s-9.2,22.8-13.8,22.8s-9.2-50.2-13.8-50.2s-9.2,62.4-13.8,62.4s-9.2-12.2-13.8-12.2c-4.6,0-9.2,3-13.8,3s-9.2-0.5-13.8-1.5
				c-4.6-1-10.3-54.3-13.8-53.3c0,0-0.8-1.5-4.6,3s-7.4,5.8-8.9,6.6s-4.5,13.9-8,19.7s-5,7.5-5.5,7.6s-5.4,1-13.5-1.4"/>
		</g>
		<g id="data-points_3_">
			<g transform="translate(45,10)">
				<path id="point-0-0_7_" class="st20" d="M44.9,29.4c0-0.7,0.6-1.2,1.2-1.2s1.2,0.6,1.2,1.2c0,0.7-0.6,1.2-1.2,1.2
					S44.9,30.1,44.9,29.4z"/>
				<path id="point-0-0_16_" class="st20" d="M31.4,38.7c0-0.7,0.6-1.2,1.2-1.2c0.7,0,1.2,0.6,1.2,1.2c0,0.7-0.6,1.2-1.2,1.2
					C31.9,39.9,31.4,39.3,31.4,38.7z"/>
				<path id="point-0-1_5_" class="st20" d="M58.7,82.7c0-0.7,0.6-1.2,1.2-1.2c0.7,0,1.2,0.6,1.2,1.2s-0.6,1.2-1.2,1.2
					C59.2,83.9,58.7,83.4,58.7,82.7z"/>
				<path id="point-0-2_5_" class="st20" d="M72.4,84.2c0-0.7,0.6-1.2,1.2-1.2s1.2,0.6,1.2,1.2s-0.6,1.2-1.2,1.2
					S72.4,84.9,72.4,84.2z"/>
				<path id="point-0-3_5_" class="st20" d="M86.2,81.3c0-0.7,0.6-1.2,1.2-1.2s1.2,0.6,1.2,1.2s-0.6,1.2-1.2,1.2
					S86.2,81.9,86.2,81.3z"/>
				<path id="point-0-4_16_" class="st20" d="M100,93.4c0-0.7,0.6-1.2,1.2-1.2c0.7,0,1.2,0.6,1.2,1.2l0,0c0,0.7-0.6,1.2-1.2,1.2
					C100.6,94.6,100,94,100,93.4z"/>
				<path id="point-0-5_4_" class="st20" d="M113.8,31c0-0.7,0.6-1.2,1.2-1.2c0.7,0,1.2,0.6,1.2,1.2c0,0.7-0.6,1.2-1.2,1.2
					C114.4,32.3,113.8,31.7,113.8,31z"/>
				<g>
					<g>
						<defs>
							<rect id="SVGID_1_" x="111.1" y="27.1" width="7.6" height="3.9"/>
						</defs>
						<clipPath id="SVGID_2_">
							<use xlink:href="#SVGID_1_"  style="overflow:visible;"/>
						</clipPath>
						<path id="point-0-6_7_" class="st21" d="M113.8,31c0-0.7,0.6-1.2,1.2-1.2s1.2,0.6,1.2,1.2s-0.6,1.2-1.2,1.2
							S113.8,31.7,113.8,31z"/>
					</g>
				</g>
				<path id="point-0-6_6_" class="st20" d="M127.6,81.1c0-0.7,0.6-1.2,1.2-1.2s1.2,0.6,1.2,1.2c0,0.7-0.6,1.2-1.2,1.2
					S127.6,81.8,127.6,81.1z"/>
				<path id="point-0-7_5_" class="st20" d="M141.4,58.4c0-0.7,0.6-1.2,1.2-1.2s1.2,0.6,1.2,1.2s-0.6,1.2-1.2,1.2
					S141.4,59.1,141.4,58.4z"/>
				<path id="point-0-8_5_" class="st20" d="M155.2,93.4c0-0.7,0.6-1.2,1.2-1.2s1.2,0.6,1.2,1.2l0,0c0,0.7-0.6,1.2-1.2,1.2
					S155.2,94,155.2,93.4z"/>
				<path id="point-0-9_5_" class="st20" d="M168.9,78.1c0-0.7,0.6-1.2,1.2-1.2s1.2,0.6,1.2,1.2c0,0.7-0.6,1.2-1.2,1.2
					S168.9,78.8,168.9,78.1z"/>
				<path id="point-0-10_5_" class="st20" d="M182.7,101c0-0.7,0.6-1.2,1.2-1.2s1.2,0.6,1.2,1.2c0,0.7-0.6,1.2-1.2,1.2
					S182.7,101.7,182.7,101z"/>
				<path id="point-0-11_5_" class="st20" d="M196.5,85.7c0-0.7,0.6-1.2,1.2-1.2c0.7,0,1.2,0.6,1.2,1.2l0,0c0,0.7-0.6,1.2-1.2,1.2
					S196.5,86.4,196.5,85.7z"/>
				<path id="point-0-12_5_" class="st20" d="M210.3,67.5c0-0.7,0.6-1.2,1.2-1.2c0.7,0,1.2,0.6,1.2,1.2c0,0.7-0.6,1.2-1.2,1.2
					C210.9,68.7,210.3,68.2,210.3,67.5z"/>
				<path id="point-0-13_5_" class="st20" d="M224.1,72.1c0-0.7,0.6-1.2,1.2-1.2c0.7,0,1.2,0.6,1.2,1.2c0,0.7-0.6,1.2-1.2,1.2
					C224.6,73.3,224.1,72.7,224.1,72.1z"/>
				<path id="point-0-14_5_" class="st20" d="M237.9,55.3c0-0.7,0.6-1.2,1.2-1.2c0.7,0,1.2,0.6,1.2,1.2l0,0c0,0.7-0.6,1.2-1.2,1.2
					C238.4,56.6,237.9,56,237.9,55.3z"/>
				<path id="point-0-15_5_" class="st20" d="M251.7,49.3c0-0.7,0.6-1.2,1.2-1.2c0.7,0,1.2,0.6,1.2,1.2c0,0.7-0.6,1.2-1.2,1.2
					C252.2,50.5,251.7,50,251.7,49.3z"/>
				<path id="point-0-16_5_" class="st20" d="M265.5,75.1c0-0.7,0.6-1.2,1.2-1.2s1.2,0.6,1.2,1.2s-0.6,1.2-1.2,1.2
					S265.5,75.8,265.5,75.1z"/>
				<path id="point-0-17_5_" class="st20" d="M279.2,85.7c0-0.7,0.6-1.2,1.2-1.2s1.2,0.6,1.2,1.2l0,0c0,0.7-0.6,1.2-1.2,1.2
					S279.2,86.4,279.2,85.7z"/>
				<path id="point-0-18_5_" class="st20" d="M293,38.6c0-0.7,0.6-1.2,1.2-1.2s1.2,0.6,1.2,1.2s-0.6,1.2-1.2,1.2S293,39.2,293,38.6z
					"/>
				<path id="point-0-19_5_" class="st20" d="M306.8,66.9c0-0.7,0.6-1.2,1.2-1.2s1.2,0.6,1.2,1.2c0,0.7-0.6,1.2-1.2,1.2
					S306.8,67.6,306.8,66.9z"/>
				<path id="point-0-20_5_" class="st20" d="M320.6,90.3c0-0.7,0.6-1.2,1.2-1.2s1.2,0.6,1.2,1.2s-0.6,1.2-1.2,1.2
					S320.6,91,320.6,90.3z"/>
				<path id="point-0-21_5_" class="st20" d="M334.4,90.3c0-0.7,0.6-1.2,1.2-1.2s1.2,0.6,1.2,1.2c0,0.7-0.6,1.2-1.2,1.2
					S334.4,91,334.4,90.3z"/>
				<path id="point-0-22_5_" class="st20" d="M348.2,82.7c0-0.7,0.6-1.2,1.2-1.2s1.2,0.6,1.2,1.2s-0.6,1.2-1.2,1.2
					S348.2,83.3,348.2,82.7L348.2,82.7z"/>
				<path id="point-0-23_5_" class="st20" d="M362,70.6c0-0.7,0.6-1.2,1.2-1.2s1.2,0.6,1.2,1.2s-0.6,1.2-1.2,1.2S362,71.2,362,70.6z
					"/>
				<path id="point-0-24_5_" class="st20" d="M375.8,75.1c0-0.7,0.6-1.2,1.2-1.2c0.7,0,1.2,0.6,1.2,1.2s-0.5,1.2-1.2,1.2
					S375.8,75.7,375.8,75.1z"/>
				<path id="point-0-25_5_" class="st20" d="M389.5,56.9c0-0.7,0.6-1.2,1.2-1.2s1.2,0.6,1.2,1.2c0,0.7-0.6,1.2-1.2,1.2
					S389.5,57.6,389.5,56.9z"/>
				<path id="point-0-26_5_" class="st20" d="M403.3,78.1c0-0.7,0.6-1.2,1.2-1.2c0.7,0,1.2,0.6,1.2,1.2c0,0.7-0.6,1.2-1.2,1.2
					C403.9,79.4,403.3,78.8,403.3,78.1z"/>
				<path id="point-0-27_5_" class="st20" d="M417.1,85.7c0-0.7,0.6-1.2,1.2-1.2s1.2,0.6,1.2,1.2l0,0c0,0.7-0.6,1.2-1.2,1.2
					S417.1,86.4,417.1,85.7z"/>
				<path id="point-0-28_5_" class="st20" d="M430.9,91.8c0-0.7,0.6-1.2,1.2-1.2c0.7,0,1.2,0.6,1.2,1.2c0,0.7-0.6,1.2-1.2,1.2
					C431.4,93.1,430.9,92.5,430.9,91.8z"/>
				<path id="point-0-29_5_" class="st20" d="M444.7,69c0-0.7,0.6-1.2,1.2-1.2s1.2,0.6,1.2,1.2s-0.6,1.2-1.2,1.2
					S444.7,69.7,444.7,69z"/>
				<path id="point-0-30_5_" class="st20" d="M458.5,78.1c0-0.7,0.6-1.2,1.2-1.2s1.2,0.6,1.2,1.2c0,0.7-0.6,1.2-1.2,1.2
					S458.5,78.8,458.5,78.1z"/>
				<path id="point-0-31_5_" class="st20" d="M472.3,67.5c0-0.7,0.6-1.2,1.2-1.2s1.2,0.6,1.2,1.2s-0.6,1.2-1.2,1.2
					S472.3,68.2,472.3,67.5z"/>
				<path id="point-0-32_5_" class="st20" d="M486,78.1c0-0.7,0.6-1.2,1.2-1.2c0.7,0,1.2,0.6,1.2,1.2s-0.6,1.2-1.2,1.2
					C486.6,79.4,486,78.8,486,78.1z"/>
				<path id="point-0-33_5_" class="st20" d="M499.8,76.6c0-0.7,0.6-1.2,1.2-1.2s1.2,0.6,1.2,1.2c0,0.7-0.6,1.2-1.2,1.2
					S499.8,77.3,499.8,76.6z"/>
				<path id="point-0-34_5_" class="st20" d="M513.6,47.7c0-0.7,0.6-1.2,1.2-1.2s1.2,0.6,1.2,1.2c0,0.7-0.6,1.2-1.2,1.2
					S513.6,48.4,513.6,47.7z"/>
				<path id="point-0-35_5_" class="st20" d="M527.4,44.6c0-0.7,0.6-1.2,1.2-1.2c0.7,0,1.2,0.6,1.2,1.2c0,0.7-0.6,1.2-1.2,1.2
					S527.4,45.3,527.4,44.6z"/>
				<path id="point-0-36_5_" class="st20" d="M541.2,55.1c0-0.7,0.6-1.2,1.2-1.2s1.2,0.6,1.2,1.2l0,0c0,0.7-0.6,1.2-1.2,1.2
					S541.2,55.8,541.2,55.1z"/>
				<path id="point-0-37_5_" class="st20" d="M555,67.5c0-0.7,0.6-1.2,1.2-1.2s1.2,0.6,1.2,1.2c0,0.7-0.6,1.2-1.2,1.2
					S555,68.2,555,67.5z"/>
				<path id="point-0-38_5_" class="st20" d="M568.8,90.3c0-0.7,0.6-1.2,1.2-1.2s1.2,0.6,1.2,1.2s-0.6,1.2-1.2,1.2
					S568.8,90.9,568.8,90.3z"/>
				<path id="point-0-39_5_" class="st20" d="M582.6,91.8c0-0.7,0.6-1.2,1.2-1.2c0.7,0,1.2,0.6,1.2,1.2s-0.6,1.2-1.2,1.2
					C583.1,93.1,582.6,92.5,582.6,91.8z"/>
				<path id="point-0-40_5_" class="st20" d="M596.3,67.5c0-0.7,0.6-1.2,1.2-1.2s1.2,0.6,1.2,1.2s-0.6,1.2-1.2,1.2
					S596.3,68.2,596.3,67.5z"/>
				<path id="point-0-41_5_" class="st20" d="M610.1,76.6c0-0.7,0.6-1.2,1.2-1.2s1.2,0.6,1.2,1.2c0,0.7-0.6,1.2-1.2,1.2
					S610.1,77.3,610.1,76.6z"/>
				<path id="point-0-42_5_" class="st20" d="M623.9,84.2c0-0.7,0.6-1.2,1.2-1.2s1.2,0.6,1.2,1.2s-0.6,1.2-1.2,1.2
					S623.9,84.9,623.9,84.2z"/>
				<path id="point-0-43_5_" class="st20" d="M637.7,49.2c0-0.7,0.6-1.2,1.2-1.2s1.2,0.6,1.2,1.2s-0.6,1.2-1.2,1.2
					S637.7,49.9,637.7,49.2z"/>
				<path id="point-0-44_2_" class="st20" d="M651.5,56.8c0-0.7,0.6-1.2,1.2-1.2s1.2,0.6,1.2,1.2c0,0.7-0.6,1.2-1.2,1.2
					S651.5,57.5,651.5,56.8z"/>
				<g>
					<path id="point-0-0_14_" class="st20" d="M3.6,64.6c0-0.7,0.6-1.2,1.2-1.2S6,63.9,6,64.6c0,0.7-0.6,1.2-1.2,1.2
						S3.6,65.3,3.6,64.6z"/>
					<path class="st10" d="M7,64.5L7,64.5c0-1.2-1-2.2-2.2-2.2s-2.2,1-2.2,2.1l0,0L7,64.5L7,64.5z"/>
				</g>
				<g>
					<path id="point-0-0_15_" class="st20" d="M17.5,66c0-0.7,0.6-1.2,1.2-1.2S20,65.3,20,66c0,0.7-0.6,1.2-1.2,1.2
						S17.5,66.7,17.5,66z"/>
					<path class="st10" d="M20.9,65.9L20.9,65.9c0-1.2-1-2.2-2.2-2.2s-2.2,1-2.2,2.1l0,0h4.4V65.9z"/>
				</g>
			</g>
		</g>
		<text transform="matrix(1 0 0 1 83.8384 54.8058)" class="st22 st23 st24">92</text>
		<text transform="matrix(1 0 0 1 74.2759 62.9933)" class="st22 st23 st24">86</text>
		<text transform="matrix(1 0 0 1 59.1925 85.0349)" class="st22 st23 st24">68</text>
		<text transform="matrix(1 0 0 1 45.1509 85.0349)" class="st22 st23 st24">69</text>
		<text transform="matrix(1 0 0 1 100.5093 103.7318)" class="st22 st23 st24">57</text>
		<text transform="matrix(1 0 0 1 113.9873 106.085)" class="st22 st23 st24">56</text>
		<text transform="matrix(1 0 0 1 128.1118 102.6456)" class="st22 st23 st24">58</text>
		<text transform="matrix(1 0 0 1 141.8408 115.2707)" class="st22 st23 st24">50</text>
		<text transform="matrix(1 0 0 1 155.7368 36.3977)" class="st22 st23 st24">91</text>
		<text transform="matrix(1 0 0 1 169.5698 102.6461)" class="st22 st23 st24">58</text>
		<text transform="matrix(1 0 0 1 183.5698 82.7321)" class="st22 st23 st24">73</text>
		<text transform="matrix(1 0 0 1 197.2368 116.7318)" class="st22 st23 st24">50</text>
		<text transform="matrix(1 0 0 1 211.2368 101.4155)" class="st22 st23 st24">60</text>
		<text transform="matrix(1 0 0 1 224.7202 122.3428)" class="st22 st23 st24">45</text>
		<text transform="matrix(1 0 0 1 238.521 109.1476)" class="st22 st23 st24">55</text>
		<text transform="matrix(1 0 0 1 252.8022 89.1539)" class="st22 st23 st24">67</text>
		<text transform="matrix(1 0 0 1 266.2368 92.6731)" class="st22 st23 st24">64</text>
		<text transform="matrix(1 0 0 1 281.7847 75.8429)" class="st22 st23 st24">75</text>
		<text transform="matrix(1 0 0 1 293.3052 70.1245)" class="st22 st23 st24">79</text>
		<text transform="matrix(1 0 0 1 307.3735 98.3582)" class="st22 st23 st24">62</text>
		<text transform="matrix(1 0 0 1 321.4038 107.8056)" class="st22 st23 st24">55</text>
		<text transform="matrix(1 0 0 1 335.1294 69.3175)" class="st22 st23 st24">86</text>
		<text transform="matrix(1 0 0 1 348.7563 91.958)" class="st22 st23 st24">67</text>
		<text transform="matrix(1 0 0 1 363.2827 114.0319)" class="st22 st23 st24">52</text>
		<text transform="matrix(1 0 0 1 377.9487 114.0325)" class="st22 st23 st24">52</text>
		<text transform="matrix(1 0 0 1 390.3345 106.0847)" class="st22 st23 st24">57</text>
		<text transform="matrix(1 0 0 1 404.5405 91.9582)" class="st22 st23 st24">65</text>
		<text transform="matrix(1 0 0 1 423.542 91.7304)" class="st22 st23 st24">62</text>
		<text transform="matrix(1 0 0 1 431.8091 80.7277)" class="st22 st23 st24">74</text>
		<text transform="matrix(1 0 0 1 444.4761 99.5867)" class="st22 st23 st24">60</text>
		<text transform="matrix(1 0 0 1 459.3091 107.8058)" class="st22 st23 st24">55</text>
		<text transform="matrix(1 0 0 1 473.3091 113.1398)" class="st22 st23 st24">51</text>
		<text transform="matrix(1 0 0 1 486.6421 93.7847)" class="st22 st23 st24">66</text>
		<text transform="matrix(1 0 0 1 501.3091 101.1222)" class="st22 st23 st24">60</text>
		<text transform="matrix(1 0 0 1 514.4761 91.9578)" class="st22 st23 st24">67</text>
		<text transform="matrix(1 0 0 1 527.9761 99.8934)" class="st22 st23 st24">60</text>
		<text transform="matrix(1 0 0 1 542.146 99.5873)" class="st22 st23 st24">61</text>
		<text transform="matrix(1 0 0 1 555.6724 78.2917)" class="st22 st23 st24">80</text>
		<text transform="matrix(1 0 0 1 570.1421 68.3412)" class="st22 st23 st24">82</text>
		<text transform="matrix(1 0 0 1 583.5493 76.7671)" class="st22 st23 st24">75</text>
		<text transform="matrix(1 0 0 1 597.0552 90.1394)" class="st22 st23 st24">67</text>
		<text transform="matrix(1 0 0 1 610.9761 112.8055)" class="st22 st23 st24">52</text>
		<text transform="matrix(1 0 0 1 625.3091 114.0324)" class="st22 st23 st24">51</text>
		<text transform="matrix(1 0 0 1 639.0454 91.0441)" class="st22 st23 st24">67</text>
		<text transform="matrix(1 0 0 1 652.3091 98.3289)" class="st22 st23 st24">61</text>
		<text transform="matrix(1 0 0 1 666.9761 107.1397)" class="st22 st23 st24">56</text>
		<text transform="matrix(1 0 0 1 680.1577 74.3139)" class="st22 st23 st24">79</text>
		<text transform="matrix(1 0 0 1 693.8091 78.4775)" class="st22 st23 st24">74</text>
	</g>
</g>
<g>
	<g>
		<text transform="matrix(1 0 0 1 23.5833 321.0417)" class="st12 st3 st13">1900</text>
	</g>
	<g>
		<text transform="matrix(1 0 0 1 23.5833 305.4167)" class="st12 st3 st13">1910</text>
	</g>
	<g>
		<text transform="matrix(1 0 0 1 23.5833 291.4167)" class="st12 st3 st13">1920</text>
	</g>
	<g>
		<text transform="matrix(1 0 0 1 23.5833 275.4167)" class="st12 st3 st13">1930</text>
	</g>
	<g>
		<text transform="matrix(1 0 0 1 23.5833 259.6667)" class="st12 st3 st13">1940</text>
	</g>
	<g>
		<text transform="matrix(1 0 0 1 23.5833 244.7917)" class="st12 st3 st13">1950</text>
	</g>
	<g>
		<text transform="matrix(1 0 0 1 23.5833 229.5417)" class="st12 st3 st13">1960</text>
	</g>
	<g>
		<text transform="matrix(1 0 0 1 23.5833 214.1667)" class="st12 st3 st13">1970</text>
	</g>
	<g>
		<text transform="matrix(1 0 0 1 23.5833 198.6667)" class="st12 st3 st13">1980</text>
	</g>
	<g>
		<text transform="matrix(1 0 0 1 23.5833 183.4167)" class="st12 st3 st13">1990</text>
	</g>
	<g>
		<text transform="matrix(1 0 0 1 23.5833 168.0417)" class="st12 st3 st13">2000</text>
	</g>
	<g>
		<text transform="matrix(1 0 0 1 23.5833 152.9167)" class="st12 st3 st13">2010</text>
	</g>
	<g>
		<text transform="matrix(1 0 0 1 23.5833 139.5417)" class="st12 st3 st13">2020</text>
	</g>
</g>
<g>
	<g>
		<text transform="matrix(1 0 0 1 716.3333 321.0417)" class="st12 st3 st13">1900</text>
	</g>
	<g>
		<text transform="matrix(1 0 0 1 716.3333 305.4167)" class="st12 st3 st13">1910</text>
	</g>
	<g>
		<text transform="matrix(1 0 0 1 716.3333 291.4167)" class="st12 st3 st13">1920</text>
	</g>
	<g>
		<text transform="matrix(1 0 0 1 716.3333 275.4167)" class="st12 st3 st13">1930</text>
	</g>
	<g>
		<text transform="matrix(1 0 0 1 716.3333 259.6667)" class="st12 st3 st13">1940</text>
	</g>
	<g>
		<text transform="matrix(1 0 0 1 716.3333 244.7917)" class="st12 st3 st13">1950</text>
	</g>
	<g>
		<text transform="matrix(1 0 0 1 716.3333 229.5417)" class="st12 st3 st13">1960</text>
	</g>
	<g>
		<text transform="matrix(1 0 0 1 716.3333 214.1667)" class="st12 st3 st13">1970</text>
	</g>
	<g>
		<text transform="matrix(1 0 0 1 716.3333 198.6667)" class="st12 st3 st13">1980</text>
	</g>
	<g>
		<text transform="matrix(1 0 0 1 716.3333 183.4167)" class="st12 st3 st13">1990</text>
	</g>
	<g>
		<text transform="matrix(1 0 0 1 716.3333 168.0417)" class="st12 st3 st13">2000</text>
	</g>
	<g>
		<text transform="matrix(1 0 0 1 716.3333 152.9167)" class="st12 st3 st13">2010</text>
	</g>
	<g>
		<text transform="matrix(1 0 0 1 716.3333 139.5417)" class="st12 st3 st13">2020</text>
	</g>
</g>
<g>
	<g>
		<path class="st25" d="M747,242.2c0,6.5-4.8,11.9-11,12.8"/>
		<g>
			<g>
				<path class="st26" d="M736,253.1c-1,0.1-1.8,1-1.7,2c0.1,1,1,1.8,2,1.7s1.8-1,1.7-2C737.9,253.8,737,253,736,253.1z"/>
				<path class="st27" d="M735.9,252.9c1.2-0.1,2.2,0.8,2.3,1.9c0.1,1.2-0.8,2.2-1.9,2.3c-1.2,0.1-2.2-0.8-2.3-1.9
					S734.8,253,735.9,252.9C737.1,252.8,734.8,253,735.9,252.9z M736.3,256.6c0.9-0.1,1.6-0.9,1.5-1.8c-0.1-0.9-0.9-1.6-1.8-1.5
					c-0.9,0.1-1.6,0.9-1.5,1.8C734.6,256.1,735.4,256.7,736.3,256.6C737.2,256.6,735.4,256.7,736.3,256.6z"/>
			</g>
		</g>
	</g>
</g>
<g>
	<g>
		<path class="st25" d="M747,282c0,6.5-4.8,11.9-11,12.8"/>
		<g>
			<g>
				<path class="st26" d="M736,293c-1,0.1-1.8,1-1.7,2s1,1.8,2,1.7c1-0.1,1.8-1,1.7-2C737.9,293.6,737,292.9,736,293z"/>
				<path class="st27" d="M735.9,292.7c1.2-0.1,2.2,0.8,2.3,1.9c0.1,1.2-0.8,2.2-1.9,2.3c-1.2,0.1-2.2-0.8-2.3-1.9
					S734.8,292.8,735.9,292.7C737.1,292.6,734.8,292.8,735.9,292.7z M736.3,296.5c0.9-0.1,1.6-0.9,1.5-1.8s-0.9-1.6-1.8-1.5
					c-0.9,0.1-1.6,0.9-1.5,1.8C734.6,295.9,735.4,296.5,736.3,296.5C737.2,296.4,735.4,296.5,736.3,296.5z"/>
			</g>
		</g>
	</g>
</g>
<text transform="matrix(1 0 0 1 745.8337 240.8331)" class="st27 st1 st28">WORLD WAR II</text>
<text transform="matrix(1 0 0 1 745.8337 280.9997)" class="st27 st1 st28">WORLD WAR I</text>
</svg>
